<mxfile host="Electron" modified="2024-03-11T03:14:09.741Z" agent="Mozilla/5.0 (Windows NT 10.0; Win64; x64) AppleWebKit/537.36 (KHTML, like Gecko) draw.io/22.1.2 Chrome/114.0.5735.289 Electron/25.9.4 Safari/537.36" etag="Zf1QuCaJI_ijdvzAKy46" version="22.1.2" type="device">
  <diagram name="第 1 页" id="_gRzXRO5eBBRTepZDZbT">
    <mxGraphModel dx="2072" dy="1308" grid="1" gridSize="10" guides="1" tooltips="1" connect="1" arrows="1" fold="1" page="1" pageScale="1" pageWidth="2000" pageHeight="1500" math="0" shadow="0">
      <root>
        <mxCell id="0" />
        <mxCell id="1" parent="0" />
        <mxCell id="Qs4QEQBaAsP0csd1ogdy-78" value="" style="rounded=1;whiteSpace=wrap;html=1;fillColor=none;dashed=1;dashPattern=8 8;movable=0;resizable=0;rotatable=0;deletable=0;editable=0;locked=1;connectable=0;" parent="1" vertex="1">
          <mxGeometry x="310" y="140" width="1660" height="600" as="geometry" />
        </mxCell>
        <mxCell id="Qs4QEQBaAsP0csd1ogdy-89" style="edgeStyle=orthogonalEdgeStyle;rounded=0;orthogonalLoop=1;jettySize=auto;html=1;entryX=0;entryY=0.25;entryDx=0;entryDy=0;" parent="1" source="Qs4QEQBaAsP0csd1ogdy-3" target="Qs4QEQBaAsP0csd1ogdy-88" edge="1">
          <mxGeometry relative="1" as="geometry">
            <Array as="points">
              <mxPoint x="1295" y="290" />
              <mxPoint x="1295" y="183" />
            </Array>
          </mxGeometry>
        </mxCell>
        <mxCell id="Qs4QEQBaAsP0csd1ogdy-90" value="&lt;font style=&quot;font-size: 15px;&quot;&gt;Token认证&lt;/font&gt;" style="edgeLabel;html=1;align=center;verticalAlign=middle;resizable=0;points=[];" parent="Qs4QEQBaAsP0csd1ogdy-89" vertex="1" connectable="0">
          <mxGeometry x="-0.0044" y="1" relative="1" as="geometry">
            <mxPoint as="offset" />
          </mxGeometry>
        </mxCell>
        <mxCell id="Qs4QEQBaAsP0csd1ogdy-3" value="" style="rounded=1;whiteSpace=wrap;html=1;fillColor=none;dashed=1;" parent="1" vertex="1">
          <mxGeometry x="365" y="220" width="855" height="180" as="geometry" />
        </mxCell>
        <mxCell id="Qs4QEQBaAsP0csd1ogdy-4" value="&lt;p style=&quot;line-height: 140%;&quot;&gt;&lt;font style=&quot;font-size: 20px;&quot;&gt;GateWay&lt;/font&gt;&lt;/p&gt;" style="rounded=1;whiteSpace=wrap;html=1;fillStyle=auto;fillColor=#dae8fc;strokeColor=#6c8ebf;" parent="1" vertex="1">
          <mxGeometry x="500" y="260" width="170" height="100" as="geometry" />
        </mxCell>
        <mxCell id="Qs4QEQBaAsP0csd1ogdy-5" value="&lt;p style=&quot;line-height: 140%;&quot;&gt;&lt;font style=&quot;font-size: 20px;&quot;&gt;GateWay&lt;/font&gt;&lt;/p&gt;" style="rounded=1;whiteSpace=wrap;html=1;fillStyle=auto;fillColor=#dae8fc;strokeColor=#6c8ebf;" parent="1" vertex="1">
          <mxGeometry x="750" y="260" width="170" height="100" as="geometry" />
        </mxCell>
        <mxCell id="Qs4QEQBaAsP0csd1ogdy-6" value="&lt;p style=&quot;line-height: 140%;&quot;&gt;&lt;font style=&quot;font-size: 20px;&quot;&gt;GateWay&lt;/font&gt;&lt;/p&gt;" style="rounded=1;whiteSpace=wrap;html=1;fillStyle=auto;fillColor=#dae8fc;strokeColor=#6c8ebf;" parent="1" vertex="1">
          <mxGeometry x="990" y="260" width="170" height="100" as="geometry" />
        </mxCell>
        <mxCell id="Qs4QEQBaAsP0csd1ogdy-7" value="&lt;font size=&quot;1&quot; style=&quot;&quot;&gt;&lt;b style=&quot;font-size: 18px;&quot;&gt;微服务网关层&lt;/b&gt;&lt;/font&gt;" style="text;strokeColor=none;fillColor=none;align=left;verticalAlign=middle;spacingLeft=4;spacingRight=4;overflow=hidden;points=[[0,0.5],[1,0.5]];portConstraint=eastwest;rotatable=0;whiteSpace=wrap;html=1;" parent="1" vertex="1">
          <mxGeometry x="370" y="265" width="120" height="30" as="geometry" />
        </mxCell>
        <mxCell id="Qs4QEQBaAsP0csd1ogdy-8" value="" style="rounded=1;whiteSpace=wrap;html=1;fillColor=none;dashed=1;dashPattern=8 8;" parent="1" vertex="1">
          <mxGeometry x="530" y="10" width="540" height="110" as="geometry" />
        </mxCell>
        <mxCell id="Qs4QEQBaAsP0csd1ogdy-9" value="&lt;font size=&quot;1&quot; style=&quot;&quot;&gt;&lt;b style=&quot;font-size: 18px;&quot;&gt;客户端&lt;/b&gt;&lt;/font&gt;" style="text;strokeColor=none;fillColor=none;align=left;verticalAlign=middle;spacingLeft=4;spacingRight=4;overflow=hidden;points=[[0,0.5],[1,0.5]];portConstraint=eastwest;rotatable=0;whiteSpace=wrap;html=1;" parent="1" vertex="1">
          <mxGeometry x="545" y="50" width="80" height="30" as="geometry" />
        </mxCell>
        <mxCell id="Qs4QEQBaAsP0csd1ogdy-10" value="&lt;font style=&quot;font-size: 19px;&quot;&gt;浏览器&lt;/font&gt;" style="rounded=1;whiteSpace=wrap;html=1;fillColor=#FFFF99;" parent="1" vertex="1">
          <mxGeometry x="650" y="30" width="100" height="70" as="geometry" />
        </mxCell>
        <mxCell id="Qs4QEQBaAsP0csd1ogdy-11" value="" style="endArrow=classic;html=1;rounded=0;exitX=0.282;exitY=0.99;exitDx=0;exitDy=0;exitPerimeter=0;strokeWidth=5;" parent="1" edge="1">
          <mxGeometry width="50" height="50" relative="1" as="geometry">
            <mxPoint x="668.5700000000003" y="120.00000000000009" as="sourcePoint" />
            <mxPoint x="669.0100000000001" y="220" as="targetPoint" />
          </mxGeometry>
        </mxCell>
        <mxCell id="Qs4QEQBaAsP0csd1ogdy-12" value="&lt;font style=&quot;font-size: 19px;&quot;&gt;Web请求&lt;/font&gt;" style="edgeLabel;html=1;align=center;verticalAlign=middle;resizable=0;points=[];" parent="Qs4QEQBaAsP0csd1ogdy-11" vertex="1" connectable="0">
          <mxGeometry x="-0.2039" y="4" relative="1" as="geometry">
            <mxPoint as="offset" />
          </mxGeometry>
        </mxCell>
        <mxCell id="Qs4QEQBaAsP0csd1ogdy-13" value="" style="endArrow=classic;html=1;rounded=0;exitX=0.282;exitY=0.99;exitDx=0;exitDy=0;exitPerimeter=0;strokeWidth=5;" parent="1" edge="1">
          <mxGeometry width="50" height="50" relative="1" as="geometry">
            <mxPoint x="789.29" y="120" as="sourcePoint" />
            <mxPoint x="789.7299999999998" y="219.9999999999999" as="targetPoint" />
          </mxGeometry>
        </mxCell>
        <mxCell id="Qs4QEQBaAsP0csd1ogdy-14" value="&lt;font style=&quot;font-size: 19px;&quot;&gt;Web请求&lt;/font&gt;" style="edgeLabel;html=1;align=center;verticalAlign=middle;resizable=0;points=[];" parent="Qs4QEQBaAsP0csd1ogdy-13" vertex="1" connectable="0">
          <mxGeometry x="-0.2039" y="4" relative="1" as="geometry">
            <mxPoint as="offset" />
          </mxGeometry>
        </mxCell>
        <mxCell id="Qs4QEQBaAsP0csd1ogdy-15" value="" style="endArrow=classic;html=1;rounded=0;exitX=0.282;exitY=0.99;exitDx=0;exitDy=0;exitPerimeter=0;strokeWidth=5;" parent="1" edge="1">
          <mxGeometry width="50" height="50" relative="1" as="geometry">
            <mxPoint x="920" y="120" as="sourcePoint" />
            <mxPoint x="920.4399999999998" y="219.9999999999999" as="targetPoint" />
          </mxGeometry>
        </mxCell>
        <mxCell id="Qs4QEQBaAsP0csd1ogdy-16" value="&lt;font style=&quot;font-size: 19px;&quot;&gt;Web请求&lt;/font&gt;" style="edgeLabel;html=1;align=center;verticalAlign=middle;resizable=0;points=[];" parent="Qs4QEQBaAsP0csd1ogdy-15" vertex="1" connectable="0">
          <mxGeometry x="-0.2039" y="4" relative="1" as="geometry">
            <mxPoint as="offset" />
          </mxGeometry>
        </mxCell>
        <mxCell id="Qs4QEQBaAsP0csd1ogdy-19" value="" style="rounded=1;whiteSpace=wrap;html=1;fillColor=none;dashed=1;" parent="1" vertex="1">
          <mxGeometry x="360" y="540" width="880" height="190" as="geometry" />
        </mxCell>
        <mxCell id="Qs4QEQBaAsP0csd1ogdy-24" value="&lt;font style=&quot;font-size: 16px;&quot;&gt;消息待处理层&lt;/font&gt;" style="rounded=1;whiteSpace=wrap;html=1;fillColor=#E6FFCC;" parent="1" vertex="1">
          <mxGeometry x="570" y="605" width="130" height="75" as="geometry" />
        </mxCell>
        <mxCell id="Qs4QEQBaAsP0csd1ogdy-25" value="&lt;font style=&quot;font-size: 16px;&quot;&gt;消息待处理层&lt;/font&gt;" style="rounded=1;whiteSpace=wrap;html=1;fillColor=#E6FFCC;" parent="1" vertex="1">
          <mxGeometry x="800" y="605" width="150" height="75" as="geometry" />
        </mxCell>
        <mxCell id="Qs4QEQBaAsP0csd1ogdy-26" value="&lt;font style=&quot;font-size: 16px;&quot;&gt;消息待处理层&lt;/font&gt;" style="rounded=1;whiteSpace=wrap;html=1;fillColor=#E6FFCC;" parent="1" vertex="1">
          <mxGeometry x="1040" y="600" width="160" height="80" as="geometry" />
        </mxCell>
        <mxCell id="Qs4QEQBaAsP0csd1ogdy-33" value="&lt;font style=&quot;font-size: 18px;&quot;&gt;&lt;b&gt;消息具体逻辑处理&lt;/b&gt;&lt;/font&gt;" style="text;strokeColor=none;fillColor=none;align=left;verticalAlign=middle;spacingLeft=4;spacingRight=4;overflow=hidden;points=[[0,0.5],[1,0.5]];portConstraint=eastwest;rotatable=0;whiteSpace=wrap;html=1;" parent="1" vertex="1">
          <mxGeometry x="410" y="627.5" width="170" height="30" as="geometry" />
        </mxCell>
        <mxCell id="Qs4QEQBaAsP0csd1ogdy-34" value="" style="shape=flexArrow;endArrow=classic;html=1;rounded=0;entryX=0.796;entryY=-0.015;entryDx=0;entryDy=0;entryPerimeter=0;" parent="1" edge="1">
          <mxGeometry width="50" height="50" relative="1" as="geometry">
            <mxPoint x="990" y="412.85" as="sourcePoint" />
            <mxPoint x="990.48" y="540.0000000000001" as="targetPoint" />
          </mxGeometry>
        </mxCell>
        <mxCell id="Qs4QEQBaAsP0csd1ogdy-35" value="&lt;font style=&quot;font-size: 18px;&quot;&gt;负载均衡&lt;/font&gt;" style="edgeLabel;html=1;align=center;verticalAlign=middle;resizable=0;points=[];" parent="Qs4QEQBaAsP0csd1ogdy-34" vertex="1" connectable="0">
          <mxGeometry x="-0.1636" y="-1" relative="1" as="geometry">
            <mxPoint as="offset" />
          </mxGeometry>
        </mxCell>
        <mxCell id="Qs4QEQBaAsP0csd1ogdy-36" value="" style="shape=flexArrow;endArrow=classic;html=1;rounded=0;entryX=0.796;entryY=-0.015;entryDx=0;entryDy=0;entryPerimeter=0;" parent="1" edge="1">
          <mxGeometry width="50" height="50" relative="1" as="geometry">
            <mxPoint x="834.29" y="410" as="sourcePoint" />
            <mxPoint x="834.29" y="537" as="targetPoint" />
          </mxGeometry>
        </mxCell>
        <mxCell id="Qs4QEQBaAsP0csd1ogdy-37" value="&lt;font style=&quot;font-size: 18px;&quot;&gt;负载均衡&lt;/font&gt;" style="edgeLabel;html=1;align=center;verticalAlign=middle;resizable=0;points=[];" parent="Qs4QEQBaAsP0csd1ogdy-36" vertex="1" connectable="0">
          <mxGeometry x="-0.1636" y="-1" relative="1" as="geometry">
            <mxPoint as="offset" />
          </mxGeometry>
        </mxCell>
        <mxCell id="Qs4QEQBaAsP0csd1ogdy-38" value="" style="shape=flexArrow;endArrow=classic;html=1;rounded=0;entryX=0.796;entryY=-0.015;entryDx=0;entryDy=0;entryPerimeter=0;" parent="1" edge="1">
          <mxGeometry width="50" height="50" relative="1" as="geometry">
            <mxPoint x="680" y="410" as="sourcePoint" />
            <mxPoint x="680" y="537" as="targetPoint" />
          </mxGeometry>
        </mxCell>
        <mxCell id="Qs4QEQBaAsP0csd1ogdy-39" value="&lt;font style=&quot;font-size: 18px;&quot;&gt;负载均衡&lt;/font&gt;" style="edgeLabel;html=1;align=center;verticalAlign=middle;resizable=0;points=[];" parent="Qs4QEQBaAsP0csd1ogdy-38" vertex="1" connectable="0">
          <mxGeometry x="-0.1636" y="-1" relative="1" as="geometry">
            <mxPoint as="offset" />
          </mxGeometry>
        </mxCell>
        <mxCell id="Qs4QEQBaAsP0csd1ogdy-40" value="" style="shape=flexArrow;endArrow=classic;html=1;rounded=0;entryX=0.796;entryY=-0.015;entryDx=0;entryDy=0;entryPerimeter=0;" parent="1" edge="1">
          <mxGeometry width="50" height="50" relative="1" as="geometry">
            <mxPoint x="510" y="413" as="sourcePoint" />
            <mxPoint x="510" y="540" as="targetPoint" />
          </mxGeometry>
        </mxCell>
        <mxCell id="Qs4QEQBaAsP0csd1ogdy-41" value="&lt;font style=&quot;font-size: 18px;&quot;&gt;负载均衡&lt;/font&gt;" style="edgeLabel;html=1;align=center;verticalAlign=middle;resizable=0;points=[];" parent="Qs4QEQBaAsP0csd1ogdy-40" vertex="1" connectable="0">
          <mxGeometry x="-0.1636" y="-1" relative="1" as="geometry">
            <mxPoint as="offset" />
          </mxGeometry>
        </mxCell>
        <mxCell id="Qs4QEQBaAsP0csd1ogdy-42" value="&lt;font style=&quot;font-size: 19px;&quot;&gt;RibbitMQ集群&lt;/font&gt;" style="rounded=0;whiteSpace=wrap;html=1;fillColor=#e1d5e7;strokeColor=#9673a6;" parent="1" vertex="1">
          <mxGeometry x="800" y="880" width="470" height="90" as="geometry" />
        </mxCell>
        <mxCell id="Qs4QEQBaAsP0csd1ogdy-43" value="" style="shape=flexArrow;endArrow=classic;html=1;rounded=0;endWidth=40;endSize=9.9;width=80;" parent="1" edge="1">
          <mxGeometry width="50" height="50" relative="1" as="geometry">
            <mxPoint x="1160" y="750" as="sourcePoint" />
            <mxPoint x="1160" y="870" as="targetPoint" />
          </mxGeometry>
        </mxCell>
        <mxCell id="Qs4QEQBaAsP0csd1ogdy-46" value="&lt;font style=&quot;font-size: 18px;&quot;&gt;其他业务&lt;/font&gt;" style="edgeLabel;html=1;align=center;verticalAlign=middle;resizable=0;points=[];" parent="Qs4QEQBaAsP0csd1ogdy-43" vertex="1" connectable="0">
          <mxGeometry x="0.0381" y="2" relative="1" as="geometry">
            <mxPoint y="-1" as="offset" />
          </mxGeometry>
        </mxCell>
        <mxCell id="Qs4QEQBaAsP0csd1ogdy-47" value="" style="shape=flexArrow;endArrow=classic;html=1;rounded=0;width=77.14285714285715;endSize=8.385714285714286;" parent="1" edge="1">
          <mxGeometry width="50" height="50" relative="1" as="geometry">
            <mxPoint x="970" y="750" as="sourcePoint" />
            <mxPoint x="970" y="870" as="targetPoint" />
          </mxGeometry>
        </mxCell>
        <mxCell id="Qs4QEQBaAsP0csd1ogdy-48" value="&lt;font style=&quot;font-size: 18px;&quot;&gt;消息存储&lt;br&gt;&lt;/font&gt;" style="edgeLabel;html=1;align=center;verticalAlign=middle;resizable=0;points=[];" parent="Qs4QEQBaAsP0csd1ogdy-47" vertex="1" connectable="0">
          <mxGeometry x="0.0381" y="2" relative="1" as="geometry">
            <mxPoint y="-1" as="offset" />
          </mxGeometry>
        </mxCell>
        <mxCell id="Qs4QEQBaAsP0csd1ogdy-51" value="" style="rounded=0;whiteSpace=wrap;html=1;fillColor=none;dashed=1;dashPattern=8 8;" parent="1" vertex="1">
          <mxGeometry x="790" y="1110" width="540" height="140" as="geometry" />
        </mxCell>
        <mxCell id="uU9Yc5QhHx4hShps4iQN-2" style="edgeStyle=orthogonalEdgeStyle;rounded=0;orthogonalLoop=1;jettySize=auto;html=1;" edge="1" parent="1" source="Qs4QEQBaAsP0csd1ogdy-52" target="Qs4QEQBaAsP0csd1ogdy-63">
          <mxGeometry relative="1" as="geometry" />
        </mxCell>
        <mxCell id="Qs4QEQBaAsP0csd1ogdy-52" value="&lt;font style=&quot;font-size: 18px;&quot;&gt;消息存储&lt;/font&gt;" style="rounded=1;whiteSpace=wrap;html=1;fillColor=#fff2cc;strokeColor=#d6b656;" parent="1" vertex="1">
          <mxGeometry x="1140" y="1135" width="140" height="90" as="geometry" />
        </mxCell>
        <mxCell id="Qs4QEQBaAsP0csd1ogdy-53" value="" style="shape=flexArrow;endArrow=classic;html=1;rounded=0;width=77.14285714285715;endSize=8.857142857142858;" parent="1" edge="1">
          <mxGeometry width="50" height="50" relative="1" as="geometry">
            <mxPoint x="920" y="980" as="sourcePoint" />
            <mxPoint x="920" y="1100" as="targetPoint" />
          </mxGeometry>
        </mxCell>
        <mxCell id="Qs4QEQBaAsP0csd1ogdy-54" value="&lt;font style=&quot;font-size: 18px;&quot;&gt;消息下发&lt;/font&gt;" style="edgeLabel;html=1;align=center;verticalAlign=middle;resizable=0;points=[];" parent="Qs4QEQBaAsP0csd1ogdy-53" vertex="1" connectable="0">
          <mxGeometry x="0.0381" y="2" relative="1" as="geometry">
            <mxPoint y="-1" as="offset" />
          </mxGeometry>
        </mxCell>
        <mxCell id="Qs4QEQBaAsP0csd1ogdy-55" value="" style="shape=flexArrow;endArrow=classic;html=1;rounded=0;width=75.71428571428572;endSize=6.571428571428571;" parent="1" edge="1">
          <mxGeometry width="50" height="50" relative="1" as="geometry">
            <mxPoint x="1050" y="980" as="sourcePoint" />
            <mxPoint x="1050" y="1100" as="targetPoint" />
          </mxGeometry>
        </mxCell>
        <mxCell id="Qs4QEQBaAsP0csd1ogdy-56" value="&lt;font style=&quot;font-size: 18px;&quot;&gt;消息下发&lt;/font&gt;" style="edgeLabel;html=1;align=center;verticalAlign=middle;resizable=0;points=[];" parent="Qs4QEQBaAsP0csd1ogdy-55" vertex="1" connectable="0">
          <mxGeometry x="0.0381" y="2" relative="1" as="geometry">
            <mxPoint y="-1" as="offset" />
          </mxGeometry>
        </mxCell>
        <mxCell id="Qs4QEQBaAsP0csd1ogdy-57" value="" style="shape=flexArrow;endArrow=classic;html=1;rounded=0;endWidth=48.57142857142858;endSize=10;width=82.85714285714286;" parent="1" edge="1">
          <mxGeometry width="50" height="50" relative="1" as="geometry">
            <mxPoint x="1190" y="980" as="sourcePoint" />
            <mxPoint x="1190" y="1100" as="targetPoint" />
          </mxGeometry>
        </mxCell>
        <mxCell id="Qs4QEQBaAsP0csd1ogdy-58" value="&lt;font style=&quot;font-size: 18px;&quot;&gt;消息下发&lt;/font&gt;" style="edgeLabel;html=1;align=center;verticalAlign=middle;resizable=0;points=[];" parent="Qs4QEQBaAsP0csd1ogdy-57" vertex="1" connectable="0">
          <mxGeometry x="0.0381" y="2" relative="1" as="geometry">
            <mxPoint y="-1" as="offset" />
          </mxGeometry>
        </mxCell>
        <mxCell id="uU9Yc5QhHx4hShps4iQN-1" style="edgeStyle=orthogonalEdgeStyle;rounded=0;orthogonalLoop=1;jettySize=auto;html=1;entryX=1;entryY=0.75;entryDx=0;entryDy=0;" edge="1" parent="1" source="Qs4QEQBaAsP0csd1ogdy-59" target="Qs4QEQBaAsP0csd1ogdy-60">
          <mxGeometry relative="1" as="geometry" />
        </mxCell>
        <mxCell id="Qs4QEQBaAsP0csd1ogdy-59" value="&lt;font style=&quot;font-size: 18px;&quot;&gt;离线消息&lt;/font&gt;" style="rounded=1;whiteSpace=wrap;html=1;fillColor=#fff2cc;strokeColor=#d6b656;arcSize=18;" parent="1" vertex="1">
          <mxGeometry x="870" y="1135" width="140" height="90" as="geometry" />
        </mxCell>
        <mxCell id="Qs4QEQBaAsP0csd1ogdy-60" value="&lt;font style=&quot;font-size: 18px;&quot;&gt;Redis集群&lt;/font&gt;" style="rounded=0;whiteSpace=wrap;html=1;fillColor=#f5f5f5;fontColor=#333333;strokeColor=#666666;" parent="1" vertex="1">
          <mxGeometry x="735" y="1330" width="160" height="90" as="geometry" />
        </mxCell>
        <mxCell id="Qs4QEQBaAsP0csd1ogdy-63" value="&lt;font style=&quot;font-size: 18px;&quot;&gt;&lt;strong style=&quot;box-sizing: border-box; font-family: &amp;quot;Open Sans&amp;quot;, &amp;quot;Clear Sans&amp;quot;, &amp;quot;Helvetica Neue&amp;quot;, Helvetica, Arial, &amp;quot;Segoe UI Emoji&amp;quot;, sans-serif; font-size: 16px; orphans: 4; background-color: rgb(255, 255, 255);&quot;&gt;Elasticsearch&lt;/strong&gt;集群&lt;/font&gt;" style="rounded=0;whiteSpace=wrap;html=1;fillColor=#f5f5f5;fontColor=#333333;strokeColor=#666666;align=center;" parent="1" vertex="1">
          <mxGeometry x="1130" y="1350" width="160" height="90" as="geometry" />
        </mxCell>
        <mxCell id="Qs4QEQBaAsP0csd1ogdy-66" value="" style="group" parent="1" vertex="1" connectable="0">
          <mxGeometry x="50" y="750" width="630" height="660" as="geometry" />
        </mxCell>
        <mxCell id="Qs4QEQBaAsP0csd1ogdy-18" value="" style="rounded=1;whiteSpace=wrap;html=1;fillColor=none;dashed=1;dashPattern=8 8;" parent="Qs4QEQBaAsP0csd1ogdy-66" vertex="1">
          <mxGeometry y="125" width="630" height="535" as="geometry" />
        </mxCell>
        <mxCell id="Qs4QEQBaAsP0csd1ogdy-20" value="&lt;font style=&quot;font-size: 20px;&quot;&gt;Netty-Web&lt;/font&gt;" style="rounded=1;whiteSpace=wrap;html=1;fillColor=#f8cecc;strokeColor=#b85450;" parent="Qs4QEQBaAsP0csd1ogdy-66" vertex="1">
          <mxGeometry x="90" y="165" width="150" height="100" as="geometry" />
        </mxCell>
        <mxCell id="Qs4QEQBaAsP0csd1ogdy-21" value="&lt;font style=&quot;font-size: 20px;&quot;&gt;Netty-Web&lt;/font&gt;" style="rounded=1;whiteSpace=wrap;html=1;fillColor=#f8cecc;strokeColor=#b85450;" parent="Qs4QEQBaAsP0csd1ogdy-66" vertex="1">
          <mxGeometry x="280" y="170" width="150" height="95" as="geometry" />
        </mxCell>
        <mxCell id="Qs4QEQBaAsP0csd1ogdy-22" value="&lt;font style=&quot;font-size: 20px;&quot;&gt;Netty-Web&lt;/font&gt;" style="rounded=1;whiteSpace=wrap;html=1;fillColor=#f8cecc;strokeColor=#b85450;" parent="Qs4QEQBaAsP0csd1ogdy-66" vertex="1">
          <mxGeometry x="460" y="165" width="150" height="100" as="geometry" />
        </mxCell>
        <mxCell id="Qs4QEQBaAsP0csd1ogdy-23" value="&lt;font style=&quot;font-size: 18px;&quot;&gt;Netty集群&lt;/font&gt;" style="text;strokeColor=none;fillColor=none;align=left;verticalAlign=middle;spacingLeft=4;spacingRight=4;overflow=hidden;points=[[0,0.5],[1,0.5]];portConstraint=eastwest;rotatable=0;whiteSpace=wrap;html=1;" parent="Qs4QEQBaAsP0csd1ogdy-66" vertex="1">
          <mxGeometry y="205" width="100" height="30" as="geometry" />
        </mxCell>
        <mxCell id="Qs4QEQBaAsP0csd1ogdy-27" value="" style="shape=flexArrow;endArrow=classic;html=1;rounded=0;" parent="Qs4QEQBaAsP0csd1ogdy-66" edge="1">
          <mxGeometry width="50" height="50" relative="1" as="geometry">
            <mxPoint x="550" as="sourcePoint" />
            <mxPoint x="550" y="120" as="targetPoint" />
          </mxGeometry>
        </mxCell>
        <mxCell id="Qs4QEQBaAsP0csd1ogdy-28" value="&lt;font style=&quot;font-size: 17px;&quot;&gt;消息转发&lt;/font&gt;" style="edgeLabel;html=1;align=center;verticalAlign=middle;resizable=0;points=[];" parent="Qs4QEQBaAsP0csd1ogdy-27" vertex="1" connectable="0">
          <mxGeometry x="-0.1905" y="-1" relative="1" as="geometry">
            <mxPoint as="offset" />
          </mxGeometry>
        </mxCell>
        <mxCell id="Qs4QEQBaAsP0csd1ogdy-29" value="" style="shape=flexArrow;endArrow=classic;html=1;rounded=0;" parent="Qs4QEQBaAsP0csd1ogdy-66" edge="1">
          <mxGeometry width="50" height="50" relative="1" as="geometry">
            <mxPoint x="470" as="sourcePoint" />
            <mxPoint x="470" y="120" as="targetPoint" />
          </mxGeometry>
        </mxCell>
        <mxCell id="Qs4QEQBaAsP0csd1ogdy-30" value="&lt;font style=&quot;font-size: 17px;&quot;&gt;消息转发&lt;/font&gt;" style="edgeLabel;html=1;align=center;verticalAlign=middle;resizable=0;points=[];" parent="Qs4QEQBaAsP0csd1ogdy-29" vertex="1" connectable="0">
          <mxGeometry x="-0.1905" y="-1" relative="1" as="geometry">
            <mxPoint as="offset" />
          </mxGeometry>
        </mxCell>
        <mxCell id="Qs4QEQBaAsP0csd1ogdy-31" value="" style="shape=flexArrow;endArrow=classic;html=1;rounded=0;" parent="Qs4QEQBaAsP0csd1ogdy-66" edge="1">
          <mxGeometry width="50" height="50" relative="1" as="geometry">
            <mxPoint x="390" as="sourcePoint" />
            <mxPoint x="390" y="120" as="targetPoint" />
          </mxGeometry>
        </mxCell>
        <mxCell id="Qs4QEQBaAsP0csd1ogdy-32" value="&lt;font style=&quot;font-size: 17px;&quot;&gt;消息转发&lt;/font&gt;" style="edgeLabel;html=1;align=center;verticalAlign=middle;resizable=0;points=[];" parent="Qs4QEQBaAsP0csd1ogdy-31" vertex="1" connectable="0">
          <mxGeometry x="-0.1905" y="-1" relative="1" as="geometry">
            <mxPoint as="offset" />
          </mxGeometry>
        </mxCell>
        <mxCell id="Qs4QEQBaAsP0csd1ogdy-72" value="&lt;font style=&quot;font-size: 20px;&quot;&gt;Netty-PC&lt;/font&gt;" style="rounded=1;whiteSpace=wrap;html=1;fillColor=#f8cecc;strokeColor=#b85450;" parent="Qs4QEQBaAsP0csd1ogdy-66" vertex="1">
          <mxGeometry x="90" y="330" width="150" height="100" as="geometry" />
        </mxCell>
        <mxCell id="Qs4QEQBaAsP0csd1ogdy-71" value="&lt;font style=&quot;font-size: 20px;&quot;&gt;Netty-PC&lt;/font&gt;" style="rounded=1;whiteSpace=wrap;html=1;fillColor=#f8cecc;strokeColor=#b85450;" parent="Qs4QEQBaAsP0csd1ogdy-66" vertex="1">
          <mxGeometry x="280" y="330" width="150" height="100" as="geometry" />
        </mxCell>
        <mxCell id="Qs4QEQBaAsP0csd1ogdy-73" value="&lt;font style=&quot;font-size: 20px;&quot;&gt;Netty-PC&lt;/font&gt;" style="rounded=1;whiteSpace=wrap;html=1;fillColor=#f8cecc;strokeColor=#b85450;" parent="Qs4QEQBaAsP0csd1ogdy-66" vertex="1">
          <mxGeometry x="460" y="330" width="150" height="100" as="geometry" />
        </mxCell>
        <mxCell id="Qs4QEQBaAsP0csd1ogdy-74" value="&lt;font style=&quot;font-size: 20px;&quot;&gt;Netty-Phone&lt;/font&gt;" style="rounded=1;whiteSpace=wrap;html=1;fillColor=#f8cecc;strokeColor=#b85450;" parent="Qs4QEQBaAsP0csd1ogdy-66" vertex="1">
          <mxGeometry x="90" y="490" width="150" height="100" as="geometry" />
        </mxCell>
        <mxCell id="Qs4QEQBaAsP0csd1ogdy-75" value="&lt;font style=&quot;font-size: 20px;&quot;&gt;Netty-Phone&lt;/font&gt;" style="rounded=1;whiteSpace=wrap;html=1;fillColor=#f8cecc;strokeColor=#b85450;" parent="Qs4QEQBaAsP0csd1ogdy-66" vertex="1">
          <mxGeometry x="280" y="490" width="150" height="100" as="geometry" />
        </mxCell>
        <mxCell id="Qs4QEQBaAsP0csd1ogdy-76" value="&lt;font style=&quot;font-size: 20px;&quot;&gt;Netty-Phone&lt;/font&gt;" style="rounded=1;whiteSpace=wrap;html=1;fillColor=#f8cecc;strokeColor=#b85450;" parent="Qs4QEQBaAsP0csd1ogdy-66" vertex="1">
          <mxGeometry x="460" y="490" width="150" height="100" as="geometry" />
        </mxCell>
        <mxCell id="Qs4QEQBaAsP0csd1ogdy-67" style="edgeStyle=orthogonalEdgeStyle;rounded=0;orthogonalLoop=1;jettySize=auto;html=1;entryX=0;entryY=0.5;entryDx=0;entryDy=0;strokeWidth=3;" parent="1" source="Qs4QEQBaAsP0csd1ogdy-18" target="Qs4QEQBaAsP0csd1ogdy-8" edge="1">
          <mxGeometry relative="1" as="geometry">
            <Array as="points">
              <mxPoint x="160" y="65" />
            </Array>
          </mxGeometry>
        </mxCell>
        <mxCell id="Qs4QEQBaAsP0csd1ogdy-68" value="&lt;font style=&quot;font-size: 18px;&quot;&gt;发送消息给客户端&lt;/font&gt;" style="edgeLabel;html=1;align=center;verticalAlign=middle;resizable=0;points=[];" parent="Qs4QEQBaAsP0csd1ogdy-67" vertex="1" connectable="0">
          <mxGeometry x="-0.3353" y="-3" relative="1" as="geometry">
            <mxPoint as="offset" />
          </mxGeometry>
        </mxCell>
        <mxCell id="Qs4QEQBaAsP0csd1ogdy-69" value="&lt;span style=&quot;font-size: 19px;&quot;&gt;PC&lt;/span&gt;" style="rounded=1;whiteSpace=wrap;html=1;fillColor=#FFFF99;" parent="1" vertex="1">
          <mxGeometry x="800" y="30" width="100" height="70" as="geometry" />
        </mxCell>
        <mxCell id="Qs4QEQBaAsP0csd1ogdy-70" value="&lt;font style=&quot;font-size: 19px;&quot;&gt;Phone&lt;/font&gt;" style="rounded=1;whiteSpace=wrap;html=1;fillColor=#FFFF99;" parent="1" vertex="1">
          <mxGeometry x="940" y="30" width="100" height="70" as="geometry" />
        </mxCell>
        <mxCell id="Qs4QEQBaAsP0csd1ogdy-79" value="&lt;font style=&quot;font-size: 18px;&quot;&gt;处理Web请求&lt;/font&gt;" style="text;strokeColor=none;fillColor=none;align=left;verticalAlign=middle;spacingLeft=4;spacingRight=4;overflow=hidden;points=[[0,0.5],[1,0.5]];portConstraint=eastwest;rotatable=0;whiteSpace=wrap;html=1;" parent="1" vertex="1">
          <mxGeometry x="1810" y="670" width="130" height="30" as="geometry" />
        </mxCell>
        <mxCell id="Qs4QEQBaAsP0csd1ogdy-88" value="&lt;font style=&quot;font-size: 18px;&quot;&gt;Redis集群&lt;/font&gt;" style="rounded=0;whiteSpace=wrap;html=1;fillColor=#f5f5f5;fontColor=#333333;strokeColor=#666666;" parent="1" vertex="1">
          <mxGeometry x="1370" y="160" width="160" height="90" as="geometry" />
        </mxCell>
        <mxCell id="Qs4QEQBaAsP0csd1ogdy-91" value="" style="html=1;shadow=0;dashed=0;align=center;verticalAlign=middle;shape=mxgraph.arrows2.bendArrow;dy=15;dx=38;notch=0;arrowHead=55;rounded=0;rotation=90;strokeWidth=1;perimeterSpacing=1;" parent="1" vertex="1">
          <mxGeometry x="1392.5" y="127.5" width="110" height="455" as="geometry" />
        </mxCell>
        <mxCell id="Qs4QEQBaAsP0csd1ogdy-92" value="&lt;font style=&quot;font-size: 18px;&quot;&gt;用户登录注册&lt;/font&gt;" style="text;strokeColor=none;fillColor=default;align=left;verticalAlign=middle;spacingLeft=4;spacingRight=4;overflow=hidden;points=[[0,0.5],[1,0.5]];portConstraint=eastwest;rotatable=0;whiteSpace=wrap;html=1;" parent="1" vertex="1">
          <mxGeometry x="1392.5" y="290" width="167.5" height="50" as="geometry" />
        </mxCell>
        <mxCell id="Qs4QEQBaAsP0csd1ogdy-93" value="&lt;font style=&quot;font-size: 17px;&quot;&gt;MySQL&lt;/font&gt;" style="rounded=0;whiteSpace=wrap;html=1;" parent="1" vertex="1">
          <mxGeometry x="1485" y="820" width="200" height="90" as="geometry" />
        </mxCell>
        <mxCell id="Qs4QEQBaAsP0csd1ogdy-82" value="" style="rounded=1;whiteSpace=wrap;html=1;fillColor=none;dashed=1;" parent="1" vertex="1">
          <mxGeometry x="1300" y="410" width="640" height="220" as="geometry" />
        </mxCell>
        <mxCell id="Qs4QEQBaAsP0csd1ogdy-83" value="&lt;font style=&quot;font-size: 17px;&quot;&gt;用户信息&lt;/font&gt;" style="text;strokeColor=none;fillColor=none;align=left;verticalAlign=middle;spacingLeft=4;spacingRight=4;overflow=hidden;points=[[0,0.5],[1,0.5]];portConstraint=eastwest;rotatable=0;whiteSpace=wrap;html=1;" parent="1" vertex="1">
          <mxGeometry x="1850" y="510" width="80" height="30" as="geometry" />
        </mxCell>
        <mxCell id="Qs4QEQBaAsP0csd1ogdy-98" style="edgeStyle=orthogonalEdgeStyle;rounded=0;orthogonalLoop=1;jettySize=auto;html=1;entryX=0.5;entryY=0;entryDx=0;entryDy=0;strokeWidth=2;" parent="1" source="Qs4QEQBaAsP0csd1ogdy-84" target="Qs4QEQBaAsP0csd1ogdy-93" edge="1">
          <mxGeometry relative="1" as="geometry">
            <Array as="points">
              <mxPoint x="1405" y="600" />
              <mxPoint x="1585" y="600" />
            </Array>
          </mxGeometry>
        </mxCell>
        <mxCell id="Qs4QEQBaAsP0csd1ogdy-84" value="用户信息" style="rounded=1;whiteSpace=wrap;html=1;fillColor=#d5e8d4;strokeColor=#82b366;" parent="1" vertex="1">
          <mxGeometry x="1350" y="470" width="110" height="90" as="geometry" />
        </mxCell>
        <mxCell id="Qs4QEQBaAsP0csd1ogdy-96" style="edgeStyle=orthogonalEdgeStyle;rounded=0;orthogonalLoop=1;jettySize=auto;html=1;entryX=0.5;entryY=0;entryDx=0;entryDy=0;strokeWidth=2;" parent="1" source="Qs4QEQBaAsP0csd1ogdy-85" target="Qs4QEQBaAsP0csd1ogdy-93" edge="1">
          <mxGeometry relative="1" as="geometry" />
        </mxCell>
        <mxCell id="Qs4QEQBaAsP0csd1ogdy-85" value="用户信息" style="rounded=1;whiteSpace=wrap;html=1;fillColor=#d5e8d4;strokeColor=#82b366;" parent="1" vertex="1">
          <mxGeometry x="1530" y="470" width="110" height="90" as="geometry" />
        </mxCell>
        <mxCell id="Qs4QEQBaAsP0csd1ogdy-97" style="edgeStyle=orthogonalEdgeStyle;rounded=0;orthogonalLoop=1;jettySize=auto;html=1;strokeWidth=2;" parent="1" source="Qs4QEQBaAsP0csd1ogdy-86" target="Qs4QEQBaAsP0csd1ogdy-93" edge="1">
          <mxGeometry relative="1" as="geometry">
            <Array as="points">
              <mxPoint x="1765" y="600" />
              <mxPoint x="1585" y="600" />
            </Array>
          </mxGeometry>
        </mxCell>
        <mxCell id="Qs4QEQBaAsP0csd1ogdy-86" value="用户信息" style="rounded=1;whiteSpace=wrap;html=1;fillColor=#d5e8d4;strokeColor=#82b366;" parent="1" vertex="1">
          <mxGeometry x="1710" y="470" width="110" height="90" as="geometry" />
        </mxCell>
        <mxCell id="Qs4QEQBaAsP0csd1ogdy-100" value="" style="rounded=0;whiteSpace=wrap;html=1;" parent="1" vertex="1">
          <mxGeometry x="1400" y="1010" width="570" height="390" as="geometry" />
        </mxCell>
        <mxCell id="Qs4QEQBaAsP0csd1ogdy-101" value="&lt;font style=&quot;font-size: 18px;&quot;&gt;Sentinel流量防卫兵&lt;/font&gt;" style="rounded=1;whiteSpace=wrap;html=1;arcSize=50;fillColor=#ffe6cc;strokeColor=#d79b00;" parent="1" vertex="1">
          <mxGeometry x="400" y="560" width="830" height="20" as="geometry" />
        </mxCell>
        <mxCell id="Qs4QEQBaAsP0csd1ogdy-102" value="" style="shape=image;aspect=fixed;image=data:image/png,iVBORw0KGgoAAAANSUhEUgAAAVQAAAFqCAYAAABF4qJoAAAACXBIWXMAABJ0AAASdAHeZh94AAAgAElEQVR42uy9Z3MbV9q1e3U3ciJIgAjMmVTOzuHDqfd/PX/r1HneSZ6xrRxIScwBJEgi59D5fOgGREqkgi2PZbvvKo5HLLDRaOy99h3XEkzTNHHMMcccc+xXm+g8Asccc8wxB1Adc8wxxxxAdcwxxxxzANUxxxxzzDEHUB1zzDHHfmtzOY/Asf+WmabJL20qEQQBQRCch+iYA6iO/TWA8iTomaaJYRj91xiGiWEaFqCaJobxbnAVBBBFEQQB0b62KIqnQPbkv3vXc4DXMQdQHfukzTCMM73EHpj2sNE0DQzDQFVVOt1uHzxlWbb+bV+r3eqgqOpb31OSRILBAC6XC0EQcLlchIJBAERRwOPx4PV6bVAVAPMU2J51nycB2DHHHEB17L/icb4OSoIg9L3QHjgpikKn06Xd6dDtdtF1g263Q7PZot1u02q30TUdXdfpdLp0Oh0AdEOn2WyjvhNQJUKhAG6XGwRwu9yEwyFEUcTlcuH3+wkGAwQC1o/L5cLjdhMI+AkE/CfA9v0/p2OOOYDq2EcH0B549rxNWVboyl26XZl2u40syzQbTSrVKpVqjXqjia5p1Gt1qrUanW4XXdNRNQ3D0DEMo/8+VtT/frlUyyvu/wtRFGxAdeN2u/B6PEQiYQYHB3HbYDoYjTIYHSAyEMHv9+Pz+fD5fHi9HnxeL263uw+0vc/pAKxjH8MEZ/TUsZPFIl3XUVUVVdWQFYVmo0m9XqdWr1OpVKlWa5RKJRrNJq12m263i6JoaJoGpomqaWiqim4YmIaBcc7yeh/Qen1pngQ8K38qIIkiLrcLt8uNIIpIkoTH7cbr9RAIBAmHQwwODjI4aIFsNDrAYDRKMBjE4/HgdrvxeNxIktS/JwdQHXMA1bFf5JWapomqaiiqgqaq1OsNqtUa1VqNUrlC9uCQeqNOu92m0+nS7XZptzvIioKmaRYYY2Uwz3ufjwVQJ5fqK/ADzJPZU6xfYOVcPR43fr/f+vH5CAYDJIaHicdjDA5GGRgYYGAgwkAkgtf2Xj0e9xvpDscccwDVsXOByTCs4lGn06FYLJM9OqJcKpPL5ymXKzRbLRr1JqVyGVVRbE/zVcj+vmD5WyyvD/FuX3+tKIoEg0Ei4RChUIhgMMBAJEIymWR4OE4yOUwqmSAQDCLaXQROIcsxB1AdO9M0TaPZbFEslahUqhQKRQ4OsuwfZClXKtRqNbpd+fQi4XUP8LcDyzcW6Ikb+NB3Owt4++1dJ3xZt8tFNDpALDZEOpVifHyURDJp/W5okIFIBI/H806wdswxB1D/AqbrOq12u5//PDo6Zndvn1wuT7FYol6vo9rhe6949HqB6kOWyUmw+gjuNGC3ZQk9oBR/8Xu9nic1TRMBq0VLlEQkyUXAHyAej5FMJpicGGd0dIRYbIjBaJRQKIgois6ggWOvligGXb1LQ6s5gPpnBlFZlmm22tSqNbJHR+zu7JHZ36dYKtNutVAUBUVV0TT9V4ftpg18p72/Xwc4AuB2S4DVu2pi9bRi2q1bmAg9oBU+LCx/HQxPArMoirjdbvw+L+FwmGg0SiqVZHZmmonJcQbCYQKBAH6/D5fLaZRxzPFQ/5wnpWmi6zqKolCvNzg+zrGzl2F//4BcLk+lUqXeaCDLct8zMzm7dei8s/isCpT1J4Y9zSSefDWY5i8CVtM08bhdTEyMEQoF0TXrgJAVBVlWUBQVVVXRVBVN0zBMMO37M8+67zeg83yAfTX1BaIo4Xa7CQYDxIaGGB8fJZlMMjqSZnQ0zeDgIF6P51SXgGMOoDr2BwdSq1qvUq3WODw6Zntnl63tHY4OjyhXKnQ7XXR7FPT9AfT197FaoXoA1OsJlSQXXq8bn9eHKIm2h2wVvDqdDoYBfCDYmKZBJBLm//yf/4eZ6SkkQUSWZRRFpt3p0mq1aLVa1Ot1cvk8+XyRVquFrhuAcApC+/ctCIii9OHeq/1vURQJBQOEIxESw8NMTU0wNzfL2EiaaDSK1+vppwMc+2uaE6/8Qc0wDERR7ANpvd7gIHvIxsYmO3sZDg6yFApFNE1900l7C5C+rQgkSRIen5dgwE8wFCIcChEMBgmFgkSjUYKBAJLkwsREVRWKpTLb2zscHh7Ranc/CGgEQcDv8zMzPc2Vy5cwDZ1Go4EJSC4XGNbnbrVbHB/lWN/cYHnlObnjvAWqtqdsgWAQn89Lt9ul1Xp1sHxoikPXdWr1BrV6g1wuT2Z/n52dPSYnx5mfm2V8bIyhoSg+n+/UdRyAdQDVsU/UE+1tUNM06XQ61OsNjo5zbG9vs7m1w/b2LrV6DV3XMQzbE7V7Rd/mjfbCf4vQxIrrhVPtQiY+n4/J8TEuXrzAcDxOdDBKOBTC5/Pi9Xr7nikCuN0eNE1ndXWVhw8fsba+QaVaf++WJ1EAr9eD1+NBVRR29/ZYWXmOKEpEogNEQiEL2INBZudmSI+kcbnc3Lt7j1y+iCSJFviKAslkkvn5GTBhdXWd7OERXVlGFMRzi1knc6qv978KgoCqqpRKZarVGlvbO+zsZJifm2FmZpLx8XEi4TBer5UKcIDVAVTHPmFQ1TSNUqnMQfaQ3b0Mm1vb7O3u0m536coyuq6/kQ44H0TNV835gojH86qxvdN9dS3TNHC5JEZHR/jm66/w+/00m00azSb1RoNGo0Gn3bGAShIZGhxiYmKcpcVFgsEAHo+Hh48e02x13qOv0zoIAn4fHo+bVrvN2voGf/v7PwEBr8+Hz+sh4PcRi8W4eGGJK1cuc+XyJQr5AsVS2f58JoahIwowNjrK4sI8oXCYxt//SSfftdiAzbcdXqadqhDOPNh630Wz2WR9Y4PDo0PWNzZYmJ9ncnKcsbFRYkND+HxeB1AdQHXsUwNSRVFotdqUymVWVl6ytr7B0fEx1WqNVqt5auO/Ozfaa0UycUkiXq+XcGSAxHCMWGyITqfDixcvaTSs6woImIaJaZiEQiEM02R9Y5Pl5WUaDWsMVZFlVE1DFEXC4TAL83N88cUXjI+N0b3epVyp8OzZMoLo5vU85ymQt1mh/AE/bpfLKrLV6lSrNQRBRGg07aZ7OMhmaXc6zMzOkkwmSadTeDxuOh0ZSZIwDLNP1jI8nGBmZprHj59SLJbtZyS8CeaAIAoggGn2cs1nPVehn37p2AQxzWaLQqHE2voGiwvzXFhaZGxshGAwiNfrcUDVAVTHfk8Q7f3IskKhUGB9Y4sXL1fZ29snXyjQtSnxTNuZet/cqGkaSKJEMBAgFh9ibGyciYkJUskEwaCf/f0D9vf3qdebCIKJIIqomkatUadrdwlks1meLa/Qbrf7hCe9t5ekPOVyGa/Xy5dffsHszCyHR8esra2h6+Zb+kZ74bFo52QlFMUiZjFNsx/Km6aBphkoiko+X6DZahIJh/D5fScYsazPXG80Oc4V6Coyw/E48dgQ+/sHdDodC3TN02Dq9XqIxYaQJMmaGGu0UFXt3HvtAWsvDdPpdCiWSpRKZbKHhzawLthg70UUBaeP1QFUx/5bZpyopBuGQa1WY3Nrh5era6yurbO3t9+foz8rFD3vmqapIwgiPp+PcGSQdDLJ5OQEExMTjNiV6k6nQ6FQoFyuoGq6lUc1LdBQVY16vUGr2SIUDuL1epEkCV03cLncr4AFE9MwKJcrPHn6jPHxMS5dvMDk5ASxWIx8vohpGufmMHseajAYRJREdEW2c7N2ksLuScUGv6GhKD6vF1mWaTUt8BNsYmqAbrdLPl+gkC8wGI2STCYIhQK0Wi1cLhcipjVaa5qEwiEW5ma5fuMaoiiyubnF8xer5HIFREnkrEd8FseAoqgcHh1RKpc4OMiSPTzkwtIi83OzxGJDuN1uZ6E7gOrYf8MrBTBMk267Q/bwiLX1dZ4+XWFnd8+qdH9g25MggMfrIRQMMBQbYiSdZmQkzeTkBKlUEo/bTaVaZXNzk62tbXb39sjl8lSrNQskhV6Pq0ar2aRcKRMMBYgMRAiHQ1Qq1Vcedf9NrQRlPp9nP3PA5MQ4Q0ODjI2NUiyWMDQDQRTOvX+XSyIQCOB2u3G73SwuzPd7TxW5i6qqGKbBQGSA69evEQwG2c/sk8nso6qa3W1gQbymqZTLJTKZDEODgySTCcLhMMfHOWs6zLQ6JmJDMS4uLfLVV1+wuLjA/kGW46NjJDvnK/DuiazXC1CyrJA9PKRULrO3t8/xcY6lpQXGx8aIRgdO8cw65gCqYx8ZTA3DQFEUSuUKW1vbPFt+zvrGJtVqFVlWXgHuO1p/ToOT1SB/YWmRubk5EskEIqAoCgf7WQ6Pjtjd3eX4OEepXKbd7qAbBgKnRzwNw6Rte7DpdIqA34/P50fXDV53uHrw0O3K5PIWOA/FhhgZSfP8+Us0TT8/PSFYLVp+vx+P200wGOTa1ctMT08hK3Yzvw2ooVCIZGKY/ewhjx4/YS+TscDpBPoZBjQaTTKZfa5cuUw8FmMwGkUURQxDx+VykU6luH79KtevXyMxPMzW1jZ37z1g5fkLCsUSgiieSA2833fZA0nDMOl0uuxlMlSqNfYyB1y7dplLFy4Qjw9ZXrLTv+oAqmMfP9SvVmscH+dYefGSp0+XyecLNJrNNyr3H7C1cUki42OjXL9+lbGxMZqtFutr6+zs7JI9PKJYKFJvNFAUBV03TnhZdgPVCW9YkWXK5Qq6rhMKBfuSJOeZrutUa1WazSbpkTTRgShut1U0elsTlyS5CAT8gEC1WuXo6JiuLOMLBPqs/B63m2AoiMfjpVwqUSgW6LzW79q7/063S/bwkHa7w+DQIMPDcXw+L6YJk5MT3LxxnaXFBQLBAKvr69y/d5+trR2qtQa6ocMvnPY6+exkWaFUKqHIMvVGg1KxzJUrF0klk0Qi4VMELI45gOrYL9hwvR8rV1pneeUFz5+/YH1zi1wu/95AKgi9scvX50IthilZUey2KA+57W1+vnuf3d09mq0WmqphYvZHRwU7VymKAoJo5Uh7yUNV06jX6+i6TiAQIBgKIUlvb4PqdKx2LrfLGuHsFZbeBlFul0QwGMQwdLZ3drl//wGlcpVQOITP68Xn8xIOhxgdGWV2doZkMsnkxATFQolcvtAP03sng6qoFApFisUioyNphoYGicfjBAIBvv/+O2amJ9FUjZWV5zx4+Jjt7R0URcXk1xWPXs+vGoZBvdGgu71DpVzh8PCQS5cvcvHCEslEArfb2pIOZaADqI79QkCVZZlcLs/TZys8fvqMPRvoTlaPz/bj6OdbTVtmRBBERNGaK+/9lapqHB4eks0eMjk5iVty0Ww0aDZb6IaBaDef65oG6Hg9HqKDgyQSwwDs72dpNFoIgmB7nDV0TbcZ8cNWvvKMyaoeEOm6jq7pSJJFOvI2gOp5lG6Ph2AwiGma5HI5VtfWyecLuD1eJFFEFAV8Pi/pdJp2u82d27e4ffu2RUlYKr2RQjB0a9Lq4OCAZCLB2OgYn312h0QywdXLlzk+PubJkyc8ebrMwUHWmkSTXAgIH/X77uVMZVnmOGelWArFEuVyhWtXLjM1NYnf7+tPwjnmAKpjHxDi1+sNMpl9Hj99xsNHTyiVyqiq8l5eqWFYU0kuScTj8VsekG6gqBq6bpyadCqXKxwcHNBut0in04xPjFMolqhUa4iCiOSSCA1EGBoaZCSdYmpygpHRUeqNBv/7v3+n2WwBIoYB1WqNdqdLIhJhIDqA2+1GUVUbKF/vhTWRJAnJJaHb+lSGbsBbZpREUcTr9eH3BxAEgW5XRlWsQpMA9nUs4b9Wq43b5ebChSVGRtJMTIyzvPKcVrvTJ2oxbc9dlmX296086szMNOnRNC6Xi/39fX76+S7LK88pFcsIooAkufktSC5eL1opisrOzi71eoNyqcKd203m5maJRMIOoDqA6tj7mqZp5PIFVtfWefzkGetrG9QbDTvEF15N6py7Mw3cbomhoUFSqRTD8Rgej4dWq8Xh0TFHRzla7U4/EdpqdTjIZtnf32dhfp6J8XF2d/fQNI1IJMLw8DATE2NM2ZV/v89Pu9Oh3mhYBRNRxLSrMu12h1q9TjKZIBoOEwz6USoyCBIn9PTsEVKB6ECEUChEt9OlWCpZ4NvL0Zpv+qiiJOH3+fD7feiGSafbpavIp8T9ekUcwzBptdp0ZZlQKITH48HlkjB0HVF6Fa4LCOi6QaFYQpZlgqEgqqayvrrGD//+ke2dXZrNtuWVnnlfHx9Ye4xWhmFQrlR4+myZcqVCsVTm0qULpJLJ/pSVYw6gOnbORpIVhaOjY548XebZsxV29zI0W60+k9P5XmmPDNlFKBRmbGyEC0tLzMxMEw6HcUkSuq6xv5/l8dNlnr94SbPZBMEKu0ulCpn9LIuLi0xNTVKpVGk2G4yOjjIyOkoo6EcURDqdDnt7+2T2MhxkLZKVHt0fmMjdLvVaDU1VCYaCRCIRKpXqCUpAK/4XRIHBwShTU1PEYzGq1SqZvQyqpp37+UzTKqJZ8tB+VFXDMAw7XSCdeD5Wvjfg95JMDhPw++xJshaKoiIIpwmuBJtpSpKsazSbLdbW1vnb3/7B7l6Gble2BwEE/lv8a/3vWRDQNI1avY68tU2z1aJeb3Dt2mUmJsbfWfhzzAHUv2Su1DAMuy/xiB9/+pkXL1Y5Os7R6XT6RZqzwdTsj5V7vR6SyQRLiwsszM+TTqcQRZF6vYHb7SYeH+LixQg+vw9NU3n8+KmdGhD66YVms8Xo6AjBYIBut4vb7cXEJJ/Lsb9/QDZ7yHEuT6Vcpt3poBvmq0ksw0RWFRqNBoqq4Pf5CIdDljeKCSJIgojL4yIcCnP50kUuXFjEH/Czs7vHzu6elY4QzmiStwhUcbkkgsEAXo8XEEilUiwtLtDpdFFkGUVR0Q0dt9tNOp3izp1bBAIBjo6OOc7l6Ha7Nk3f6fSDJIkkEsN43F6KhSIvXrxkfWOjD6S/5/roFaza7TaZzD6KolBr1Llz6yZLSwv4vN7+dJXTXuUAqgOmhkGz2WIvs8+Dh4+4d/8h1WqtX8V/G5gahkXePDAQYXZ2hls3bzAxMYEoihwfHbO+sUk2m8Xn87G0tMi1a1e4sLhokXasb9BsNjFNk67dOpTZ3+fKpUuk02my2UPWNzbJZHqUfwXq9QaKolpxry1S12PiN7GKXI1GA0VW8Pv9DEajeL1e/H4fgUCAgYEBEolhRm1CkkRimOPjHM+WV8jnCwiidDaACYABLsmF3++3qPdCQa5euczY6IilMKAoNqm0jsvtIh6PMT42RrPdZnVtjb29DLqu43J5Xg2GCpbX7PV6GB8fx+fzsr1jPYdOp0sgEEA3zN99nfSAUtM0Dg+PaLfbyF0ZTdNYWpwnYI/inszBOuYA6l8QTC2CjtXVde7et5rFa7V6X7/prZsME7/fy0g6zdLSItevXWV6eprsQZbllRWeP3/BXiZDo9HE5XJTKBbx+318dvs2E+PjxONDtNstNM2i8yuXSrx88ZLpyUkkt5vVtXX+7//+jaPjIytURkCUJCTJhShaOUrDtBRSe5Cqa7rVt6qqpJJJrl69QiDgJxQKEQ6HGRwcJJlKEo0OoikKmb0MDx4+YnllxRpTPZfk2YrTNV2nWCzx9NkzwuEwHrebSDhsT025cLvdfVo8RVU5zuV5ubrGo0dPyOcLiPaU1Ove6WA0yuTEBG6Pm1KpTLlcsToXDKNPgvJ7r5ceWBqGQa1aY3nlBa1Wm1arxbWrl4lEIg6oOoD61wVTTdOoVKqsrm1w9959Xq6u0Wq136s5XxQFggE/ly5d5Pq1q0xMTCCJIk+fPuXho8dsbm5Tq1XRNAOPxweYFAoFjo6OabZali6S32+H1zqiKNBud9jc3KJUKjEUi6EoKvVGE1lW+y1NveKPpukIArgkCb/fRzgcQRQlCoV8X5NqIDrA1atXmZudRdd1VE2z9Ky6XbY2N8nsZVjb2GB3d49arY7b7Xlr9VwQRDodmZer6+QLBQIBP36fH5/Ph8/nxefz4Q/48Xm8GKZJs9mkUCiys7tLuVw5Qbx9Ml1i4vP7GBsbJTEcR7Eb7FutFpLL9UmA6VnA2vt8q2vrNJtNDMPk8qULDA0N4XI5oOoA6l8MTBVFpVQq8eTpMx48fGIVn5qtU3yabwdUkWh0gDt3bjM/N0e30+HJ02f858efKJVKdLuKPYIq9HOwXq+PQMBqoWq2WrRb7f61BEFE03Ry+Tx7mQzhSJhUKsFIOkmxWMA0XX1PUZJEXC434XCI4Xic0dERRkZGUGSF//3b36jV62SzWaIDA7TaHer1GpVKlVq9RrPZotVqUq1UKZUrNJut/mDB+wTWumHQarXpdNqWrpNgK5KKku09i3aO1AJ9S2xQs5/F6dxsL00RCgYZGxvD5XJbM/rHObpd2QbUT3cd6bpOt9tl/yDLD//5EU3TuHRxiXg81if1dkDVAdS/AJgqFAolni0v858ff2b/IEun0323CN6JQoqhW/R0uq7brE46pZLFXmTl3MT+6y1vNsDc3Axjo6PIisL29g7FUrnP1NR751arzdb2DlNTk6RTSWZmpnm5uoYggNvtIhgMMhAdYDgeY2pygtHRkf7I6NHxMT6fj2q1xsNHj9nby9BotWk1m7RaLbrdrkVioqmoimqnNQSLX/QDmuQN08TQjHe3j9mwKYhSf1T2Ta8X3B4Pfr+PeqPO/v4BpVIZwzCwuKbMT3Yt9f7b7XbZ3t7F0HWarRbXr11hfGzU4QFwAPXPD6aqplEolnj6bJkf/v0fMvsHqKpqAYsgnFt8Mg3DKtic8NSq1RpPnzwjHrN4PEfHRonHY5RK5RPSzSKD0QEuXVzi9q1bpEfSHGQPWV5e6QvX9QBHEAQ03SCTOaBYLLO0tMD09BTD8RgIAiMjaaamphgdGSEeG2JwMApAsVhmc2ub7Z0dywNtdyzJlZ1dVFVH17Q+BV7Pa+pNbf3SYSNBlN7vT/sSL+cdUQKtdoe19Q0azSZbW9vU6jU7FWJ+8muqZ52O9czbnQ6qouB2u0kmE7gdUP1kTPqf//mf/3Eew8cDU13XKRSKPH76jB9//JmNzW1LS/4c8jfBDthFwdKgf0WObFV9dU2j2WwwGI0yNj5KPBaj3emQzWZRVY1gMMD4xDi3b9/im6+/ZGFhAa/PS7Vao95o4Pf5cLtdGIbRZ2iyJp50UqkUY6OjDEQiuNwuFubnuHnzBlevXmZkZARD18lmsyyvPOfhw0c8evSEjc0tOl0F07R6WzVNo9cTKklS/+ckH+nva9YTVhSFYrHI4eER+XyRTtciZ7E85z+G9YpVrWaLarWGacLQYBS/3+8UqhxA/fOC6cPHT7h79z5b27vvzpfaWk3xeIyFhQWCgQBduYssK32vQ1Wt0DkSCTM2NkYoHKJUKuHz+VhYmOebr7/i5s3r+LxeOp02qqoyMDDAzMwME+NjJJIJwuGQRVenG+i6hq6phMMhRtJpJqcmGR0ZJZWyelqLxSKra+s8ePCQu/fus/L8BfsHBzQbzROphlde6OseofkGnJ3+Of85Gqc83LOh8f2v95oTi6ZptFptVE2z+2oF/mj4IwgChmnSbncol8uIokQ4HCLggKoT8v+pwnxbBfPhIwtM9zIHJwTu3gamLlKphO0ZXmFjfYN2u02j0erDiGGYZDL7PFteYXg4zvjYGN98/RWKojA8PMxgNEqpUGRre4d6vY7X6yWRTJBOpYgNDZFIDLO4uMjR0RGbG5vsZTIUiyVKpRI7u7sMDg1Sr9XZ3cuwt7dH9vCYUqlMs3ma0u/DvM6eHIr5Zih+okH91eVMq9pumnb3lJ3zNc3+yKt54rpCLznKaYrBd+ZaT+SdAT7xiP9c03WdQrHEz/fug2By5/YtxsdGHVB1APWPD6Y9FdLHT5/x8927ZDLZE1pPb/dM0+kkN2/e4M6d2/i8XjS77egE9gACrXabzc0t0qkkY6OjXLl8yZYkqbO2vsHys2UyBwd0Ol1cLomBgSjpVJLJiXEmJicYHo4zPzfLSDpNPp9neWWFvb0MKyvPqVZrFIslDg4OqFSqtDtdNF23crqCADaln/k290945UX2lEJFwTyRDrBSAqIoIkoSLsmFy+1CkkRbFE9EsgtXpmlavaGGVcXXdQ3dMDDsFINhGP0e3l6f7xt8gOdNP/3Bgeb1AYDj4xyPHj8l4A9Y+mCxoT6pigOqDqD+4Ra3YRg0Gg3WNzb54YcfyexbY4O9kPKssNXSTBJIJob57PYtbt2+hd/n4/GTJyyvPKfSU/c8AQ4GJqVSmRcvV5mfm2dxcb5fGPrXDz+wt7eHomg9JKFUqpDNHrK1tW0XmiaZnZ1mdHSMkZERdnf3kGWF9eNNtrd3aXc71jy7YXmigiAiSq5XBZ8zPgf2KKphWAeAKApILqvx3uv14vd58fq8+Hx+gsEAoVAQr8eLJLksKWift9/76na7kOwClmmYaLpuy50oaJolfdLpdi2p6m7X0o9qtWi2WsiyTNeeKLKAlj7z1esY+2dZd721paoqBweHPHj4GK/Hw+3bNwlHwq9kWxxQdQD1j7SwG80ma2sb/PTzPba2d05IE5tneqemrV80MpLiqy8/5/atW3i8Hh49eszf//5PDo+O0bRec7qBbgvliYKAompkMgf8+NPPDA1Fcbk9tNptKpUqrVYbn89/grLOtOntWuTyRbZ39tjY3GRiYgJBEFhdXaNUqtgN4xbVnyRJIJ4nmfzqMLAA1MqlulyWVEkgECAcDjEQGWAgGmVwMMrgQIRAMIjf7ycYCBAMBvB4PH2ia7fHgyhJiLbkifDa7L2qaWiaimkYaJpG1wZOWZaRbcnmWr1Os9WkUq70C3GtZotWu02nK6NrGqZp9A+IHr6Y5h9/7fUAU1GU/toTJJFbN68TCYf74b9jDqD+IRazoihsb+/y870HvHi5+h4N+wZut4t0OsV3337NrZs3MQyDhw8f86peeOQAACAASURBVK8f/s3+QRYEa3bexBqX9Pk8qKoV8mJa2kgrK8+ZmZni2rWrXLqwRO74mGq1+krKuQeAoohLFC16uHKZaq3K2voWogiddhcTEEUJUZTObDt6RWBt9JmkRFEkGPDjt0dNo9EoiUScWCzG0OAgg4ODRAejRMIR/D4vLpfrFKmHcJoCynqP3j2/dgOWRIn5xnM37fYsw063dLsyjUaDSrVCpVKhXK5QKBTJ5YtUqxajVqfT7T/Hk2mJ9xHe+yOsRVmW2d6xiqABv58rly8SiUSczeoA6h/DZFlmb2+fR4+fsLm1TbcrvwNMTbweD+Pjo3zx+efcuX2LTrfDs6fL3HvwkIODQytXaW9xr8dNKpVkamqCbNZi22+3OwiCRK1e4+HDxxaH6fgY169fI5vNsrO7h2GYCLzKd5p94LImiGRZsbFEOPW68/LDggCSaDPoB4IMDQ6SSiZIpZLEh4eJx2MMDQ0RCPhxu1y47J/z8ninno9pvjFzfwrQzxEiFGxuPgnLs/V4PIRCQYaH42iahqKqtNttyqUyxVKJfL7AcS5HLlegWq1aKQNFsYQC4Y1OhT8qsCqKxWT28937+P1+FuZnCYVCzmZ1APXTXrg9cugff77LysqLUzLKnJlrNPG43UxOjPPZZ3e4ffsmqqpy//5DHj9+wkH2EF23QnvMHivSGHdu32R+fo4HDx9RqdRotdp2G5XGzu4eKyvPCYfDTE1NcOvWTcqVCtVq3SrSvAZkJ4tKVg3pPDB9JdBnSTn7bS90mPGxUZtwJU4kEsHv9+P1evF4zpc1eT+Z61/2t33yaEHo9796vV6CwEAkQjwWZ1Lu2oTYNXL5AoeHR+SOcxwdHVMsleh2ZavIZZ4sbAl/uDXZ619ut9usrW/g83qRJJGlxYX+iKpjDqB+Uou212taLJZ4/OQZT5+tkMsX7OZ2zgVTURBIJhPcvn2Tz+7cxuNx88+797h3/wFHR8cWCYkNph63i4nxMe7cvsWNm9fRdJ1Ou4OmqfRm9k0EGo0mz1+skkymuH3barnay+yzvLxCs9lCFKTT3t+ZsPlmfhRMXG4XkUiEdCrJxMQ4oyMjJJMJhuNxotEBPB7P6ckcO/w+D+ze135pAcU8471FUbTJVLx9OsHx8XHqc3XKlTKH2SN29vbYzxyQLxRoNlvWM+5Ns/1BQ39d16nV6jx/sUooHCYYDDE1OWEJLjpcqg6gfkoL1lImrfHi5Sr/+c/PFArFPpi+TUhPFAViQ0NMTU2RSiXJZg85ODikUCiiKAoulwfDsETspqan+PLzz7h8+RKapvPPf/3A8vJzCyRFySaaFtANk8PDI16+XGV8fJSpyUlu3bzRl0p+LwCzgdUwDExbnz46GGVifIz5uTlmZ2dIp1IMDAzg83n7YfxJtdZfApwf0yt7/b1P3pdxImVg5X6t1qJkMsHU5CSLiwscZLPs7mXY2tzi8PCQaq2OqqpWIVCU/pCg2pNUeba8QjDoJxIOEYsN/eqDy7F3mzMp9Z5msal3WN/Y4j8//szq2vp7gWnPPF4PAwMRBqNRgsEAiqxQqVrVeVVV8Xg8TE6O8/1333Lx0gU6ssyPP/7EP/7xT6rVGobZkxY2++G4aRh0ZRlJFIkORskXCmzbgm/me4CpYU8muV0SAwMR5mZnuHnjOl9+8Tm3b91kemqKSCTclzY+CVa/t7fzrvc+qxDWu38Ar9fyXEdG0kyMjzMUGyIUCp0Y01UwDL0vIy38Addrp9NBVlQCwQDJRKLfB+wAqgOov7upqkYms8+9B494+myl37j/bi/wVW6r0WxgYpJKJEmn03g8HjodK5wfGxvl++++ZWFhgUq1yt2797h37z71erPfNtXLbQYCfmZnp4nFhuh0uxSLRUrFIsvLKxwd5ywP621SzabluXk9bmKxQWamp7h16ybffPUlV69dYWx0lEDA/8Zh8UcIGd92j2cdBIIg4PV4iMWGGBkZYXR0hMHoAIIgouuG3duqwwmP+I9gvZxqt2tJxsRig0QHrHSNY07I/7uarhuUK2VWnr9gdXXNEr7r5SHP6NX0eD14PB6LyKLVBhMURWP/4BC4Dwh8/vkdLl26iNvlInt4SDweZ2lxgXKlxoOHj3jy5BmVSvWENLO1ocPhIIuLC3z55Rc0my3u3rvH2uo65XIZWVbRNO0tG9/OkUoikUiY8bExFubnmJubJT2SZiAS6edHXw+r/4gpmnfde7+XUxTx+Xy43W4ikTDJRILJqSnW1tZZX98ke3hIs9GwUiP8cfKQPY2qnd1d7t1/SCQSYXR0BI/b7WxqB1B/n3xUz7t8+XKN589fcpzLv8rNnfTebMASRZFkctjiJJUVVp6/oNvpIggCsqyQyRygaVa+tMfsNL8wh4DVY3rv/n2ePVumWCydUOG0pFDC4RAXLizx/fffkUwmWVtbR1M1ZFlBVlTLiz2jBUgQXnnLHo+bRGKYSxcvcuHCEpMTEwwORk95LifD+j+qvc+9n0wFgNWC5bclrKODURLDw4yPj/Hy5Sqrq2vk84UTiq3CJ79+BUFA13Wq1Rorz1/astQ+EsNxJ/R3APX3AVRN08jnCzx4+Ji9TAZVUd4IhU89UJfI7MwUN2/cRNM0NE1jZeU5mq4jIKIoKvv7B/zzn//G4/Fw69ZNJsbHKZZKPHz0hGdPlymVSxb8CQKmaWAaBgMDES5fvsy3337N7Mw0z5ZXePDgIdns4YkCinlmc75p6IiiaDNQTXP9+lWWFhdJJobxer2ncot/lkrwh3jXrxe1BEHA5/UyNjpCLB5jbHSUifExni2vsLm5Ra3WwDANW9fq038GJ9fw8HCcqF1kdMwB1P96yFQuV7j/4BGbW9s0m623gmm/+m2YBIMBUqkUYNJpt9jd20dWLEo+XTfYPzjg3//5CVEUuXHjOpIoEfD7CYWC1Bt1VNUamTRNg0gkxNVrV/jm66+ZmBhnbXWdf/7jX6xvbNBuy4i2YN0ZN4RhGni9HtKpJBcvXuDmzRsszM/bvYlm39t2vJU3vVbTNAn4fExPTZJMDDM2Nsb9Bw95+XLVllBRLN4DPt1pqx6oKopKJrPPy5erJBMJpqYmnC/7NzCnKPUWYGw0mywvv+D//f/+RqVSPdWGc+bfgVV573YQRNEqdKTTeL0eajVLa0nX9P5kTrPZpNlqIkoSqVSSdCoJgkCj2ejP2IeCQW7evMFXX33J8HCMjY1N/va3f7CxuWVNPYnieR8CQYBIJMTS0iJffvEFn925zdTkJB6PGxPzT63z/qGf6SyP9iTZtyS5GIwOkEqliEQithRJE1VRsTqDP/1inWlakjpen5fE8DA+n885TB1A/e3B1DCM/mz0jz/fY2tr+50tUv1wGWsstdlsohs6w4kEqWQSURRpNBs0Gla4KGDlt3qCdm6Xi9GRUWLxISTJRadjgfLFSxf45uuvGBqKsrOzy08//czL1XVkWcE8cxOb/cJYMhHn2rWrfP3VV1y8sEQsFsPtcff5SP/s3+PHGCro/V4UrWmsoD/A4GCUyEAESZRsjgDlBOXip/lce4eDoqjohk4oGCSVSv6pD1UHUD8R0zStPw117/6DfqP8O0ch7f/t9QDW63UMw2BsfJx4LIYgCNRqNeq1ep/nVNU0mo0mzVaLUChIKpkiHovZ3JZx7ty5TTweZ3t7h7t3LRnqTqf7xvx5T0pFwMTn8zM1Mc4Xn9/hi88/Z3p6ytZzF//Qlfvf0kN93zSAKIn96at4PEYwFKLTbtFut9FU7ZMfXbUkvmUEQWB8fBS/34/L5WT+HED9DTdip9PlxYuX3Lv/kMz+wTvB1DQNSxeqr08k9FumKpUyoigyPjZOKpUE0ySXy9sgbamBqppKvdagXq/3ZUlGx0YYGx1heHiY1dVV/vPjT6ytrtNud/rsUKeB3GqJCgT8zM3N8tWXn/P5Z3cYGUnjcbv7W/yv4ol8zIPjZMGud12P18vgYJRUMoHH46XT6dgKByriJ0q20vdSVYtfNhAIWCkpnxfHP3UA9aNvwN4JfnSc4+7dB6y8eIliV/XPA1JJEvF43EiS2Cc4tudDAYFOp0OpVCTg9zM+PspIOo2mqxwf51BVxV7oIqqmUalU6Ha6/ckWr9fDyvIK//jXD6yvb9LudN8AU+tGLHq9UCjElSuX+PqrL7l+7SpDQ0OnwOCveDh+7Ov1w2PTapELBALE43ECfh+KolCr1enK3U+Wwar3TGRZQe7KTEyMEQ6FHekUB1B/G1Bttdo8eviYJ0+XKRSKp1qKXns1kiQykk4xNzfD6Egal9ttESULp+fdO50u9UYDl8vF2Ngo4+NjtNttarU6sqLY+GuF47VajXa7jaIqHB0f83//9g+2t3dRFNV6zRv3YcmUDAxEuHnzOt9//x1LS4uEgsFTIOCA6a8H0vPSAF6Ph6HYEOFQCE3TqFZr/fa6TzX813UdRVUIBoIMx2N9mj8HUB1A/WjeqaZp7B9k+dcPP7Kzu2tLmZwNpgIwFI3yxeef8c3XX3HhwhKpVMqitguH8fn8SDa5smkatFotGo0GkigyPj5OOpWiK3dpNBr2GKuVAdU1nXqjQT5fILO/z/7+AYqinlOAMpBEieHhGLdu3eT7779jenKSQMD/l2/c/ti54rddTwBcLjeRcIiBgQEwoVavI8uKxU/7iX0PJzWpNF0jkUgQjw3htieoHFD95eZko0+c2NVqleXl5+wfHLyVsalHvByLx5iZmWJ6egrTBK/PRzqdotvt0mg0KZbK5HPH5AsFSqUy9UaDp8+WcXvc3Lh+nc/u3EbTNJ4tr9CoN/seaKvVptvtIgoCqqafs8BNJFFkeDjGzRvX+e7bbxgdG8XtFBj+qx7vq7wqhEIh5mZnLHkXt4vHT55RKBTRjU+zEKhpOkdHOVZX10nE40xPTzoVfwdQP4730e3K7B9kefj4KZVK9Z0VfRNLy6fdtsTtdEMne3iIqijEYjEmJyeYmpqk02lTrdYolcvkcwXy+TwvX64SDIWYnprizp3byLLM06fLqKpmgaogoOlWLlZ8Lcw/WYCKDQ1x8+Z1vv36a6anJvtjqo79NhHMu0FVIBAIMDM93a+cP3r8hFyuAMJvRwV41m29bRm8+jzQbrfZ2NxidCRNMpkgFAo6X7gDqL/SOzUMKtUqm5vbZLNZZPntcia9gsNxLs+jx0/x+wNMjI+hygpPl5cREIjHYySTSfu/CSYmJ1EUhXzumGz2CFmWMU2TudmZfpvV2toGui2J3CNFeYMY2i5AxYYGuXP7Fl9//ZXlIWMNFTgh2+/vwbrdLqYmJ+zvQ+D+/QfkiyUk6bfZbrquYRqvkfSIljbZ22RuwFJNzeXy7OzuMjc7QzjsSKY4gPprvdNOh/39A168XENR1LeC6Ukftdvp8vLlGm63G7/fx/zCPIVikYePHvNseZlAwE8ykSSVSpJKpxmOx4mEQ1y+fKk/Lx4MBllaXKBeq7G/f0Cj2bY1Ss6SoDYRRIFIJMKdz27zzTfWKOqrNITwxv93AO6/f62eJMvExDiGaWJi8uOPP9NstnoCMx9j5fblyP0+H16vz5KiAbpdma7cQdV0DNM8t+Ogt046nQ57e/tsbG4xNjZiK9M6h/Ivsb98UUrTNA4Pj3j06CmPnz61CkDvo4OEgCCApqk0my0UVSWZTDA6OoKJSalUIpfLUyqXOTo6Zi9zQCaT4fg4R6PReEWzZ1rqqbmclQqQbUB/E1BNJFFgaHCQGzev89133zI2OoLb7X4DQJ3N8Nv1oX7IayTJ0uQKBoPomkapVLI4Gl6JV304uPNqgMPtdpFKJVlaWuLypQtcWFpkbm6WRGKYQCAApomqqBYxzzvSFYqq4HG7GR8bJRgMIkmig46Oh/rhG6XT6bK1vcvq2npfBO88j0DoZzBfbQnThHq9xvOV57hcLr7/9luuXbmCqqh0Ol0KhQKKqtFotikWixwcHBAIBC0RufgQiUQCl8vFzu6uzZ1qvkHB17ujcDjM4tIi33z9FRNjY3i9njM3+l+59/S38nY/VGyw9zc+n4+pyQkrrdPt8uLlqq2o8AtB1WZi8fl8lpDjrZvMzc0yOBjF7bbWQ7fbpVwus765yfLyc7b6bXfCuQdBp9PlIHvI2vom0WgUlyvkrB8HUD/MDMOgWq2xu5fh8OjoreGVKAg2qQjIXRnDNCxNe0HANKFcrvDwwUNCgSBffH6Hmzeu0+l2+emnn+l0uhimiapqKIpCvd4kly+wl8kQCgaQXC5arQ6aZiCe4xn4/dYE1JdffM7c3Ow7q/nOZvi4B+8vSQv0fhcIBJibnUFVFGRFZnVtnWaz/cvo/0z6cjnfffsNVy5fPtXyZL+EkZE0w8NxgoEAqqqyubltH9Rnrwtd18kXijx9tszs7DQ+n9dh93cA9cNMlmUOD49sKjb5HE/EAtNEIs7U1CQej4fj4xy5XL6vB2VJighUKlXu3r1LIODn+vVrfPnlF7TbbR49ekKn27XVOF/pM3VlhU7HklIRJQlRks4Gc9HKx92+dYtLF5fwuN0YhvFOQg/HPq6X+mtSDn6/n4sXL9BotWi1Wqyvb2IaxjnDGm/3UOPxGNeuXuXzz+4QCoWQxDcjGrfbTTqdRhBFWq02BwcHyPJ56STrfpvNJru7GXZ3MwxGow6g/gL7y+ZQdV2nXK7w4NET1tc3+rImpzdRb3G6uHjxAt9/9x03b1wnnU4xGI0SCoUsr9Uw0Q0dw7Qo+VrtFn6/j8nJSVLpFNValXpPTVMQbfJMAUEQkURLT/5M+je7vzGVSvDVl59z/dpVotHoO/ODTlHq9y1Knfy7k8qsLpebcDiEqqqUy2VqtdoHKqtagoqLC3N88cVnjI9bBUlBFK2f10dj7cKnIAjsZTLU63V0G8TP+4wmVjohnU4yEIn05XAcczzUt5qiKBxkD9nZ2aVaq51PGm0vNl3XaTYaDEYHGEmnGRlJ0+3KHB0fk9nd4+DwiFK5Qq1SoVyu8PjxEyRJ4uLFC3z3zdeYusn6xiatdrtfjOpdH5Oze01tPtPbN29w5cplYrHYe4Gl46H+94tSb/sOTjb/D0QiXLlymVqtTrVWp9nqfNB1vV4vw8PDJIYTiKJoe7lnpxssHleJaDTK5MQkh9kju9f5/D7VbrfL9s4Omcws8ViMwcGog5IOoL57g7RaVkNzLp9Hls8O903bk1Q1na2tHdqtNul0imQySTKZIBaz5DGSiQSXOh1K5QoHmYzNJtVmfX2DYDDI+PgYt27dQNM11tc3rfn9Ex6peUZYhwnBgJ/FhQVu3bpJOpWypKPfI+nmFKU+vrf7awcmet+FJEmkkkmuXL5EPl/g6bNlNE1/r3YqQRDweDwEQyECwUDfOz3nxX2lVo/HQyRyggAFwS6KvXkA9VQqdvcyfb0xxxxAfWe4X63WWN/YpFarvzUfCWAYJsVSmVq1xu7eHuFwmMFolEQiQSIRJ51Ok7ABdnx0hEa9QaFYpFqtUigUicdjzM/Poeka3a7M5ta2vUGFcwHR7XKRTqf40g7tLMkSfpFOkmMfx0P9WObz+Zienubzz1uUyiX297No9oix+Z7fq/EBtyQIZ09TnfdZZbnL0eExxVKZ6enJPhA75gDqGeBo8ZQeZA85OjruT0W9y0RBRNN16vUGtVqdbPYI7+YWoXCQ4bgFqslkkmRimFgsRiKZQNM0Ws0mAb+feDyG9+oV5K5MrVrlOF+weDPPbOCHwcEoly5f5MqVy32pit8jf+jYx3+mPXawixcvki8UqVbrVCrV90C7V2oQnXaLaCT8Hvl0i6qvUqn2VSfeZaqqkcsXyGazzM/NEIsNOQvAAdTzAbVYLPFydY12u9NfkG+XNqEfKr06rQUUVadYKFMqltnc3CYYDBKPDZFOp5mYGGd0dMSWaPYiiCKhcJh4PIY/4D8R7AungLRHEr0wP8utmzeIRCIn5DXe38twQPXTBdOeRQcGuHHjOnu7e6y8eEmr2bbyom9BVFnucnx0xNHREelUCkyzn+d/fQ2YpomsyOTyBXZ291DsoujbRCZ7e6RarbK1vcvMzLQDqA6gvi2cUTjO5djY2HwrefSphWlYBQVRFBBFi+9U1w1EQQBTQhCshdhqtWm1WhweHfFydY3BwSjJxDDpdJrRsVFEUWR1bZ18vmBXT9+chnK5JCYnxrl69QqTExPvTEc4Hup/L+T/uHSAIIoiqcQwN29e73NJ9AZIzHNOdl03ODjIsrLygvGxcYYGo1a73WvjyoZhICsK2cMjnq885/g4h25YOdf3yRaomsbxcY5M5oBLF5dwu93OunIA9bTphkGtboXrhWKxr2L6thNbEMDjcRMOh4mEQ/j9FteooijIikKz2aLdbqEoKoZhCfwZhoKiaNTrDY6OjtjY3LKnT1xUqlWr9/SM1hUTqwp88eIFFubn8Hq9vwhQnaLUx/dQPz6Ll3U9n8/Hwvwc+/sHlEolSqXKuQ3/vd9VKjWWV54TjQ5w/fo1BqNRvF5vP3rSdYN2p83xcY4nT5/y+OkTurKMwPu3QBmGQaPRIF/IU6vVGRoadHKpDqCeXiCaqpLPF9g/OKDbld+5SdwuiXA4xPj4KPNzcySTCYLBIKJoyZ202x0KhQIH2SwHB1lKxTKKomDY+0XTddSWSrvdpVyuWlVU0zhz6NA0DdxuF9PTUywuzBOPx39V6O6A6cf3UH8LkBYEgVgszqWLFzg+zlEuVzHeVrBEQNE0stlD/vHPHyiXKywszJNKpQgEAhimSafd4ejoiNW1VZ4/f8nRUc4C0w9YE71R2VKpTKFQYGDgVU+qs7YcQEUQBDRdp1gscXycwzAspp7zNoskCiSG41y7eplr164xNjaKPxDANAx0Q8ft8SCJEq1mk3yhwP7+Aetr67xcXaNcqaAbhhWKiRJgYphgGrp9L2colgoCkUiYS5cvMTY2htvtRtf1X9RY7Sz432b9/Fag6vG4mZqaYmFhno3NLcqVCi6Xm/PbqARkWSGzt0+tWmVza4tkMkk4HMYwTRqNJoV8nuPjnN3FYn7QRFYP6DVNo1Assr2zx9TUpBP2O4B62rqdLsVikXK5jEV/drb3IQqQSA5z6+YNvvn6K4ZiMXK5HOubm1QrVRRFIRAKkYjFiA5GSSaTjI2NMTszzdDQEI+fPOHoOIem6SeCO86nUcPE7/MxOzPNwvwc4feo3r7PhnDs0wXT10E1HA4xMz3N7OwM5fsP3+PvrLVUrtQolSusrm7g8Vjz/LKsoukaoihaU3iiyC9xsnVdp1SqsLG5xWd3buHz+Zx19VcH1B5gqqpKLp/n6ChHs9U6M5TrVdlDwRBXr1zm1q2bSC4Xd+89YHn5GYdHxzQbTXRNt2SEoxFSqRQTkxNMT0+RTiX5/vtvCQQD/PTzXTKZ/beGbz04FUWBeHyImzduMByP2Tk0J9z/1NbQx9aoOnlNl8vFyEiaK5cvsb2zR71et0ijhfNCf2tVSS5X/8SWFbXPVmYpBgj8mmyFpWTRpVAoUigWCUfC+D6wH9oB1D/phpBla9Q0Vyig68YbhQbB5uITRRgZSbEwN0vA7+fZ02X++cO/KRQKyIqKoRuYmAitFtValcOjY7a2d9ja2ubmjWssLS5y6dJFypUKpVKJWq2OKLnOAVUTTJNgIMD01CRLS4sE/H4E89Ucyy8BVqco9dt4kb+11xuOhJmbn+XC0gKPHz+lK8t9NrO3gWo/CjI58RvhV++Z3sh1o9Hk6OiYkXS6D6iO/cVDflmWyR3nqVZrb11EbreH6akp4sPD5AsF7t2/z+7unkU60W85sRa5RcdnFZ1qtTqNeh1JkpienmJ2ZpqtzS3K5YoNqGdlwqw2lngsxvz8PPF4rM84dZJUw/FSPw0P9bcGbLfbTTqV4tq1K+zs7JK3ZczfBo6nbu03+s6brRbb27vMz8+dKk459qb96Z9Mb7HWGw3yhQLNRuMtx71AMBBkcmoKr89HZv+A7Z1dW2rizb5RQRD7rSTNZpP1jQ0eP3lCs9EklUoxOjpiAfH5N4fP52VkdIS5+Vk8dtLf/Aif2bGPv45+8/cAgoEA83NzTE5M4PPZbXO/82HS7XTIHGSplCvvPW3lAOqf1LMwTRNVVSkWS1QqFbqyfGYxyjD/f/be9DmyLD3v+52735v7BiCx19ZV1fs63cNpWjMaWiIpmqIk2qbDCoc+2R/8T/DPcNgfHOEIh23JCpMSKVmkSc7CmZ7p6bX2vQo7EkACud/Mux1/uJkJVBVq7UIBVZUnAlM9WDJv3vue5zzv9rxxQXUqlaJYKhJFEdXqNp2Oi6pqcZZ+H6Yy+FZcShVy5/YC29s7OLZNqVSKR5Tw4Hnu+VyO+fn5uOvlGW3e0eTTFxBM+we/oigU8nnOnD5FNpMZDl48TGYehCH1Wp2t6jadTmdkEK8yQ5VS4nke1Wp1KOa8//6IxzYbpo6pa0RBgOf1hsX9D08rDR14mq02O7UaQRhiO06/1GT/v1JVhampMsfm5rAta9ho8F0BcsRQD+Zgfl7LMPQ4yVkej1mqlBz2E3Vdl+3t7XhMz2i9uoAK0PM8NqvbuN3uA5mi6GvmRVFEGEWxTJrjoOvqY28mSVwQHYbxtEk5/Nr/PdPpFHNzc5TLEw8FwadJSo1Y6ovFUPeyVCEEpbESszMzZLMZZBQe+iHpBz7VnR3aI4b66gLqwEBdt8tGZYPuAwBV9mmrRNDpdGk0m+iGQbFYjIuloxCQj8FSwXYcUn2l847r4vv+PdcU/7aiKpTLE8zOzpDJpJ+qxXTEUp+v6/u8bFYIQTKRYHp6qi9MIgF5qJ/f9wO2tqo0Go0HelKj9QrEUH3fp1arU9l4MKAOOaOERqPJysoqvu8zNTXJsfm5XQUgwb7uv6LEchaqojAxMU4+l8Xr9ahubfUBVd57YeiqyvTUFGOlEoZhPDN3fwSmB3MPnvc9NQyDVzcjQAAAIABJREFUyclJJicnMQzjiRXHnvUKgoDqVpWtrW263R6j9YoBqpSx++66Lhsbm9TrDXw/eCBIxQ6/pNNpc/3adarb20xNTfLJJx9z4sRxbNtCRiFhEPSH8u2uKAoRQpLLZXjzzdfJZbNsbW6yurI6fO29VFYIgZ1wmJyaHHZFvaiM6lVhlc/7nir9crqZmWnyuWw/uy4P7T7GYikttqpVGs3GCDkfsLSXeUNFUUS747KxuTkE04e57IJ4BMTC4iLXrl2jWCjw9ttvoes6585fYGFhge3tGj3PIwyjoWKaYVgUC3neffdt3nrzTTzf48bNW6ytr6Np2l3BgkhKNE1hrFRicrJMwnEeWrz/NMxoxFBfjlCVZZmMj40xMTHO8spqbEUPmQd1kHsp1sIIaDQaNBpNJsbHRw/qVQLUgVG22202NrYIH6d+TggECo1Gk2++OYem6nzwwXu8duoUE+UyiwuLLC4usrVVpdXuEAQhhqGTy2U4eeIEb731JlEY8e2FS1y+Es9eVxRtt5cf2VeVMpiemqKQi+epPwxQR51SR8eWnvvmVFUKhXzs9p+/OIgWHcYd6HdNRdTrDer1+sgoXjVAHQBLp9OhUtnAf+yCZEEQhKyurvGF/IJer8uZM6eZmJjgzJnTzM/P0u324oRTEGDqOrZtk0wkkFHEufPn+fKrr1ldW2O/JpdBwmFmdnooBXgQQf4RmL74IRShKGQyGcqTZZLJBK1WG4lyCM82rlQJwzCe1lobAeor6fKHfZe/Wq0Og/qP2hwD19/3fVZWV2k0mywtL/PaqVNMTU5SHCsyUZ5AU1WCMCTwAzqdDqtra1y5cpVLl66wvrFBr+ffP5FSCDRNJZ/PMTs7+8SzokZgenj34HDuqcC2bIrFIvl8nlarDTJCCPVQcv6Dvv56o0kYhiPB6VcLUMHreTSbTVrtNlEUPQbTkERhOCzm932PVrvDzk6d5ZVVioU8pdIYxVKRpGMTRVH/5zUq6+ssLS3HSlZC2VfzFCkxDYNiocD42Bi6rh2I1N5Ivu/Z34PnfU8HYQZNU8llM0xOlllZWd2djnoIrHkgOt1stnDdLomEMzq8Xx1Ajaeb1mr1+2pBH/T7Aolp6sNxEmEY4fs+nudTqWywUdlA025gmtaw4N/3A3qeTxj4CCHuipnuB9i2bTE+PkbqAI1xZOQvz1IUhVQqxcz0NOfOXSAI3EOt4gh8n1azSb1ex7atEUt9FQBVSkkQhjSbTWo79buSNPv24yPRdY1cNsPs7AzjY2MYhoHv+/HI6NU1KpUKrusShnEpVqcjGaZdAUVRgUcJmwjSqRSTk5OxjuUBMZ9RUurlOaCEECQch3K5TDKVotvtET1EJ/WgGX8YRTRbLarb24yNjTHC01cEUGUU0XFdms3mA0FrICitqQrliXE++uB93njjDRzHjjunogjP91ldW+eLL77k5s2bNBqtYd+K6DetDl7s4cRBomoKqXSKsbHSUKbvIN3F0XqxwygDpTLLNBkfK5HPZtjZ3iEMPYQ4HCQb1HbX6w2kjEaH96sAqANA8XyPrtd7GGFEEE8afeP1s3z66Q9IpZJsblVpNZsYuk42l6VUKmIYBkEQcOXKlX7CSe03Aww23CM2JALTMMllc+Ry+b5wsDywzT9ilc83KbXXFh72vSd+loCiqqRSKTLZDKqqIGWEgnpozai+H+J2e0ObH4HpKwKoXbf7QHWcQZJIKIKJiXHOnDlNNpvh23PnOXfuPNvbO5imwdzcLB988D6nTh6nUllnfX2N1dUK+gNG/T54W4Bt2+TyOdKZ9IG7k6Ok1LNjlA9iYXHEJ24GCcKQIAyH1SRCCDRNQ1NVFEV5aq9h8Dksy6RULGKaBu1259C8ECkl3V6XVqs1Sn6+KoA6cE2azRa1ndoDIU4Qz/IZGx+jWCyyXtnkJz/9OVeuXKXT6aCqKncWFlFVjU8+/h5Tk5MUCkWWl9dQhIgVpR4bTyMs0yDTn8vzuJth1Cl1dFcQhgRBPLXBDwI8378LUHVdw9B0dF1HN3Q0VX3qZ2MYBqVSCcd22BH1Q9xXkm631xdJCUdG8CoA6mCGVLvToeO6D8U50zTIZbPYts3yyipLS8v4foCmGwgims0Gdxbu8P7775JIJHBs+ykALg4J2LZNIpFE6Qf3R8D3Yrj8975WFEkC38ftdul0uwSeNyzL23tMel1wFQVV07Bsi2Qiga7pKMqTX5uqqqTTKUzL6ov1HJbDLwnDEN/ziSI5YqmvAqBGUUS328V13bu6kO6fciowTYt0Oo2uadRrNTqdTjzHXBFEMlbZib8XxYnVJ7QdMdwQcflLOp0aGuDIGF8Ml3/v6w1i8+12h263SxAEw9rl/Q7sgT6ulBFIcGwrLssbzid7AkDNZHAcO+6ue+Q03YMkKz1arTa+749s+FVhqEEQ4PvBg2XPpAQhMQwdyzIBSavVJBiIqMj+rwgFTYvnnXue91g1rQ/aEKl0ikw6/USfAyHwIwijPQeCAE0IFEWgCjlMfngheJFEFQJTjX82YqjP1q6iKMIPAsIoQlEUdF0n6AOn7NvVveAqpewzujZB4JOSEtu2H+saB5l+RSgkEgnsPqCGfpwYPYy95fs+rXabTqdDKpUcDe172QF1gJdhP8Z1LzsVgOzbsqHraJqG7we02h3CKNxNIkRxjNVxHASCbrdHr+c9oYMU/4+qaSSTSZxE4olAoe2FXK/22GwF9IIQEOiqoODoFBIaRUcjaSp0fLiw3uZ2rUfO1nhzzGEma7xwYsD3eRF72PyTgOWT/v6TXJOh6zHDlAOA8QiCEN/3CXx/30F2UsZhgigMURQ1DgM8Zix9oMVrmSaObaNrKp7noTxn5anBtUoZ4fsevV5vJDb9KgBqGEX0ej08z3ugwQ22mGWZaJpGt9ulUR+okcfsQ0YRqqqSTCQQihi+phCxqLTcHYYeM9qH+P2apmNbNqZpPNZh4IcRCzsuf3ujzoWlNmv1Hq4fT8DUVYWxpM5MzuIHJzJ8eCxDrRvy7y5W+fXtOrN5C94fYzZnfieAOowaw4Fi/b3XqAixW8z+GMnAvazpWWXD4044BatfQyyHISaLIAzxfJ9et4fruvie94ChjpJer4vrxskq9Qmm3JqGHgOqrgOHmekHPwhw3e6hC1+PAPWAVxRFhEFIpxPHuPbswX1iYmDZNoZhDPum8/ncMDYUBAGmaZJIJBBiwFB7xLOnwjgoTzwt9VEBVkM3MG0LTTceugmklIRScHvb5V9/tcb/8qstPDdAVwQJXcHUFASwsCG4aLVwDMGZskPTk5xba3FzpUkURGy2/Qe6wYNyn7vDH+K5uM2PYmK9EFw/JIjA1gW2Ggc03EDS9iSqAmlDYGjKAzd7IKHlRzS7AboqyJgqji6+E5Du/W+5D3gbioKuaZh6DJTtVmtfBhcz1YButxfblm091gER26eG7dhounZozHDw+X3Pp9FsEowA9eUF1MFwujirLvuBeznMsu/HYhKOg21bZDIZzpw5QyLh4PsBnhdXCeiaxvj4GIZuoOsamXSaQqEwjCXFQtN9ebNof0Yy0AiwLQtd0x7I/Abfd/2QL1fb/OWlOlvVLqWizZkJh2N5m5wZsyM/jPCkZDqvY2uSrR50g4ggkNhqDL7DQ0ZKAinwI4mQYGvgSUEQSlQhMRUQyt3sNZQQyDh+pymgioN/dn4Et6pdLq516HohpycczowlkFHIxbU251Y6pC2V7x9LMp2zMDR1jxva/xfBlhvy2e061ysdcgmNT+bSvDOZ+E5s7nGSL4MyvISjoKkKjUaj3yp6P6iGYRAf3Jb52AxVUVRsy8J4xKH8XIhLvxuRURPJqxFDjR/43kyo3BdQdV1HRhJd1zlx4jhTk+V+djYkCEIURVAsxMP6ZmdmCD4O2N7ewXVdGs0mbseNW/EaDbaqO3Gf9X2nelyeZZsGmqo8UqHf9QLubHe5utnFEvDeTIo/erfE2+UklqZAX5rQjyRFR8UxdegzUiHAVAWmGgNqEEk2mx4brYDtboitC84UTRYbAVstn6QGxwsGY5nEMLHieiEbTY+1VoSlC2YzGnlHR1WfYALsPp/xUWGGXij5ZrXNv/1qA68T8AcfjDGZsej5Ab+8Weff/KbCZMaglJyhmLYwdXHfcMNQwmrD4z9e3ubSYoNi1iSf0Hmn7Dzyup6Ekd+rDzFgboI4AWlZFkEQEkYRXu9+9z+erhtPx33c91UUgWVZGIZ+uDHuPZ9lEEc+DI9mBKjPze2XdFy3757H3GHAWu9COQSVjQ3OX7jI5tYWpmkOvyzLJJ22sW0L23ZQFcHU1CSFQgHP8+h5PdxO/B7NVosrV6/xs5/9AinD+w5tIQSaGiciHpYR3WWI0PMjXD8iIQQJU+F00ea9yQSqEmsMSLmb3Y8jq/5drnPfxKl3I/7DlR2+vNNgpxvyxnSCgpXn/71S48JSk7Sp8I/eLPDPsskhIK3Uff72yg4/vV5jvGjx375XIGtrqDx+OZJ4ihBCEMFKw+fcSouw7fPBySxdP6LjSRYbHl+vtdluemy2A4LobuAehjOkQBGgKhAOKyG4Lxa7H7g/CPD3suB73X+lD6TyntcRQmDbNkEYEAbhXYkqKWOZyMAPnqjsSFEUTNPsx1AP2x1kWAs7AtSXHlAjum6X3gP6+AdgE4YRt27doVKpkEgksCwLy7SwLBPbcUg4CRKJBMlUEss0sEwTwzQxDAND13Ech1w+R67nsbVVjTeWvN8N3Ivhj9Pfbeoq4ymTqZRBpdLmwmKTv7i4RTeIeGM8wXhS22XhUoKy172HlhfR6IXUuwGf3Wnwf325ybmVJlM5i/ePpVFUlY2mz+e3GnRDiZ2y+IPXQxTAjwSXt7r8uwtVfnKxyttncvzhG/k4SbcPsDxsM0kphwdIFEV3ub6DSorHTqw8IES9933j1xfMpg3++O0S70wlKDo6b00k7jlId+PIsfsd7l7TPnHle69zeL1SIgfJMrlnctgeLVPbsvG9+zP/cazf3xOmerxDStc1VO3wJZ7CMKDdcQlH3VKvhsv/eIesjLtdXJetre3hxlEUgapq8ZemoWtxaMA0zRhwbRPbsnEcm2QyiZSSxaUVgiC8DwNkf3yEqmpoqvZYAGIbGu9NJfn91/P8pRuwuNbmf2v7XF5t87tnC3xyIstMxiBliPuyxJGUdIOIHTfgwmqL//PzdW4sN5nImPzBOyX+xVtjFBMa70wk+JWtcWmjw1rVZaftkUuYuH7Iza0OlzddHF2J47aJuBB94F4/iMm5XshCrcta08fRFF4r2WiK4MZ2l5VaN67xDSIQAtM2KKVMZrLW8IB4KB3yI3ADcPThoRhGks22z/VqF9cLyZgK01kLS9dIGQoTlkba0jB1hUhCvetzdatLuxeSNDUsTWWn41FruAhNIZswmMmazKTj8IYYeAuhZMsNWKr1aLge4fBg2P3slqZwvGBzLG8h9oDxoM7Z7XaJ9iRwhKL0JR+fgNmJ2C6PQt2nHwQ0m+19S8RGgPqqAqoEUFDE3TGhMJREUYDnh0C3P3ZC3MWqFEVBVVU0LQZJ7yFTVaWMGwg0TR/KAj5sE+kKnB2z+S/fG0MTgl9c3eb2To9fXt5mZdPli+UmPz6Z5aO5NFNZA2OPT6sIgQqs1Xv8p50uv762g6Mr/PhUjt87k2cuZxJGkqmsSdrWCP2IRt1jtRGStKHp+qzudNlqeOQMldMFm4y1ayYdP2K57tHxQwxVoWCrlBIaQihUmj3+7HyVn95qMJc1+R8/nUSVAf/7bzb5u9tNZNgHRSGwHI1TYwl+57Us/+hsnmJCvytYsa9bsedHYSRZa/T4yfVt/s35bdww4kfHM/zeGQ1Dk/zlhSq/vrbD1ITDn3w0wWRKZ3G7w//0qw0Wqy7jjk7a1FiqddnY6SJ0hXLW5LePpfjD13OcGk8jgbYfcW3D5e+u1/j7hTrrHR8/3GWoBHFXXTlr8i/fH2M+Z8bPdsDclbgxRNN1/EGoRggUVUUzjCcCR0UIDMNA07QjsXfidtsRiI4A9R43arfs6b4g0dDXjCTIMLq79vSuF3r48DShqAjl8VpOBZK0qfLudIKkqXKsaPOXF7e4uNTiZqXDWqPH0mqLrXfH+MdvFDhRsu8Cms22z89v1dlp9Gj7EZ+eyfOPXy/w5riDroCCZDJjUMia6IZKveNza6fHdN5muxOwXffw3IBU0eZMycLSFPxIIiNY2Onxv/6mwnKtR9ZW+XQuye+fjlsiV+o+X99u8JurO8hjaXpBiBoGNJs96i0Pocci3FEElc0ulWqPZtNDN1T+i9cLPOjW3sv6FSTNbsC3q23+jy83+eJOg5lxm4KjUkjoVFoBizs9Lq216WiCnW4c1665Ab9ZbLC01iFvqOQTGgHQiaDT6LG61aXW8rAtldliElVVuVXt8RffbvLnX2+w2QvQEjqKqhBFknbHZ2e7h6kJTC1LeG/FQT8MIJT7bUMRAlVVhzHYx7TW/qE+6kwaAeqRdv15aPnHwIDjGOj9wHsQp7QQkDJV3plKMJ4xmSpY/OTqDp/drHF5vcMvb9Twg4iCI5jMjA3/LggjVrdcVusebS9ktmDx4zeLvD+bJGX23XagkDR4bSLBVwsNKi2fL1dbvDudZKMVUGsFKAISaZ1SQrDZ7AIWti64tNbmL76ssFzvkbU0fNfn7JjDScOm0vTZqnt4foRlqhRsFUtV+advFXl3LoNqxObWDeDzGzt8fr3GZ7cbpHIWPzyewdDVR7anK0KiRAG3N9v85Mo2n99qkHJU/uhsht+eT1NKxoC6b9wvkrR7IZEfkcsYfDyf5s1Jh1DXOL/Q5BdXt7m82uGzhRZ//EYXw7T4YrnJ/3d1h9ubLmfmU/zem3lKKZNOz+fLhTr/tu5hI3gtZzGTsRBit/JA3Btbvct13/VukIcndTJaI0A9HMAdYu7Bm/4gTimlRBGC6YzBH5zNc7JoMVuy+fNzm5y/usPF5RbfLjT5+Hhm+ChDCW0vjLNTQqAqgqQRNwTsXY6ucqroMJ02+XyhwZcrLf6o7XOj6rLe9sglDU6WE3iR5IvlFqfGYC5rcnOjw06thymg6wZcWunwVaXHTDGi7UUEkSThaJTyFqWUQcLQ+N1MPAFhIKrdCgQZQ2F5y+VXCw1uVDt0ej66pvBQRFUFoaFSaXmcW+nwi8s7JFXBH70/zn/1bpFjBQf5GOzN0ASvlZP80Yfj/M6pLL1I8FeZbRY3XRZu1tjYdqm2fdJC4/ZOl5WGRylt8DtvFPlXH40znTFodH2KCY2/ud1GawdkTJWkod5VRjU8GfcBU9M0sQz9PoWq0RoB6mg9BtsMw2CYlHhsUYw9v2dqgtfHE6RNDTWMuLPcotsLWW2FLDUicqn+A1UFxZxFKmPidnyaOz3+5kKVsaTBh7NJjD7e6KpgOqMzljFwQ8naVoeVWpdz621WGh5zOZPvzaZZbER8vdbGNHRylspa3cPQFI6VE2x3fJY6Pt+stfjdM3lcP65jLSZ0juVsLMNAImn5kvWWz3K9S6vr40WCq5subS9O7kRA0K/JfOhSFZpC8Lc3WixXOlSbPj98vcC/+miC6byFqsbNC49aqiJImSpZx8AwdEI/JG2pmJpA+hF+J6IZqKRQcHQVR1cQAtKWhh8JOl5Iy4vwpIalKwSAH0qCx3hvRQhM08S2LTT1SVX3JWEQjHRIR4D6aoMpCPy+UtVjiWFI8CX0AokXyn7/fh9gBdiGQBgq9BnhXhAxVIUTRZt3jmWot33+/W/W+ZtLVTIJnbSt8XbZQUYRugIzOYPZkoVhqjR3eny93OLqpksriBjPGJwomPzNjTrXt1zOjjlUmhrXtlxMXeHDmSQ36x6/WWqytu3SdHusNnp0/IiirTObNUEIKk2Prxeb/Ox2g6/XWnRCia4Ktls+a/XePfHqRwRPBTR6Ib+8VSfqhcwUHd6YT3OiYGOoA5Un8djPRRH9w03ulrQNVMakBE0RTCR08rbKtbUeP7++Q0JIJhxBtRPy0zttdho+E7bGTM4k72j3HZhxx140DAMYhoHj2JiG8cTMNIoiPM87Epl1RVEwjKfTdh0B6gsIYoqqDstSDvlqECJuNoiieKfe5xbeBaaSEMF60+dypU214aMogrSpoqiCxR2Xv7paw+0EpCyVmbxFOW0Q7vnsSUPlrXKClKnym4U66xsu/+lylXzGYCqtk3c0FCDjGMwWHCYzJtsbHX5yfYeFmoeiKxRyJkVH5dZOj82mR73d49aW5Px6m7yp8u5UEsvpcXWtTXOny9p2m8Val44fMpO1KKcMXC/is9sN/uyLCl8tNcFQOT6VJGep6EBtR6HeeeLbSaQqhIGkG0lq3YCOF6KbCqrynU69fdmkbShYmoLrBlxfatKp97A1QS+M2GyHlEyVd4+leW82xVhSu69zK4oigiCMDzFDJ5VK4tj2U5U+SeiPWTl8hSdd00ilkkei4mAEqM/h9HRsC8s0j0TsVSD7MdF+2cwjNpMfwtVNl//76w1ur7QRAmxdQVEE1U7AjU0XA3h7JsWH8xlmcxZ3aj10JWax3VBi6iofz2f4w3fG+H9+tcadDZe/vrzNXMHin54toClgaSonCjZvjTv89VqLC3caeBJKOZOJvIWpq6zVezQaHtW6R7cbUm/6nD2RYbZgEyoKE7ZGo+1zebNLpR3gS8g6KmNJnZYf8vd3Gvz6TgPXD/kHp7L8dx+XMRTB+dUWQdtnvdZ7/JspIWmqfDidYqXaZX2nxxc3avx8Ksk/OJkla6tPFeK+u4Nul+QGkWSzHbDjhiQtlemChaEqICBhapSyaqz49VqWd6eTJPX724oHqvamaeI4No5tP4Wr37/OaKAfcfguv6IqWIaBMkzYjpjqy8tQFeXQe573uu+SuBDa9wOiKEIbdB09sJ8//nJDyY1a974qgmxC493JJP/knRIfH0+TNBQSusrJok2t4VHIGKRNlemMwZ+8O0az4fGrhQaVts8vF5p8fzbFeFJHVwQn8gY/Opnm1kaHG5suMogYM1VmMxaGpqMg6LkBV9ZdLEMhIeD4eIJCygQEs1mTz291+cWSy1LDw1MEmaTOeFLFDSUrTQ83jCjnTL5/PMvvnynQ7gX4XkTOekLzCyPSEn4053AzpfHXbZ9vb9X517bGTM7izckEmvI0M7j2gKkmwIyrDfxIstH2qLoBhqEyUXI4VbQZS+gUEzqlpMFE2mA+b2KqYlgmdbctij0tzUZfR/Xp0lCRjOh2e3ief7T22z3x/hGgvlTuvuCoPVopodfr4Xa7+GGIpuvDUq39DNFQBG+OO/w3H4wzW3SGGf/B50ubKh9NpXh3MkEhoYGUFGyFf3I2z4miTSmh8+a4janAa2MOf/JJmdNzabY6PjMZEy+USBQMFSZTBj86k2M7gP/5szXatR7TaZPjeRvbUJnPmayutTi/3kbXFNKmxutjNkVHx1FhOm/yHy+H/Ppmjarrk0saFHMmOVvDdyVpQ0FXBF4gWar1+NsbO7R6IZ9d32Gh2n1CQJVovZCZlM5s3marEfDvv6rwi6s7nJ1OkbJUjhfsp7GavX5+/NWPW0+mTUoJnWu1HpdXWhihJMqaKBIMQ0VzA+ymQimhYWn3P0tVUdBMYyie8p0Ur/qjfXzfO9T9NQLTVwRQ95aqaFrcOjpw6Q5L7mxwTb2ej+t28f0AxxYP/30ZUXRUfns+zXtTSWR0N6BqqkJCV7C1OJwA4OiC35pL8d5kEl2Ny6IiKbE0+GA6ydkJBz+UGKrA0hQqLZ+2HyIjCFAopw0MAYqjcWLM4VTJxtZVzpRsvrU0luo9TF3l2JjNO5NJcraKpUqmCxZOUqey5aIAsxNJ5vI2hqbiaCFvjttczBjc2OnxZxc2+Xa5iS8lG1tdVne6PHbgUxFgqESaglR13ppKU+lIvl1rs7bl8ufnN5nJ6mTMJ4yb90MxffSLwTWI5z+ZqsJ81mQqrXPxTsjmdpcLXsjXC+CpAtvRmU8bfDyT4senc5wed3B0ZX/hlWdgR2EY4bpuX+RcHOI+iw8KwzBGYPpKuPyAbcUiJ/KI9Mb5vk+3Gyu5P871awLSpkLafDzAUfuNACnzfhxydIGj7/aN13sRP7tZ49xamyCI0FXB1Y0OvW7IyXGHN2ZSlFM6QRRLB15Ya2GsCdKWxvdO5ThRtLA1UITK65MpfvRajgtLDaxI8slMijMlByEECQ0+nU+x2vAQd5q0Oh7b1Q5a0qCUN0kkNJpeyGzGxNAUNCHIOyrHCxahrVJMaBiqINQUxnImr80lmcyYpPru9m+fyLLe9PgP57ewiNttN1oelqYykdY5XrKYyZqkjdiFdwyV43mTjiqYSBtYejwoT8j4Z1Mlm1MzSWZKNpauEEYRlYbHdscnaWucnU3xxniCjbbPrXqPnabPN5sdVtfbIOO46umS9USSfE+ygsDHdV0CP4iTWvJ5A+lubMQwdJLJBJqmjlD0pQdUIdB0Db0vl3cU5t4MNkO3132cDzBk1vu5WvtVCDxMtOTeQyWIYvD55laNjXoPVQh2vJBsQufTk1nenk5i6wpeEPHRdBJdjLNV75EwNebHk5SSOooAU1N4u5zgv/+kzMKpNFokOTme5FTBitWWFDgzkeS/1jTen05Qq3dQJCTSDknHwPNDWl2PgqOTdwwMXfDJTJKcNkHoh5yaTJGzVVKmwn9+Ost0ViNpaLw+7pA2FRJFi3/5wThvjtvgBZRzJllbJWFo/MEbed6bsEinTM6WLFQhmM3Z/A8fjxN4EfNFh3JKJwpDVAVmcwb//O08H88lKCUNpjI6vSDk8maH29s98kmd3zqZ48cns/gS1pseV9Za/NW3m9yudPhsocHbsylOl6wDmwTa7Xl0Om5cNiWUQyMLSl/1yjSt0YC+VyKG2v9SVRVVVfdVSXqebBkgDAKarRatVvvF8dsxAAAgAElEQVSp41Xf9fuDz2+pkg+nHTQvxdK2QTdS0HWF+QmHT4/nONEHRFVIptI6E8k8EjnsPx+EUFQBYwmNseNpgtlEf9aWcldZWMJQeH8qydvjFr7n76lfjBlgFMbjudX+nKY3xh1eH7MJowh1Tw/8RzMpPpjcfY/B53pj3Ob1MSse1Uw8HVRRBL91LI2cTw2FbAAm0ib//K0S9F9DEYJIShQB4ymDUiKLjOTwPdaaAW4Q4YYRllDxAoljqJSSOjMZA12BX9yqE1Y6VNo+O73wwEijlAyV0fww3HcUy3MDVFXFMCwcxxo+t9F6iRmqoiiYhoHZH8D3tKOfn+UKo5BGvUG9Xn/KDfXdWc/g721N8INjad6btGn2IjqRiq4KJhIalq4C8q459KqqDNtG79XvHIC0rqn7CjcPMt+6FnsM97bVavqutuvgb5Q+CO59LVVRUPvAeK8uqSIEQtP6cntxK+dA21Te8/l1TQOxz3TV/nsIdff6EqbG6xMJjpccrq62+OuLW/Q6HllbIwgld3a63Kh0QFeYy1uMJfVnzkwH9zqSEa1WC9d1icIIRSiHAqhCCAw9rqe1bWfEUF8VQB3W/O0pPD4MljrUAYgkrXabZrP5VArnz3KjDiYIpByVpBMraQ1UnKSM7h9KJyXRA65l+PP9REDuYcf7fe57e9l3Z0PdDyz3/v3g3+gBIs3Rvt+L+p1R+zdV7LWPONGXptrsoavgtgJ+dmU7Vv2X8euXTJXpuSS//0aBM0X7wNz9wPfZrm7TaXeIoghV1Q7H49rT7TXqknqVYqiaTjKRJJVM0Gw2j8JF0e12aTZb+H6Aqh7+yR7XsEvu3hdPPrrkuxwM8iGH0HcNdzxNaOQuVizgRMHkj98p8vqYxY2NHtvtgKAfFrB0hcm0wdmyzWvjSQqOdmCA6vk+W1tbdNzOblXCYe0tXcMyLRRVHWX5XwVAHbDUZCpJJpNhdW39CEAXdLs96o0GHdclnUoeGMN4XAb8qKF5B7EZD/Pvn/RwEEBCVzhVtJlKm7w3E9LxI8I+oOqKQtpSKdjKsIPqoJbveWxVq3Td7qGKOgshsC2LdCY9DMGM1ksOqIMklGka2LZ1NFgzAtd12d7eod5okE4lh6B2EGD2tIP0Ruv+Q0chbnlNPaCza3cSqDiwa3C7XarVKp7v38WkB6Iu0XMC2XiuVezy791rI1vqE7mX9YMJRQznQB2RrYnve9RrNbar1QMt5RoZ97O9l4MOp8GgwXu/HtZG/LjexMPePwgC6rU6tVqdMAwRexJSMooIw5AoCp9LTHUwKNCyrJGdvSqAKoRAVRRSqSTZbGZo64db5C+IIkmr1aJS2RgKXByEUR5mZ9jLak+P+jrI0I3rdlmvVGi1O0QR/VE6Ek1TyOez5HIZHNs60CTR4DMqiiCZTFDI5+IRLooyAtaX3eUfGHki4ZDLZlD7NY9HYTWbLVZWVuj1vAOTPjusmtvRevYriiLa7Rarq6t0+wmpgcJTNpPmww/eR1EVFheXuHNnkWarfaAzp1RVJZVKks/lRkD6qgBqfJIqOLZNJpPBMC263e6hZkf7ES86bpf1yia1Rh3btu5qPHjWzGa0Xg5ArTeaLC2v9FWm5HCKbrk8wccffw9VVTF0g82NTWq1OrpuHFCNalwylUqmSKdToxrUV8XlHyzDMEgmk8OHf/jBc4Hn+1SrVdbW1vG8g1MNGrGHF8ebetih6PsBOzs7rK+v9+Pu8e8nHIe52Vmmp6bIZrMA9HoeDyo6exbWoKoKtm2TSiWPUG5iBKjPzVAVRSGZSFAqFY+EiINAEoUhjUaNxcVFXLf7XDfpaB299Shvot3pUNnYYHt7e/hshSLIZjPMzc2iKAobG5ssLS9Tq9dRNe2+RokoCgnD4Dt4Lrut3Jl0mkwmPbKxVxVQE4kEE+PjR2JUw6CXyO32WFpcptlsET5jd3/k8r9c7v7O9g4ry6u0225/ppjAsiwmJiaYn5tDyoi1tVW2NrcIggD1rrE/MpZ6tC3SqSS6rj1WMYJ4CEPNZNJDRjxarxCgDloaLcukVCygqUcjXCyEQhBErK6tU9ncoNfrPfMk0og9vBys1fN9Njc3WVtbHw4OFAKy6TSzs9OMj4/hul1WVlap1Rv3PHeJQJJOJzl79gwffe9DpqfK8XDAR9ialBHIaBg+EH3tA1VRSaVSJJOJWIxmdHDft7SX1SCjKAIpMS2TYrGAZZk0moef/RaK6DOPbZaXl5mbnSHhOM+0wP9ptAJG6+itVqvFyuoq65XKUNVJVRSKxQLTU9OoisJ6pcLS8irtTgdF0e4q8FcUlbFSiQ8//IByeRzDMGg0m7Q7HTRNu6/jStM0LNMkDH183ycIB6Aa25FhGmSzmWGX3yCZOkpOvaQMdW/x9aAW0zJNSqUiuVx2OGPq0IFGSjquy8LthWGR/7O+phGYvhjrQc8pDEMqGxssLS/TaDTjkJUQWJbN5NQkk1OTuN0uC3cW2NjcxOtLI+513C3LZKI8wenTrzFZLmMYOjKSICPuHRSkKoJCPssHH7zLBx+8x+RkGdPQY7Ec5DB+WiwUSCaTd+23EVt9CQH1XjAdGKumaWTSacbHxrEs+whcaOxDhWHI0soK6+uVZ+72j8D0xQfZXs9jcWGR1dVVZBQNwTKbyzA9PU2xWKDRbHLj5k1azQZ30814RGwqnWJyskwul6PeaLLcZ7JCqPfYWoRhaMzOTvM7P/4hP/6HP+S1UydxbBsZRdDvjioWi+TzOQzDuG/vhWE4AtaXAVD3A9J7jdPss1TbOvy+/kE9qpSC2k6dpaUVqtXt+/Q/n4XLP1ov7mo0GiwuLlOt1lBUFSkjVAWmJstMTkyAhPX1de4sLNDteQhF2TO2PB59M1YqMTk5iZQRi4tLrFcqscj33jHW/eBsMpFgdmaGY/Pz5POF3UGSfU0yTdMoFHIkEs5D7S5ug41eWRt8oQH1UWA6WLquUSjksW376LA3Ad1ej8XlZZaWl/s92s/m2kYM9cWx3/3+v+/7LC4tsbq2huu6/cMWHCfB3NwshUKeWq3GjRu32Nmpg5R3uftSSmzbYnZmmsmJCZqNJteuXadRbxDJ6O5Mf39aQrFYZGZmGqEobG1VWVlZpdVuo6oqAolhGORyDwfUId99jD05AtQXEEh3AVWnWMiTTqfQ+wrxRwF0okhSqWxw584CtUbzmQX3R738L45rv9+zazabXL5ylY3NLcIwGmb3C4U8U5OTJJIJqtUqN2/dotfr3fNa8XPP5bJMTU2RyWbYqdW4c+cOvZ7HfkPWTctkamqSmelpvF6PxaVFtra28DwfoSiIfj13IZ/DsZ3HtsEBWx0B6gsApo8DGoPOKE3TyOdz5HIZTNM6IoAav3+9XufOwgLLS8ux8vwzctlHLPXFBFjP91lZXePGjVu0mi0URSBlhKapzExPUSqVUFVtOP1hOOMrilAU0Z/PJZiYmKBUKhKFIWura6ytrceCPEIMw639slaymQzT01OMjZVotdrcunmLRqM5bLrSNJ1cPkexUHhiOcxXLWn1wgDqfhn8J3GrEskEhUKBZCKx9yA/3M8EeH7A6uoaly9fpt3uPBMwHIHpi0UQ9n41G02uXL1GpbJBEAQo/XIpx3F47fRr5PN5DF2jUCjw3rvv8u67bzNZLsdAJyMC30fXdeZnZ8llM1S3t7l56zaN4egdsXucS4mqKJTLE0yWyyiKwubmJguLi7jdbt9jEji2zfzcLNlsZgjgT/oZXxW2qr0oRjd4GE970hm6zsTEOLl8jvVK5UidmDs7da5eu8bbb7/FiePHMAzjO5VSHZRo9Wgd7Or1eqysrHDhwiU6HTd29ftVIYZpkUgkiKIQRSjMz8+RL+RZX1vnzp0FFpeWWFldpbpVJZfNcvzEcRzHYeHKVW7evBULZSuiP6Bwt7rUtixmZ2YoFovUanWu37hJtbpDGEZD/YtkMsGx+TkSCec71TgP9vDLLEh95AF1r4v/tGxtMFhsarLMxPgYN27cxPO8oyFzJ+MkxPr6BhcuXKRYLFDI57+TwY3A9MVy8wfstFqtcvnKVe4sLMQtyf3MvRAK3W6Pc+fO0262mJ6eolgsYlom8/NzTE9NUq+/wer6Omurq5imycz0NJGUbG5usVWtEuvxxq8p+kMGQZDL55iciuOyq6trXL16lW63O5xAoGka6XSaUrGAaZrfGQz3NgO8jHZ6pAH1u4Lp3qWqKrlshrGxEul0ms3NzaFxHCaoDt650Whx7vxFjp84QcJJ4Dj2U7PUUafUi+byg+u63Flc5NLlK3TaHVRNQyCQxD/vtNt888233Lp1h3J5nOmpKcrlCaanp8mk4/76VCrF8fl5FEWQTqWp1etoepw/gHim2WBcdxQFqKrKZLlMqVgCBOuVCguLS4RhhBBKLC6UTDA1WSaby6H1x4A/q339MnZZaUfZ0J5l6YWUEtM0KRbyFAp5tra2jg5LQeD7HsvLy1y4cIFiIcfMzMx3Zj6j9WKsKAqpbGxy7ep1lpaWY/a257gVSIIwoFarU6832dzc4tatO2SzaSYn4+x8uTzB+NgYhUIewzBQFZVEMsGZM6fRNJ2VlRWWl1eoVqs0my06boBtWxw7Nk82m4nbXJdXqVarCKGCUOJyqnyekyeP4/RLDp9VOEkOgT16qUD1yAHqvUH6Z+laaZoWFzuXJ7h27fqRyzy6rsvFi5eYnZkmn8+TSiafiqWOwPTFWr1ej5s3b3H9+g3a7Ta6bhDJWOrRNI1h7We93iCMJK7r0um0qWxssLC4zJXsVQqFPOWJCWZnZ5mZmWasVCKXy3Li+HEmy2V2tndYW19neWWFhYUlVldXcRyb48ePY9sWt27eZmFxgW7XG9Zr67pOoVhgZnr6QOQv9+7xlwVUjxSgHhSY7gXUYrHAzPQUjuPQ6XSGJ+5hu/1CKAgBGxsbXL58hXK5zJnTrz31fRyB6ouxwjBieXmFS5cus7q6HsdN49o5NE1jemqKs6+fRlVUvvr6GzY2q3ieF8v0CYVeLy6zWllZ5erV6xQKOebn5pibnWNufpbxsTHS6TTl8gRTU5OcPnOa9bV1VlZWiCLJ1NQkUSRZXl1lZWUtFmER8eyodCbDRLlMoRDPjzoomxokq14GUD2ygHoQS1EUHMdmbGKcqekpbt+6je/7R+Oz9//1PJ9bt24zOTnJxPg42Wzmie/HCEyP/hrYea22w1fffMut23dwuz0UVSWSEoEglU5x9uxp/uEPf4iu6+RyOc6dv8jCwiKNeo2gPwFV0/QhOG9uVtmpNbh24zZjpUIcZ52aGnZYJZxEDK6T5Zhk6DpLS8usrK5RrzfQDQOBQNN0SqUxJmdmsRNJxAGD3SC896Inq44MoD5pfelTg5amk8mXOHHyFCvLqwRBcGRcfykhlJLNrSqXLl+mXJ7gg/ffQ1HUJ5pSPEpKHX0wFUC743L12nUuXrzM9k6t7yntHq+GrmHoBpqmkcvl+OjDDyiVSly8eJGLly6ztrZOEIT9hHxcEhVJie/51Pw6rWaTlZVVrly5xlipyPT0NFNTZSYny4yVxnAcG9d1WV1dpbIej+TRDWOof5EvFMjmCvSiuNpAV5/NKJWH3ZdBTPVFtV31T//0T//0VQHTIIJeqCAUjTCKuHXzJm7HjSXKjtADDMKQXreHRDI1OYlt26iq8kSu/AhMj/YKfJ/llRV+8pOfc/PWLbrd3p5nFjeISmR84EfRcCR6oVCgWCzg2Da9Xo92p0MQBEMVM2VY1hQX0/d6Hu12m+r2NhubG6ytVahUNqhub9NqtWk1m1y6fIUbN27R6bRRVBVV1Rgbn+D1t97ixMlT6Lo5nDahKgcLqgPbHQHqEQZT+mDqBoJICtR+nGptdZV6vRbXpB6ZRyIQxPJtnU4LVVUpl8vYlsWgfPBRxjYC06O9oihic6vKl19+xS8++wzXdfcoO+1aQeAH1Go1NjY2aLZacZKoUGBsrESxVCSbTQPguh26XbefwFSGr6UocekTQhAGEa7bpV5vsLG5yerqKssrKyyvrHLn9iLbOztEkUQoCqZlcfrsWd58623GxseRREgU+kp+Bw6qAzx4EYH1UAH1eYJpNxC7auYi7nl2XZeNSoV2uwVHKOMviMdQdDou9XqNifFxcrkcphlnfx9lZKOk1NF19aWMpfnOX7jAz/7+F6yvV0Ao7AdRglg3t95osrK61ld/UnAch3w+FkopFArouobnebTbHfwgiBOc7O2uFghFQeknloIgpN1qsbVVpbKxRavdjsFUxK52Jpvlg4++x4lTp7Asuy/OIuKhKjJmz8pzYKovIls9NEB9XmAaRtANIZBi2G8Xn9wqAtjc2KBRq+H7/tF6cEIgIxmrCUlJNpslk82g6/rI3X+Bl+u6XL5yhc8++zXXrt94IJjufZaKIgjCkJ3tbarVbVy3i65rJBMJ8vkc4xMTpFJJZBThdjp4nr8HTsUDXlNBVeMpAHttRtd1Zmdnee+DDxifKO92VhHHdyNi7qEIUMVBbwHxwtnzoQDqQWfzh2AqoRuBFw4ezO7DURQFTdfodVrsbFep1etH7uEIEbcLtluxLmUqnSKdTqOqyiPv7whYj94KwpBbt+/wq1//mosXL9PpuAjlceo7Y0ALw5BmsxkX5zdaceIonyeTTlPI58kX8uiGjuu6+J4Xq0s9AFTv/d6ACabTKT58711eP3saJ5FCIoaASh9MIxkzVU3EwPq89sIIUB+w2Z+H+GwkY2baDWLnR/QNY5BJFYBjqGgiYnNzi0pl40BmOz2LAECv5+G6Lqqqks9lSafTe0anjVjqEffz+4e7ZKOywS8/+4zz5y6ws7ODEApPUr6hDNz1TodmM9bPnZufJ5lwsCwrBtZCHse2CYKAXreL7wcPhNR7wdTQdSYnJ/nB97/HzPQklmUQRLtyf4MgvkQSyTgfoSkjUN27tOdvX/K5gGlvCKZ9cxqIP/btwtIEtqozWR7n2LH5WK1nZe3Ixt7W1yt8/c03OI5DNpcj4TgP3CUjMD06z23wb61W4/MvvuDrb75lc2tryPyeZCfIfix0oNCfTCTQNY1uz8P3eqiqyvzcHJl0rFlx7tx5Ll2+wvr6Rj+urjzw/YQQpNJpTp48zszMNI5jo6pxrqHlsUdDVYBUkEj8CDqBIKlJDtLk9t7Ho27bz5WhPq+xCIGMH/RdQXkR/6v0wTShi2EsKYoiarU6y8srR/KBCeJ+73a7Q6fTxnZsSsXicIrrfgY4AtWjsWLbqvH1N+f427/7CevrFYIgQhHKQ6KcD31FUskkb731Br/z4x+Ry2VZXlrh/IWLrK2tkUgkGCuV+lKVeTQ9DgG02+24vOqeA3fw35qmMTszxac/+D6zMzPDQXyiT0D8aBdU7x7vF/+WNkpSPV9Afa7lUb4giHbhKNaBjEHVUMHWd90UKUFRFdrtNsvLK7F02RFcg3hqq9ViZ3ubbC5HKp3GNI0RQz3CDLVWq3Pu/AV+8pOfsrS0TNjPpg+gabgfxGNAq4ynk7722kk+/cFv8dprp9iqVvnlL3/FLz/7FTdu3qTX7WLoRr8SIEepVCSTThNGIa4bhwBkJO9K+CiKQjab4fWzZ/nk449IJJxhG6joJ5+EiPcWol8l28/xDi5fVUZJqucGqM8rCRVJcEPoBgM3H0R/KIEg7vRIGKCJux+S2p8q2Wg0qWxs9OXLxIHfk7vfQjySpYIgCAJarRZup4NjO6RSKSzL3NdFGgHr4br529s7XLh4kc9+9Tk3btwkCKO7nqhlmmQzaYSIPRAZyQfGVKWUKAKmpib5+OOPePeddwjCgK+++prPP/+C5dU1mq0WG5VNtra3EYqCZVlkM2nGJ8YZGxtDEQqe16Pb7RIEIUKJk02WZXLs2Dwfffg+J44f649SEXsALAZLKWNQlRLkQP9CQohEItCfLCT8TMD1qC3teRrZgb4HsVvSDQRSDFyVmJVKCboCyXvAdGAshhGr+Z8+fYpr12+ws1M7oHENuz6TEHI4MG3QOYh88GSW3e5CQa/X48rVa6iqSiQj3nrrDVLJ1F3O2AhMDw9Moyii0Whw8eJFfv3r38SC5n7QZ6YxsbAtg9mZac6ePc3K6hqLi4tsb/f787k/tioEpFIp3nzjdc6eOYNpGty4eZMvvvyKtfU1At8HIdiqbtPudGg0m2xubPLmm2eZnZnh5InjGLqOqiq4rsvaWgVdNRBCIZVKMT87y/zc7FBV6l77UUTs2UUS3KB/wPdHn0sJXggdIUjo8sCL/o+ybWvPw8ieV71px4+L93e7icSwZs5U7wfTveCTSiY5cewYx+bn6Xav0m63n6kKlUASRRJFAcM0sG0LXdMJw4Buz6PX68UjflEenqgQAlBotdpcunR5KCjx7jtvD5nqCEwPl5m2220uXLzELz/7Fddv3KLd7o+CJj4QFVVQKhZ47713+Ph7H7G5tcWFCxc5d/4Cy8srcbXJXjuQEYauc/LEcd55523Gx0pUKhU+//wLbtzY07baT3K1Oy7Xr92kVquzsbnB+++/x5kzp0mn05imGV9rPziq6zqT5TLHj81TyOeG9rSvOyvA0mLiMgypyfgrIk4EGyoYysHf66Oqo6o9jw9+0GAqZfyQvXAP6OwBFUMFR38wmCqKgmEYTJTH+ejD99nY3MR13WfKUqWUpFIOExMTzM5MU8jnMUwD3/epbm+ztLTCysoK7bbbv677gXX3NgoURaXd6XD58mXCMERRBGfPniWZcEaAekhgCtBstrh46RI//enPuXHzVn/YnXrXs1RVjWQqxfj4GOXyBOVymUKhQDab5auvvub2nQU6HXc3JKWpjI+X+P4n32NubpaO63L+/EW++OJL2u3ObvlVf6yJqqoEQTz8sVGvsb29zc52jTAKuHrtOvV6PZbjIyYSZ868xvHjx3bB9iFL7++l5iDzP6hUkJIwjNu7dePgWepRZasHGkN9XipOoYSWJwgj2a+Q2i1J0VVIGQ+vldub6XQch42NTXa2d+j2es/ggcWx0nwuy1tvvcl/9umnfP/7n/DWW2/y2qlTnDxxgtnZGUqFApqq0Wq3Yrb6iJpY0e/4+v/Ze6/mONIs/e+XpryH94YAQdA023dzumd2dkO6+N8pFNIX0CfTtT6AIhQhafXf2Z2dnWnHbja9g/cob9Pq4s0sZBULQBVQKBRAZDSaxWKiTOabTz7nOec8R9c1srkc2WwWv2NGHAwErt1oiX7e3IRhOp3mye+/82//9u+8ev0aTTOcTii3NP9of0kW6r7f7yMYDDKQStYd90F0VNWqYh0MDQ7y6NE3PHr0Darq4+mzZ/z1P//O6up6Q7dT8wKRJAld08lksmxvb7O2ts7W9jaVag1FVvH7/SwtLfLdo2+YmZlGlk8fSSI54b9tg+ZhqbZ9dL37lI83QXVhgNqrUN8GdFOUSQlm6rTKOUJ6xCfC/bYpu6Ji2xaZTNYxjDg7S3Uvomg0zNdffskf//g99+7fJZlMEAwG8fl8+P1+wqEQQ0NDjI2Noek62WyWUrnsXCjSqZKsaVrkCwUymYzj+Rp2HKqUG7TrwaYbBtvbO/zyy2P+9re/8/rNWww3JW7b9RNlO49t26ZaqbB/sM/u3j5gE/AHiMfjjIyMMDY2iqqK/nyfT+XO0m3+5Z//TDKZYnVtnf/6+w88e/4c07RPzwJJQtMtl8sUiyV0w/FQVRSGhwb585++5/btRcLhUNslSW4AqJnUZQwPfUBCwq98nGVU6lVfzIYFRf3DzmXbBkWBYAeY4ob+t27Ns76xye7uLrt7+2fSUsXnsFBVhdmZGb788gtu314UBflNd1a/z4dPFYzhqy+/JJPJOHN/KsiyeiKeSo5OXKlUef9+BUM3KZerfPbpJ0xOThAIBG4Q7wKjLk3T2Njc4h//+JHfnjxha2sbTdM9DEo4OCmyjGladUDVDYNsrkD11WtKpRJ7e/t8+ulDFm7NMzU15ThLDZDJZpmenGR8fJxMJsPjx7/y8uVLyuUyiqK24ekjIjXDtMRncYbvRaJRFhcXWFpaJBGPdwRMEiLJG1JF6O8Cqe0cn5oJQevitdR+DPvVi/yivQj5TQs0y+sjKU6sK6C32xbnnhRFkRlIJbl7Z4mdnR0ODtOYptk5qEpgWzbBQJDbtxeZmZk6AtNjbvt+n5+ZmSkWFm6xvrZBoVhEVdQjl6zjSSoSEtWqxsrqOjVNo1As8NUXX7CwcOuDsqqb7fybZVlUKhXW1tb529//wW+/PWF//wDLtJAVBdu2URSZUChILBYjHA47OQWTSqVCsViiUqlRq2m8X1kjXyiSyWbJFwrcWVpieGSYaCyKVhMznmzb4vmLFzx9+pTDw7QYgdLJcpRkjwGKysT4GF9/9QUjw8NtGe60Yql+J7Q3vH3QtrgmK7qEL/DxaanqVQfTqiky+25Hh2t4rioQOkPEK8uy47gzzd27y6ysrrO9vdPx7Ckh2AsmMDs7Q9gLptKHtVuSbWNjEw4GGR8bY2AgxcrqmmAOtn3qtePOpdINg/WNTQqFArlsjnK5zNKdJeLxmGMLeFOjeh5W6nbWZbJZXr54yd//8SPPX7ykUCjUbe4syyKVSjA9NcXU1CSjo6PEYjEHiE0xYXRzi9dv3rK2toFt2+zvH1AqlTg4OGBnZ5dPHtxjZnqG4aEhANLpDPv7B+TzBQzDFIbj3jtquxqfopBKpbi7vMS9u8tnjmC8LDWvHS1Cyxajr2umkOL8Sm/Oz7UH1F5sptOz36hYirtmSD27aYMkSUSjEZYWF9j9fI9/L5YoFIsd66myrBAMhojFYm3PNJdlmXAoRDAUPJOe7IJ5OpPlp59/IZfLkcnluLt8h5HhIXEB9dm016sT4ktUqlV2dnZ5+vQZP/z4Ey9evnI6j2QkGQJ+PxMTYzy4f4979+4yPTVFIpnA7/PVX0uraaaoonwAACAASURBVLx9955KpcrKymo9DC+Vyrx8+Zr9/UP29/b56qsvuL24SMLR3BcXF8hkczx/8ZKD/X103UBybCjtNta0LEvEYlGWbi/y8OEnRKORcwGSJIFfBdVwCv49xdSWDbol4VfsjwZMLwRQe5mMMp1yKWywPSGHLHeWiGq1+FRVZXR0hM8/e8ju7h7Pnova1E6PhWmaWKbZAbMV+prbd32e76BpOq/fvKFYKrGzvc0nnzxgfm6OeDyGfMNQ2z6Oti1GkWRzOd69X+HJkyc8f/6K3b096q3NQDQaZXFhnj88+pbl5TtEohEM3eDw4JBarYZtix5+WZbJZDMUCoWGekp3EF4mm3NuhnkODg65d+8uY6OjLC/fIZlMMjY6wuPHv7K2vkGlUvWsLelEOcvn8zM7M82nDx8wPzd77ky5BKiyYKG66bkwnbpUzbKJ9Oim1y/AemWTUpYT7nvJqXs4FUmc6PNcRACBQICpyUm+/uoL9g8OqNVqbQ/1kwDbMqlUymRzOXRdPzHcdpsRDNMkl8tRLJScLi8b+4zL3cZG0ww2N7colYrs7e/z8JNPWF5eZiCVqFcC3JipnBAFmULz3N3b4+nTZ/z+9Dnr6+vk84V6lt3GJhIOsXznNt9/94h79+6iqCrpdIaVlRVWV9fIZjLYgKooRKJRyuUye3v7QKOJjw3YlkWhUOTly5dksxn29vf5+ssvmZgYY2JinEgkzNDQII8f/8aLly/JZnPCpq+FH4DX/zeVTHL37jK3by8QCgW7cs5lRPKpVMdSNx1rY1mS05T68YT9F8ZQL3yhI8o2RBQuMpSWM+8m0KVvVQ/9l27z9t17yqUy+weH7ckako1tWZRKJVZWV1lcuEUsGq3P+GkVVtpAuVxhd2eXbDYrumvOdSilOkgfHGYolSocHh6yubXF8p0lbs3NMTA4gKqqN9pq0zmVJIlqtUo6nWZldY1nz57z7PkLDg8zYoqCwyht20JVFGZnZ/jyy8+5f/8eiqry+s1bnvz2hNdv3rC3t0+1UnWATcIfCABS3WD6w2MugKhUrrC6JsA7fZjm888+ZXl5iYGBAT79NEIqlSKRjPP06XN2dnapVmstb76ujLS4eIs7txcZHBjo2jGTHfJie9qmxU0BNOcaDSgfB5hCl+tQewWmIEL9oibm3IixJk5xviQK+VX5/GDqGqcEAn78fj/ZbI70YdqZ2yOdDmaIJIRpGAwNDZFKpQiFgs54E9dlQrAcCahpGi9fvOKHH39kfWOTuo/ruW8MIsPr1rju7Oywf3BAuVRGVVSi0SjBYKD+nT42cPV+X5F0ssnm87x+/YYffvqZf/zjR54+fc7BQbo+yE60NYtioVQqyT/98Xu++OJzgsEgr1+/4V//9b/z+PGvbGxuUS5XMAwTzTDQdYNyuUKlWnXmOEnHxzjOOimVy+zu7ZNOH1Kr1ggGgwwNDTI6MszQ0CDRWBTbFjfjarX2wRr2+XxMTU3yz3/+E7cXFwiHQ109v5ZT5G9aNA0bFLZ+gR6VQ/dDTWrXC/t7BaiaJVHQjuJ814nfp0A80B3XG/cEqapKNBpB13Uy2RzZbK6tu6LbrVWpVLEsC3/AfwReXrZtWeSLRV69fsO//8dfefHqDeVSGbnLhfmy4y5UrVTFgLbdPXKuHOFIHKqqNCzM6wqu3u/l/pimST5fYHVtjV8e/8bf/vZ3Hv/6hI2NLWq1Gj6fryGAtW0LRZG5u7zEH7//jrGxMdbW1/nv//Zv/PjjzxQKBSRJjGWWZMlJPikoLVnpMWvI+T3DtJyhevuUyxUUVSUajjAyMszo6BjhcJh8scD21k7D+VJVleGhQR59+zVff/UFqVSy68DjGhCV9SMBy0UBtxKgF2DaD+v0Smqoln3kzeiWwDlED59yMSMZgsEgd+4skc3myOXy7OzueoC89U3EvVtrms6zFy+p1WpkMmkWFxcIBYV+aVkmhWKJjc1NHv/ymJev3lAolpxaxm6DiPg8iqIiSZDPF/j1ye+srW8wNz/Lp59+KnwGBgeIhMOoiiJYUh+J/t2+AN0kYCFfYHd/j5X3q7x4+ZL371fJ5XJohilkGln5oB5YAkKhEAsLC8TjcfKFPC9fveLXX5+g67poC0XC8pzITjVxr1O+JMtkMhl++uln9vcP2Pn8IQ8fPCCZShKJRAgFg9i2VU9uubrp/ft3+erLz+tZ/e4fS5EIPvrMUt2AxbB6cz6vpYbaq5DfxvVlbMxuys7PhVB5RWFocJD795bJZnMUS0XK5fYMVGxsioUiL1+9Zv9gj9+fPiORiBPwB9B1nWwux97ePvv7+1SqWr2e8QLRxLkx2VSrNXb39sjmcuzu7jM3N8P83CxTU5MMDgwQDkcIBgPXqo3VzdrXNI1SscTO3h6rK6u8ffeOjY1N0pkstZqGZZontP+K0D8WjzE9PUUwGGRnd5eVlVXS6Qyq6gMk7HOvdE8ILQnNtlgq8/btO3K5DHt7+ywt3WZvb5/19XVM00CV/cJBLRZjcfEWX37xOaOjI3Wt/KLWVvOlb9k2pt3b83qtALV3B+6IbTUuuMY7ZbcZTSDgZ3Jyks8//5R0JsvLV68oFkunn0xbZD1L5TKVitDD/D4/qqJgWha6rqPpBpZpesb2XvxNSXI6IUzTplgqs7Kyyv7+Pm/fvGNkdJipiQlmZmeYnJggmUwSCPhRVbVe5tOvckBzcsldNJZto+sGlWqF9GGa7Z0dNje3eL+yyu7uLtlsTsgztjuj/ngrRdu2UVWFRDzG4OAgqqqSzWY5PDjEMAwBqO0UiLbBurwvIzmJymq1yubmDsVimfX1DSqVCjs7e0iygiwJP4f5uVk++/QT4YXq9yNf0NqSAKVpbbnRmYWNYR9vnXndmOrVBFREu5trcG5jI7ts4AJvUrIsE4tFuX17gVpNI1/Is7a2Qc1xpTqOrbofSZaEIW+tqlGt1Oqr0dXWmm3eenFjchmrIqtYtk0ulyeXy7OxucnrV28YGR1hamqKmZkpJifGGR4aJpFIEPD7kT3jrJujk5YdYT1kJl6d0LIsatUqmWyWnZ09tra3WV9fZ2trm4PDQ7K5AqaTaJQVGcXxRzj+HikgQ1UUotEo0UgEWZapVqod1yofH0LLqI6TlGmYdbf/IwlADMpLZ0S7KrbTcq2o+Pz+ugP/gwf3icdjF37jc8N+NzHljkexnFZU9SPx6VG7uah7RbndE+VqqG5oJSHKpi5Sd5MkiUQ8zicP7nJweIBt2axvbFCrae0FcJKErKgNhfWurnaZAYt7ZxeGGza6YXKYTnNwcMi7d+8YGhpicmKCiclxJsYnGB0dIZVKOkm2ID5FqWt3vVoX3hrLxuhFfP5atUo+nyeTEaHxxuamML3Z2SWTyVKpVrFtUH0+ZFkBRCOGbVniPMkKx3smSSiyjN/nx6eqyLIodbLPR0mRnG6m+bk5kok4mWyGlZVVMtm8o8l6b9Lu+J6j46GqKsPDQ3z11ed89uknjAwP9UaTRuQuDDwGWx9hBd6VZKiSdOTJ6P69DrI9QqVINMq3X3+FoRtous76+ka90qCdD2H1YfunN2EiSTKyU2Co6wY7O7vs7x/w8tUr4vEYY6OjjI2NMTI6wsDAAKlEglg0SjAUwu/3oapqvd32IpmRm1TSahq6rlOpVigUimRzOdLpNDvbO2xtb7O/f0AuV6RWE7q3jYSiqnUzHRtQZJmgP0DA70c3dCqVmnOeWmuolqPF6qYJSIRCISLh8yR+bGRJYnhogP/xf/hnxkZHePb8BenDNPv7B54kYSO5cKdTiD79JF998TkP7t9jYCDV06jRZfV2kzQn3QDqVdFS7Qb91MYda3vxmyLLpFIpHjy4R6lUplqpsn9w4IT9Ul8I5N3iHu6UTsO0KBbLlEplDg/SvHn7jkgkQiwWI5lMMDoywkAqRSweIxqJEIvHCIfC+Hw+FFVBkWUURUFWxGOhU3I8s3UkFMuysCzB/kzDxDB0DMNE1zUq1Rr5QsHpLiuSzgjwyWSzFAtFSqUStZqGbhiiCcS26gDUIMfIEkNDA8zNzTI2Oko2m+P5ixek0xnhbdqi+N4wDEqlEpVKlXg8RiweI5lKOoxZ6qhKwyUFkmQT8PudGtMh4rE4gWDw2Nc6Ko9SSCTi3L+3zHfffcvoyHBPE4nuTDfbw1DdLilFvgHUrmlZFxVeuFMYhWAvgNX0jkHpxcFTFSYnxvnyi88wLZO//+NHstnc2ez++vKG5b1oBZezbce6rloTYJYvsrd/gE9VCYVChEJBQqEwkUiYeDxKMpF0pggECQQCBIIBQqEQwUAQVRXgqrawj7MsC0PTsSwLXReAaBom5UpZeMWWy8IGr1Qil8uLSbCViiiar1TQdV2AsJukcL+DC952IxwoTrfTd394xMzMNLlsnlA4xG+/PWF3d9/xE21MghqmSS6fJ5vNMjw0yEBqgPHxccLhCLphdnztiHUsozreuAKYnYZO6XgwVRSZZCLBvbvLfPfoWyYmxvGpveVKbimjN4FmX4KOdW2SUr2sVXRDfpCOTFGaQKAXmyzLhEIh5uZmUVUVy7L523/9nXy+0LHdX/8DqzdzLruTPcRoYcPE0HVKpfKRXKDI+FSFYFCE0D6/H59PAEUwEMQfCKAqKoqqovqEBunxt8GyLLSajmnoGI5ZjGEYVGs1MR6kpmHoOrrTfWQYJrZt1Y+7LMtIsoyM1KhTt6glBZAliVQqxfT0FDPT09RGavh8KgG/nx9/+pn1jS0kSWkAM8syyefzbG9vMTM9RTKRYHZmhsnJcVZX1+szl9qlCbYNquojnoijqj7Hab9CpVwReq7ntbyF7OFwhOXlJb7/7luWlm6LZBaXU31hNwCpBJJ94eNQek3ormXIL9iS1HBhWDhmtz3TcsWFGwwGmJ2dQZJlspksT58/p1AoXuvQpnHtSsiyWi9ZE0bKNpVKjXK53LCvyAY7o4plGVmSxXwl+SjkEBM/bQzDwrIcMxrnNb2vI0lCQpBk2ak4kJ39LEzLBMt0RQuxzwneCLZtYzqgres6tZrG9PQ0iqqiyDKG8V/s7u47I3aO0KNSqfL27TuWlpZIJBPMzs7w+WefcnBwSLFYcgD79HrUo3E5IiEVCAQolcv1KgTFYZzNNcrBYFCE+X8QDleumXgvZ4pZjutbPWJ0ydUlqKc3nVJnYYaOCQqSA6oeY2nrqD2+ZydQkiT8fh8TE2N8//0jLNvixYtX5AuFjhJVV3lrTrK50zollA/DiyZAFmBmY9mmA85HbMMF31aLVVy4FrZTPS4AWsLvV1F9PhRZwbRMDF0ApWVaLfVa97U0XUeraRSLJd69e08kEmZgIMWjR9+iqir/+V//EOG/YTg1zzKmafJ+ZYXVtTVGhocYHh7iiy+/YHt3l2dPn5HPFxp0aJvWDBlsIhFRO3r37l0URWFne5fNzW3K5bIoqfOAqQQEgkFuL97iT3/8A3eWbl8KmIKw0aw6bpPCTdOpvpDsnhhM9xNLvZpZfoRlmE92DKbto2RUzYCyIYbz9fquGA6FuLO0iGkKR/XfnwqmKrnyxEdn7Cw1o0YjmLolVc64BQm53uraGnKO/q/IDrOVJFRVEcMOwxGi0SiJeJR4Io7f56emaY6v6AF7ewdUPOYhzcGqZZmYptBpX795Q6lU4sGD+yzcusWjR98SCIX461//k82tHbT6RFybg8M0z549Z3hoiOU7S0xPTfLnf/oT2PDy5SvyubwzTwpPqV/j+gmHg9y6Nc/XX33J1OQEpVKZt+/esbm1iWmaqD65fizE/mHm52b4/rtHzM/NdTRkr+uAaglAdQOI+vmTQJU/rjXf9aRUL0+oV5tx8/2aCYXa5QCq2+53Z+m2qEi04bcnT6lUKtdKU+1UU2tFziUJFFXF59iCaZqBeWobryimD4dDxGJRYrEo0WiUcChEIpFgYGCAwYEB4ok4wYBwz7Jsm1KpxObWNs+ePefVqzfkC0VM0/wA5HXdQDcMZElC13Wev3jhDMNTWLglWjht0+SHn35hdXWNarWKJEnUajqvX70hmUwSi0WZmppi6fYilmWRSMR5+eIlOzt7aLomHKY8LaWKIhONRJi/NcfXX33Jgwf3AVhbX+fVq9fsHxwieephZVkmFo0yPz/Ht998yf3790gk4kL6uCTNVLeOGKp3eauS5Bij2DeA2u+bT4GoH0ruxFMXsBxQ7WXY3wDyikIymeDu8h0UWXRGPXv+glKpjGVZHyWottoCfj+Tk+NMTU5gGAZv377j4DCDYRjHtHzaKLLM6MgQDx7cZ2JigmRS1L76/D6CwRDhcIhQMIiiKFRrGlqtRigUYmJinKmpSSbGRonHYvz62+8cHKYbOtts28YyLSzTQlEUVJ9KJpMlk8limIK53rt7l6+++hJ/IIDPp/Lq1Ws0TUNC5iCd4bfffsfv86EqYtrDvbvLDKRSTE5M8PLVKzY3NykUihiGKYx8fD6SySRzszPcv3+P24uLRGNRNja3+OGHH3n/foVqtVYv6JckiWgkwt27yzz69iuW7yxdKpiCM3VY8zj2c5ScVmWbkNq7td4PBilXsmwKhAmKKlMfXSt5tLmaCRUDwr7eH1DXQzURj3P37jLBQJBwOMyT35+STmc6nkt1PTmrzcBAks8/+4yvvvqcSrlCKBTihx9/IpvNOXphYwIKZ4royMgwf3j0LXPzc/j9fuFuXyxSyBfY29unkC+IvxeLlEtlkskEc3MzzM7McP/+fUKhEKZp8vPj30gfpo/MtW0bwzQwzaPRM6Zpksvm+PXX36hVq8iyzNLtRb7+6kuCjuP909+fYiMSYdvbu/zt7z+gaRpffvkFc7Mz3JqfY3RkmIVb82xubZHNZqlpGpIkEQwGGBwYZGpykpGRYQBWVlb523/9nV8e/0o2l2vov49Go3zy4D7ff/eI+/eXCQaDDRHS5WjnjaWKbjG/Kl/e9XetALWXpVN+xSaoSpR1h5E6762b4q4ZUi+HpbrZ/1g0yvLyHaLRCH6/j8e/OqOGLavnN6B+wlOfT2FubpZ795aZn5+nUqmQyxd4++49uVwey7YahVfbmfvulGj5AwH8fj+VcpnVtTVevnzNYTpNNpMlm81SKBSo1mpomkEkEmJhYZ5vvvmGzz/7lOnpKb768nOy2Sz5XA7bFmkUG+rJK0mSnHZSUT1QLld4+uwFpmVhWRaLiwt8+vAhqurDNE1WVlao1moYhs7Ozi5/+fe/ks1m+ezTT5mdmSaRTDIzM8383CyGaWI4coNPVVEUBU3XyeXzrK2u8/Mvj/nxp58c0x3R3ookE42GefjJA/70x+9Yur1Qn1ba6wRU861RM6CkHYX6bsWU7Ixx7yU7vXZlU24426u7hCJBULEp641dL6YNRR2il8RS3WNxlP2f4LtH36IoCo9/fcLhYdopPLc+LlC1XXY6wJ2l24yPj2FbNqqiMjY+xujoCNvbO5TLFeQWfeuWZTmF9MIVKpvN8+T3Z/zrv/5/aJruDES0sGyr3jJarVapVCoCXMNh7t+7y+zsDHNzs7x/v8JhOt3QI++2cAYCwXqFhg1UqlVevnyFz+fDMAzuLN3m3r1lVFXlL3/5C69ev6GQL2BZUCgU+eWXX9nd22dudobpmWnGxkZJxOLCrctpHbJMk1pN4yCdZnV1jdev3vB+ZdVJZIo6Wp/PTyqZ4M6dJf74/R+Ym5shFArVb9qXuekm5GqOlWaDfirC/YBqX8ISuyZZftup/+vlSVZliPhtMlXJKZeykWTBZso65GuXy1Jt267Xqc7MTAOibvC3335nY3OzbqjyMYCqBJi2harIzMxMMz09jaqq7O3vgwTxWJSJiQnevXtPsVSqd8J5IxLLsigWS2SyGbSaKLxXZNkZmGd5stxiNI475LBUqrC2usbvvz9lcWGBcCTC8PAQ8USc/YMD/H4JyxK9+ZbTmqoojn2f20Zp2VQrNVZX1hgaHGRwYIBbC7e4f+8uiiwRCAR49uw5mXQWyxlbsvJ+lb29PV6+ei3mP8VjhEIh/H4/OCBdLpU5zGRJp9Pkc3mqNQ0Jp745FGZ0ZIQH9+/y6NHXjI+NEQwGLsyGr1N2WjUgU3VKpTyIqsoQUXtn2VeXHyzr0n171W4CSK83WRKAGQvYZKtuParj8emI5fHA5bJUNywLh0PMz88SiUaIx2L85T/+yu7OnjNb6CNgqpKAuVAoyO3FBVLJJAcHB7x9t0I4FOT+vbtMTUwwMJBid3evpZWosD6sks/l0XSNSDjCwICYLlAqVxyPV/kDJJawKZbLrG9ski8USKWSxGIx4rGYJ6ISvrRifLc7rkSu3xhVVSEejzM6OkoymcTn9yEBkXCIe/fuCnlAkvn119+EnR4yNV2nmtHI5Qpsbe2gqor4UYRNo+j+MkWFg2nUHa4kSSYYCnFrfo6HDx/w6cMHzM3O9I1O6LLTbM1ppLEbz5VfsUkEPi5memEM1dv614vNL0PCb5Orum5TIr1vImbcZC+RpTaH/6FQiOmpSSLhMIqi8PMvv/L23Tvy+cIHM5yuGzvFtvGpKqMjI9xeXCQYDPDi5Ut++OEHRkdGuLt8h8nJCSbHJ3j/flWwd0n+EFA1jcPDQyqVKgMDA8TjcSKRMOVyxTl2Hxro2UiYhmjjLFerJCxhQOIyRfe1TdPAMMXIE7/fhyxL9aqNiYlxbt++zcKteSYnxAynvX1R5D82Osq9u8v4VBWfz8ePP/1MPp9HwungshGOWJrWcPN0E5hIcoPE4fP5mJud5dG3X/Pw4QNGhof6ysTbnR+VqXiMUJwHqiyqbwI9zu67x/XaFfb3+sRLEoR8golmqo2JDN2GbBViPogG+sNGTJZlBgcH+P77R8RiMaKRMM9fvqpXAFzXsirbtolGo9y5s8ToyAjVao21tXXevHmLruuUyxWSySRTU5OkUkk2NjZRfX7qZ805JKZpcnB4SKlUQpFlopEwiUSCw8M0lnlcra+NLEsE/H4CfjEeRNN0dF1rCf4uG52anGRycpL5uVkWFxeZvzWPIkmkMxnevnvPxuYmpmHyzddfMTMzzfLyHUKhEKqq8MOPP5HL5THrk02F16yifNgr5T6jKArRaIT5uVm+/eYbHn5yn8HBVH+dR0TjzG7paF6U11Y8oEAq8PFppxcCqJeho4LomEoEBEs1EaN33UVc0WGnCNNKb7OOp910IuEw9+8vE4mESaVS/Pb7U3Z2dj9gMdcCTB03p5GRET55cB9FVVl785a1+sz5DJubWywuLjA6OsLoyIjwl6Vx1rvrGFUsliiVSpimRTgcZnh4iJXVNTBNp8TKXY9OxASEw0EmJ8eJR6OATS6XJZvNeQDY0VEtC9XnY2RkhD/96Y8k4nEGBlLYQPrwkPX1DV69es371TVRdqXIFIpFHn37DYsLC8zMTPMv//xnZEXmt19/Z2//AN1o5T4muf8hS0KDHRoaZGnpNl9+8Rm35udIJOJ9oZd6N8MSJKVQa6SstgSqZPecnbq4cy0B1QuqvQz7ZUl0RqWCNgcVt9BfqntMlnQ4KMNE7GImop6VqcaiURZuzRONRkgNJHn86xPW1zfI5wsYhnFNPABEYWIsFmF+fo6FxQWq1Sqv37xhe3sHy7LIF/K8efuWyckJhoeHmRgfd0Y2N9+IhJ1dPl8gm8tT00Th/vDwMKqqoGl2PfTESUqpikIoFKozyGAwIByidnZJZzLIslw3XTF1YYzijl72qSqarpHOZFlbW2NlZZW19XUODg4plysYpoUiw6+//iacrzSde/fvMj09xT/96Y8ossJPvzxmZ2dXHAaP/Z9Un7snxupMTU5y794dPrl/n8nJCULh0KUW7LfaLFsA6V6pmZkKUA36IBXsPTPtp9ruCwPUXrNUVYZEEPKayD4Kc1uxGDUT0hWRnEoG+wtUo9EIgcAU8XiMocFBfv75MS9fv2korbrq2qqqKoyNjXFnaYlwOMy7d+9ZWVkln887XU01VtdWKRQ/Y3xs3An7U2QyWYfFNbo1lUplMpkM5XKZsJMJDwaDVCoVFEXGr6gEggGCAT/xeJyJiXHu3V1m+c4dTNNkdW2dtfV1isWyGPnivK5pWVimiexom7lclhcvX/H69Vs2NjfF2JRKFdNyKwpEFUAmk+PJ70+d5+HBg/sMDQ0xOzvD2toa+/sH6LqBLClH3rKShM+nEo/FuH17gU8ffsKdO7cFkPt8/Tf4EJHk3cg3dkW5RtIBBQaCELwEdmo59cHXbow0UP9iLqj26kvKkhDDRyOwkZcwbBHySZJwxKyZQvdRZYj1iZ7qHhu/38/I8DCJeJxEPM7Y+BjPnj3n3ftVCoVCfd8rCaq2TSgUYnZ2hoXFBWq1Gq9fv2FndxdNN0SnkmWzu7vP/t4BY2NjjI+PMTszTTabFd9ZFpUb7jnTtBrZTIZioUgqNcDI2ChTkwKEE4k4yWSKVCpJMhEnkUgwPDTEyMgIoVCQt+/e8+OPP7OyuoZl2yiyItaJBzhs26ZcrvDL49/4xw8/srW1jabpuDWq3jlObmVBLlfg9yfP0DWdUrkCErx+9YZMNifsA5E8VR8QCgWZnJzg4YP7LC8vMTc7SyIR78tJsm6J1EHZ07PPkV2fIkkkgjZD4csL9fuh7fRCNFTvF+11XZgiCS21HIL9slOb6jJVW9SlSsCMLBJZ/TbrJhAIsLS0yOjoMBPjo/z402NevHjFYTpd7+C5UqBqC6f5kZEh5uZmSSYTbG/v8Pr1G3L5gqOJythY5PN51jc2mJ2bYXBoiIXFBZ49f4mm6R94mJqmSTaXo1As4Pf7GB8b40//9Me6SXQqlSIejxMOBQUYVKsUCgXevn3Ljz/9wm9PfiebyddbXN3XNy0T0zDFnCpdZ2dnh/39fTRNw+8PiDXdYhqq0Hdl8oUCT5895zB9CDbs7O5RrlQdw22lntVPJZMsLMzz2WcP+ezhwjusagAAIABJREFUJ8TjMXzO1IJ+ZKaaKcL8vdKHYCbLEmGfzUj4MpbXETu9lhqqd2yvq6H2+s7hk2EgZFMxJPI1t4NKaGq2LTo71nIwk7i8+tTTjmE8Huf+/XsMpAYYGRnm2fMXbG/tkC8WMHTDxaq+11clSTQyzM7OMTU5SbVa4/279+zt72NbtgARpxWpVtPY2tomk8myuLjA9PQ0qVSS/f3DeohdT1BZAoDz+QKyJDE4kOKLzz6jVquJbinLIpNOs12tUiyVODg8ZHtrm42NTd6vrFIslVv6ohqGQU3XMJ3SqVA4XAc6myN7umO/ryw71QsbdaB2/VxdeWd8fIw7S7f55MF9FhbmCQVDYmJqnzCsVmC6U4Ttgtc57IhFB1UYiVxOqO/96Zdjd2HmKKKuzzyqtevhRRz1wWjEoqjJuDaUSOKzWUhka0AObqXouQFuO4CqKArRSISZmWmi0QjTU5M8ffqcN+/esbd3QKlUugLDAMUiHxwcYH5+jpHhYUxDR9M0xsfGSCYSWLaNaQp3fcMwkGSJWk1DVVXGRkeYnBwnk81iVHRkVW1ghsViiWwuh24YKIpCTauxur7O/v4+pWKJXC4n+vULRfK5PIVigWq1Rk0zWh5zV283TRPdWbdBZ0xLB2fPYbq2MxJadsbkBBlIpZifn+WTB/eZm5tleGiQSCTSV+Fq8+aC6VahQTJFzB2yUWSI+21Swcspk+o3dnphDNVlqc1staeg6ofxqM1WUQzv81hQikRCFd5mYKHPQNV7DAMBPyMjw8RiImE1PT3Js+cvef36LcVSqaHEqt+A1bZtFFVhZmaamekpYvEYWq3G0p3bjIwOo+smlmVimBa2ZVHTNHw+laHhQWRZJhGPMzMzzbt376lWqu6IQHECJdkZEFigXKkQCgbZ3tnh7//1D96+e0utplGr1qhpmph3ZZrYlpgGIMlKS2nCrrOeI4BTHYOUTs+d7Po4+PxEYzFmpqe4f2+ZxcUFJsbHiEQiqKrS8pz3y6ZbQjPdLHh1jaPISJEhFbIZiXBpYOpd99eeoXq/uNsp1OvQfyhso1uwV5Iw3QXhMTLKVOCtDbcGBKj24/zwerH3/CxDQwNMTkwwOzPNs+cv2XBaKXVdbzi2lw2u7ieJRKIsLy8zMjLisD+LeCzOwMBAfYCd4oyUtiwBrD6fD1VViUQiLNxa4PHjJ+RyhQ9qOLVajVwuTyFfIOj3U6vU2N7eYWVlvX5TlR2nJkmSkBRfHTiP+8BuHaoI3yV8Pl/dyKTdm6AI7xXC4TBTU5PcWVpk+c4Ss7PTDKRSdRmsb2VvRBZ/rwwrGc/JtI/EM1mCmN9mImo7BtKXz06vtYZ6HKD22rggoAiWCja7JTf8d2oUEaYO6SpYhzCXEi2qch+hqvd4yrJMIpEgkUgwOzvN+PgYL16+YmV1je3tXTKZTIPb12VqrKL3XWV8YpyFhVtEImG2t3d48eIl+/v7BEIhZFlxpor68KkqqqKiqgrRWJTRkVGGR4aZmppiYmKcvb09iqWKMOwWQge6rpPP5chkMoyODBONRYlEo/gDfjE7SpLrUxNOPxYihLUsqz6qpB2G+iGQykQiYcbGxpiZnuLOndvcvbPEyMhwA6HoR0bqHqGqIcL8zXwDgT/6jhIkAjCb4FLB1Ist/bRdOEN1R024C6rX9akBBcYjQnrYLR9pqpL7P0uE/2YaphMQ84vSqn7bvBn+SCTCw09EAfj6+gavXr/h9Zu3ZDM5oSvqetMcK6ln4CoCc5t4PMr9u3cYSCapVas8e/ac//v/+X/Z3d3D7w8gyTKKItXDY9WnoioKw8NDfPP11/z5z/9ELBZhdmaa947fgaoE6sdAOE8VSafTyLJoFU0m4/h9Poq1Eqrqa/sbS4ghg5ZlUa1W2NvdI5/Ps7e3L8qlJLnFnKujUFOWZeLxOIMDYgz1vbvLzM5MMzg4UJ/11K86aV2icxpgtgsCUBvkEPsITOMBmEv01om/FTPt1/rsC2Wo/RD6gxiXIrQeuw6q9hFZxXKy/3pG1LGORfsPVJvZTTAYZGx0hIRTuH57YYH3K6u8fvuWg/0DSqUy1VrN00XSmwSWbYu62smJCT755AGBYICtrW3evXvP1vauGNGsGfVOIbezSZEVbGxyuQLJZIr7Dx6QiEWZmBgnNZBic2u7bnvijrwplkqk0xmQIBwOMZBKEQ6HPNNm2/u+tnNcdd1ga2ubv/7nf9blA1H879adHnU4CYbtIxKJkEomWFi4xcKteaanJhkeHqr39LsE4rK9S08D01wNVrOitLCBz9tSXUJJBGzmk5cHpq1C/X67WfVkBIppmvUvfRmhvyyJEqmRiI2NxW5JOsr+O5xKsiUKNdANAQqjUQHEUh+CqnuBKoq4qMPhEKlUksmpCWZnp1ldXWNldZ2t7W1KpbJjE2e0da7OHzTaxOMxFhZvMTM9jWVbrK+vs76+Qa1aRfX5PGE4nhpQy/EuLbG5ucXqygoPH37C6OioU5T/jkqlVndlsm0olyuk02k0TcOnivlMsWhUtHp2TMoldMNgfX2D/f0DCoUCNc1w1q1cH+Hs8yn4/QEikTCDgwPMzswwOzPNzMwUw0NDRCLhulTQ76zURthcZqvwLiMcpI4Om10v3JcliPthKn45YOqNdr3s1LuOPwoNtTlc9V7UlwWqY1FhlrHtaKpH4Yzj8G7CSg4KOkzHRANAv0oAXq0vEY8Tj8UYHhYtj7c2Nnn3foW1tQ0OD9NkshnH4s5qmO/ezcUoAbIiMzoyzO3FRULhEHv7+6yurrG3v+d4lbb6HkfZcdu2yKQzvHv3jvv37tat85LJBMXittMqKjL9NU0nnc6Qy+WIRqIkEnGi0ShnvQ1apkWhUCSXy4vki6LUO5wURcaniiqE6akpZmemmZycYGRkmKHBQcLh0NF8qlOuh74AU1u4Ru0VRSbf6xxle5ipLEEyaDOftC6tbttbb1pPGvapjHKhdajNj9261MvSU10Tlcn4EVPVnJIqq35vlrBMsdBK2pEE4OvTKoBmcI1GIkTCYUZHhpmbnWFjc4u9vX1WVlZZXV/n8DBNtVqrRw2tLvyzAKzkvE4ymeTWrXlu3ZrH0HXW1zdYW1+nUCiJ0LmNVyoUi6ytCZOYZDLB1OQk42PjbGxsN3xnwzCEUUo2SzgUEjqs3//BkL92Pn39ENhSPbPv3qzi8RiDAwOkUgluLy5ya36OycmJlm5Q/Qyi7mZYwuRkPS9Ko1oxV7BFpUzIZiYuiMVlM1MvIes3ZnrhDNWrYXnNk0Um1WwIXXu9BRSYTdiEffA+K9XHTrsZZEkSZVb5mgiDChpMxwXDVeW+v16QJIlAIMjY2CjDw0NUq1WWlhYFY11dFwPtcnly2SyFYumDhdqoP7YbO4t9wuEgPr+PdDrN5sYmv/zymJ2dPUzz9DZkd3ZUraaxs7vL6uoageASg4NDTEyMEwoFMQzLHYOKZZrk8nlevnzF4WGa1bV1stkcSlMTwPG3ALsRTJ2nVVWUPSWTSQZSKaanJpmdnWZwcJCpyXHC4XB93fZ7WN+sldZMAaLvs16Tk6MT4F4DfkVIZLMJAayXBabejH4nUfG11lC9z3v11MsEVVWG0YhNQLF5m5EoG6JG1S3wdssAdBN2i8JpZywK433OVo8WGnUjD1VVmZ0NMDI8zP17d8mkM+wfHLK2vs7m5pYYeletUiqV0TSt4YZX15kbSo8+BFk3UZTL5Xjy5He2t3fQNI3NzS0KxRKSU/LUDsxZlnid3578juGY7OiGQSgUIl8oCqMUpxU1m83yl3//D3yqj2KpLDwCWgJnqwvwKFLy+32EQ2HC4RCxWJTxsTFmZ2cYGRlmeGiQZDKBzydc/iWJvi+BasVK8zVYz8F+uUX873hdSs600omozUzi8tifNwHlMtRWN69+K+yX7C5xZtM0qVQqDRdjqzIq909ZlvH5fPWL/rIOSD3DmZPI1+S6luQFJnfzKUegelXY6gff17Ko1WpUKlVy+TzpwzQHh4cCYNc2SGcylEolqtVaPZllmaYzRfT4m6XrmiDCZJEwsywbw3Szsp0JfIqqMJBKMTCQQvWpFAoF9vf3KZdrjZEQwr3JPZfN+nArRqMoMqoqGgj8bqY+lWByYoLxsVFSAymGh4ZIJOKEQkECgQCqqn7A4q/CZlqitvSwAu8zogPKxdCjW6FwulYkiPhsJmO2U799uZqpC6Yf3uBba6iyLH9wrq40oJbL5Za9tcfpHSJrKhb2ZYNqSYOdssROUUIzGvmXJB1BhqvDjsecSgD56gIrCEOQUqksAOvggP2DQw4P0qSzWXLZHOlMmlwuT7Va87T7WfUWzeYbj91U1iIrCufh8y4bdC8gq5VDiXthtVg/rsbpMlGfz0cyESeVSpFMJkkm4wwNDjI8PFQH0XA4RCAQaKhMuWqbaYPmAOlqVtSYNh8z23OMA4qjlyYg7Lt8Zuomsb117KfdyMT472sEqCcx1OMe9wtTdYE1U4U3GZmy7mY+RcjoJl3cT+4F1rGIYK9XCVi9i9MLgJVKhUKhWHfFPzw8ZG9vn3Q2Q6FQpFAoUMgXKVcqdQPsVkvoqGPR9sgGLTTLNhkrp1xQzUMOZVlGVVXCIRHCx2IxYrEoyUSC0bERhgYGSSQTxGNR4vEYYWdwYvNrXTUwtWyoGWI45U6x0XLPo804K9pGkSSifpupuGgl7YcbvctMXcvKk2+4Nwz1g+eFhuXvG1At6bBdFGy1ZrRQDiWp/ljxAOt4TNzp5StGaJot0FwmaDkuUMVikWw2Tyab5TCdIX2YJpfP12c7lSsVtJowaqlpWh1odU2r15c2g1NH59j2FPRz1J2kqqqIbmSZYDCIooq63FAoSCQcIRqNEI/HGBgYYHAgRSqZJJlMEE+Ijiove21ej1cu4rCFO1RRE/aUe6V6MN+IpvbR80eJp8tlpa3C/Oa6aamNG+q1A9RONNR+BlV3gaYrLluVMCyHbdUlJ6kBZWUZkgHhCRD3i8WqXEEpoBXIujqWYZjohoGh69RqNUqlErl8gWw2R6FQxDANioUi5XIZ3QHiSqWGaRroho5hOOGb00zhvmarTXbMSSRPUklWFPxONBMIiOL6YDCIT1VJJJME/H5C4RDJRJxkIkE0FsXv8+H3++rge5K8dBUZqWmLbH1Rg1UHSPmg29huiBtkCUKOVjqXsPtirblErBNmeqOhnvK82/njguplMwXLFgtVsFUh6BuW1MBXJUlqWMCyLAB1OgGDYSEF+OSrCajHMUn3AjBME13X0WoamqZj2Ra6M6zOtEyqVQG6hm5QqVaoVKr1y9u2LCrVKtVqreX7+1SVaDRSXwPuDKZoNIqiqIRCQcLhED5VRXYA1mWtAb/Ixvt86pXLxncCpDVDdDltFVoAqdQqZ2ETUiUSAZvxGIyE+wdM3Z9mZtouQ/2oNNROANYFVffi6IfwywusW0VRt2rZUsMKlpqCK1mCiB8m406plZO8ui7XdbNE8GH9qmPWrBtYlvhT13WPZmuh68YxF5Aorg/4/Q2NIIqiEAwGkCQZVRXlYK1C9uYusOsEpm7WvgFIW50fz//dpFPUL8L7fgDS08C0nRD/hqGeMfvfL7PJLdvpe85KZKuiRtWT5z6aWuYBV1kSQwHHozAcER0nPvnq6aztsNnTwNebBPOa5bTzu8031uPA8zqyUdsW0ZFmCg/ftZyQo06CUncVqjLEAzZzSVF33U9rxlsWddoo6HYkgI9KQ+30sdv257LVfppRrpmwVZTYyEtUHH3ValjPHwKr4ngJDIREuVU8cP1YayfyQbsX0FUuXeqWPlrSRMZ+tyQipROONK66r8iipnQsIgr0+2Uqhbcv39VLm6/7dqKKj5KhHsdI230MNDDVftBVvWy1oMFOUWKvJFHSwbBsbPtIArCPubt6WetIVBj1+uSrncS62boLopopOps2803+pCdGBjaKLBFSbYbCEvNJm6i//1ipC6Zu1+RZAbR5u9FQ23y+uQKgXySARmCV2StDRRPh2VH9uaO1tio6l4QEEHPKroYigrFeN0ngZusgpK/CTkH029fMU8io80BCJD+DKiSCMBO3GAj1X5TSqmD/rAD60WqoJ7HPToC1GVT7SQJwgbWkQ7oisVuUyNXEBWEe28raOok1GBaNAvEgqJJgreoNc71+TNQSIGpaUDGEX8RB+WRtVJTtNerzfkXUQU/FbSZidt9N8XXlHW/Bvus610nC8EZD5eS6007Cfq8G5+qqXlDtN33NsiFXhZWcxEFZJK90q7Eq4AhTWzPXiA9SIRgOw1D4CFgV6fprrtcdRHVTJDd3iuLPgnYKDW24HCQUycanSMQDwg1qKNyfQHpasf5ZQ/uPlqGeN9Q/DmQVRelrttogB9RgoyCz5Zj4HskB0lFbpn0ErlLT5aQ4zDUVFAmtRPCoUkBxAPZm68/NssWPboma0YLTDpqpCBD1djI1lt7bR7lNT0SjyDYhBZJB4ek7Hu3f6anN5VAn2e/daKhtMNTzMNF2JYCrwFa9csChY76SreGw1panBLdhwPZeUO5kAVkMEhyLHgGs7DgFqcoNwF4qA7UFC3XbQEua+NktieF3HHe68U5mbbQbVKQjfTQZgLmkzUCoj8dQt2Cl3hrlbob4Nwy1S6F/K7bqNgH0UyXAcRedcEuX2ciLvxuOltbQ6CId2VR6dbNmaSDsE4w1HhAgGwuIi9CVCG7014sN4Q0HQKuGAM9cTZQ2pSviPLcBQQ2PXDtCvyz00UQQpmJCH+3nrXmI3kmstNvM1N3vRkPt0mMvW/V2WPVz7aLpWAZmqnBQltkrfSgJNDMWqQ0bPFmCqF/or0Nh0UwgS0c/iiQu2Bsm21mEYdpgOTc9w9FB8zU4LIupDluF9sDTbmgAOTrPsiShykILHQjBeNRmJGwTULkSQHpSbWk7wNgNBnstGWqn5ijdfN4F034tsToNXA/KEttOhYDLfgzr1FN4KsCGVMFkI35IhgTgxgNHACvdAG2D5un+uMBZ0aGoQ6EqbniHZ2CfLTU/J5z3KxAL2AwExU1wKGxfiePVqq60E//Sbu8nO65jVx5Q3QNarVYbhr+1C4zHPT6rZOCCqrch4Kp029SZa0VivyyxV3JkAdNhSfZJwOqOsmhBcJv+lOUjYPXJjUDrFh/UGa10NE5YvsJVBs2A6f0xLcE0K4b4syFsb+N4fpBdOgZQXRANODWj41EBpLGAfWWOYytGetyIkm4y0HY11MtMUp8bUN1fd0dr6Lp+4Vn+dvYHHMch3wfVAFdmfIUt2FFBE25XRU0iVz1iri3Za/MF3gaLbb7gA+qRPltnszKEVaHXBlSQXdBt8ackuVNQGz9B82Fv9VwrEDztecv+8O/u0EX3sWULoCwb4pi64Ok+rhlnWv2NB73FZ3W1bNmZ1ZQI2EzGhA9pv4fzJwGpq5O2IlBnBcRuaKjBYLDBoezKAGrzr1mWhaZpaJrWdcZ5nsfuRIBWMsBV9L4s1eDQYa/75aPQ1LAkTNs+ZnaTBJJ9NHvAPh/LlB3Q9YKv+/eQ2vhvDb+jNOK9LIvnTvq+7jga7++Z9lEXkXvTqRpHYFoxBEC6rFMzuwAmXgBt0Lgb72QfAqgI48OqzWTc5ipux+mkrsFNu4zzohmscCMLXupY7zMBaqtfcQG1Vqt1pKF2q4zqpOfdcMAFVrca4Kox1uMBFg6rMpmKABa3auAkieCDyNTbZGDbH2f3wFFZRcNxkY69qAVwuiY3Plmw+aGIANCpKwqgxzFSLyvtJrPslgQgyzKhUKjlvr26xjsG1JNGRbuAetHJqPMwYLfMyu94bXorAq66o5ELsAcVyFZliproxHEz026NpGVz+khnV4vteEVxtt8790qmVRlnh6H7yVKI4jBPFzwDqjNyOWYzGBI2edfjvvIhkHYyfbRXIX7zfoqiEAqFzg3ePQPUk3Z1TQ/K5fKFM85uPO8aWTdrrJepv1wEwGqGCHkPK5CtSpR14YxV0T3ZbBtsWyxQ024n+9JorN0g2dblRPtEcVf8rfH3P/yz0bWr9efwXCxNT5/8ex9+D0kSf1ckG1mWkJ0Q3q9AzG+TComW4MGwTSJwHQm63XKEcye99xexX7sMVlVVgsHgudluTwC1nd10XadSqXQc6rfDOLulvx5XatXKJvC6+nC6umNZl+ostmqKSQT5qnSU/XaiYNNN8jiPr+LmJsBcr1DJSaDJsjuwzq5rv0fVDzZD4evDPE8CUVe2a9XhdFGaZzeB2DWl9/v9Xfk8Fwqo7ZJYl6E2g1evsvrnZa7uHc5ran3VddbzgG3NtNFNiUwVqoYweclrgglaDvFz/7Q5yqbbHP3dyxGbl1Gr51qBYKvNa2/oLeWSPH/3PlYkAZg+WTDNgDPrKxEQZUzXGTTbYaO2bZ84FrwfGOhJm+tG5/P52ge/C7imTwXUTiRWy7KoVCoNrjK9SDp18nw7j12TheMSWNJHbvfkSgki2y5hWkdWhWXD/Tepwc/TsqBqNmXrLcGMj9ctbYLqhwG67KkgcCchuG5LimQT9pR2hX1XrzzpIkG0GUxdNtqsj/aTNtrOft4a1I4AsMvX8omA2mkBgJuYqlar5wrLzwKI3QZidyicq7N6vQK8hcPSjZfezXaF2OhxdaT9DJzd1E8vGlSPBdSz1vvrut6QmDoPU+wWkJ4HnN3NKwe4YNvc2noDrjdbv4Not3xJ+0lDlSSp43D/okBV7SaYutRbUZSGDorLKqM6DTQ72V/XdXRdR1HE+GLXhMHrcHUDrjdbP4X0zc5Pnbg/NV9z3n83LeFtUDVkJCCo2oR8Nj75eIA6zSzlpAnIp+3XairuZW0fMNTztvbbtk2tVjuxHrXXDLVbr9/82O3McEuvbsD1ZrtsEHUfm6aJrutd10ZNW1hP/l/v/Lw8VFBkuDto8u2kwf0h89hZaBeZpGrVIXVZLFXtJpi6H6pZGO5Vlv+in2/+TIZhUCwW65JAOByuSwI34Hqz9QpEj9NFWwHYScyznf1yVZm/rPv4y/pReH1QkSjqMBE1GQyd/plPug5O+1zN+7llj924rjqRMDoK+c+7uV+yuZbtuIPV/Pxxj0/av9Xd8KTnW80CP+6O1bwIvA7k7mYYBrlcri6QBwKBekLLC7DNlQI3AHuznRdEXSbaSltshyF28lxBl3ifbQyvNVNiu6hwUFYYDHWPER/3Gbz79VO43wCoXbJFbQBUXdcvLHTv5fOdMmtXb3XZut/vb9Bc3efdxXADrjdbpyzUXWftaJUnrd3TtMrmf7eOKXUTLbl2S/Jx0uudd79WEfFlslS122DqfklVVess9Thmd9LJO8/z7S6OViet+flO3q/Ve7iTDKrVar0My/UScG8+Xlnghr1+3AB6WijvTSy1y0DbZYynvV67JUznZaDtPud2R13EuTjrtXdhJc/ul201DqFXWme7N4puaqsnfQbDMDAMg2q1WpcAvBUDxwGsd1HdgOz1BU/37255k5eNngaI59VG292vG4y7Gxqqe60oitIV7bNboKp2m516P4wLGMeB6nkZ51mf70RzbffzNTPwk06G96LRdZ1qtVoP/13d1XXD8v60YrE3IHt1wPM4AHUNSFwAbcXE2mFsvdBQz0KsLkJDdVtNuxWqdwtU1YtcQC5AuIukF1NQL1JDbYehnkULch+7RdeVSqWhU8uVT7zZTFeIvwHZ/maerdaEe55bTQY9TRM9bb/TSEWnr3ca6TgNiLqhoR7HYJuTUf0AqupFLSj3S3tZaquDcpq2elGaaztMtdPX7eQO305ZiLcExtv26ib9XMD1MplWOmw7DOdmO99ad4GxVXG9ew69ANqLVs7m3zEsiWxNoqBJKDLE/TYxv91y1PhZNdSzMt5OR50c5yp1EaB6KQz1OHBxs9ytWGqvtdVuaKPtarPd1rK8XS/ufl4pwGs/6IJvM6B67+rHabI3YHt6NNTq37xhezvTP3ulebr7GRa8zij870+C/Ouqn0TA4r/d0vifbmssJM0PQLVdzfM8ZOss39PFlJNKpboNqp28nnqRYFp/Eyfx4mqF3agjPY1ZXlaWv1saVTuaVzMLarXoXKnAlQaai6BbsdmL1NT6CSRb/ftx3XWtXOybWedxN6qLOv+d7LdbVvg/XgT4y7oPy4ZMVeb/fBvAtCT+t4dVxiKdMedONNSzaq2tHnujsm7rn33BUNtha96Mv1ub2i8aaDc12tM0qpNA/jiwPuvruTqd93h7QdPbYeJWGLgM9yQwaKXV9hPLPemcnbYeXKB0wdJlnid5hHZyXrt9/jvRKA/LEj9u+9A8NaT5msTTA4WSBkRo6/XOqqG2ezxOIi9utHsZ66tdgO6ZU6TrMdqKTXUje39cuH3a4jiJMXf6fhelGXWzbrDZC/M4japV04E31PLu087YmIu+CI5LCLnssdkcxAuaXv3zLO5KF60ZdkNDFSbbLX4PUOTOqwZ6raE2r79uh+rdej21W4u4E1BtHpNyme5S7WqoZ32PftHQ2v18JwHtaQv+uLExJ7UHnnaBtLoZHscYO2GS7WjfF3F8++X8d8r0L1NDdaMon8/X8Xfqdeiv9gpM3S+mqip+v59arXauOtJ2H7cK986S5W+nCqHXGupFPneSjnXcv59mD3dRTOwsjO0iX6+X57+T/c6qZV62huomXc8Kkt38Pqe9ltorMPUyEldPPa0+9aI11G7PqDqPhnZRdYOd1DWetP9ZXq+Tz3fRPd8Xud9lnv9OPr9N+zmF82io5zkezaTFxYtWx7kfmeqFa6itDqiqqoRCofr8qYvq3W/HveqsrlPHXRzd1jy7lSXtFmvqBhO5qgzvMjTvrp1/qbuaZycM9TzHw02U9kM43877yt0AyLNsrims24t7HNtr5/njagS7WZ/azvud9m+n7Xfad+309U47j+2+bqf7tfu+3Xi/k9ZIu8f3ovfri/M7b3pxAAAPD0lEQVRvd36dd+qJcd7v2Uxa3DbsiyR3l8pQzxPqt7o7uQerUqk0jEy5iN79s2qo7Wb5uzFj56wMppvve1Gs5WPWPC+awbZ1/tskcr1mpsd993bBtN9YqnqRb9gWonvC/+aaycuagnqex/2qoXVb47tuGmqnx6Pd83AezbOr599u71o97XichZl2cny91p8XoY9eNACr3QbIs4CuC6pAgzNVOxpqu73+nXRetdJc232/Gw31RkO9aAZ9qRqqdLxOaJ+TkQMNzPSy+/LPsl3I7IBOet29TNXVVDvVUNt5/jw3iU7e70ZDvdFQr7OG6pMh6v9QTZAlG8s++/dsBtOzXKO9JoctE+799GG9mmon2f92tNV2evdPu4O3w5RvNNQbDfU6a6gxv83yoMG7rEzVkJAk8dytpMVYtPNIDY5GJh2nmba7vvuB0aqX8aYngZjLVJsTVd3ySz1LFUAnmutZtceL1gq7rXl2e79O6zzPMnvoY66jbZehniaBxfzwh0kDG3h2oKBIcH/I5PMxk5jPqiN3uxrwaWB6UWB5UeCrngf8uhHqHweq4XAYTdPQNA3Lss7tl9pO7/5JDLjVdzhOQ233rn+ZDutXSfPsB4Z3EYy3p+e/A4Z60vtKwFjE4n+5o/M/39YwbQlZdn0COluDrleyLMtdA7hes9Tm9+uf+astDnYgEGjpLnOazVo3NNTT3NdP0lBP0vba1bw60Z462e88mud5Nb4bzfMSz3+HDLWd4yE5k05lOjse3t5818uhW2SsW5HypYf8F3FAZFkmGAwiy3KDocpZGOdpz5/Gak9jxP2UBe42M+2EZZ7n/XrJ2D42RnwaQ+1VDsA7xeO87aT9qKWqvUbws7Aml6VWKpUGG7Zez4zq9iypbu7X7gXSaw21m36YZ3m9Tt+v3fe9anW0pzHUXhxfL5ieFQz7sZTK+5l64tjfzj7tuP6Hw2FqtRq6rtd11eZQ4izZ/pMYaTuveyU0tBsN9Vq6TfVaQz3r8XDB9Li+/MsCy26/Z99qqMdJAIFAoKFe9TxdTOft3b9SGtqNhtp3Gmo3jkc3NFTv7t0+Hu516yafzhIh9kJe7DsN9SIZrvekeeci6bpeZ6vtaKsnMdSTZkm1k+Xvew3tRkP9qBmxLImifO+mSOBXBNZehIbqgqk38XTdh0Cq50X4y7hbuOGDK3K7pVUX4aPaTp1rrzW0s2ii3dZGT9qv3c/XSd1ot/1hL/t89bqOdiRs8S+zGocvg+RrEooE41GLbyZ04gG763XULpieRkauk5baNwz1rIzWdaWRZRlN0xpGLJ900o+7uFsx1HbqXPuVQXWLeXaLgV51zfOsDLofjsdIxOZ/vVPDsCT+bc1HPGDzLzM6/+2WxlDI6urxOG5y7mXgRK86rOrjWizLsi+SoXb67yfVdbbSbLxjfd0pAM2zhbrFRNvVYC8CEG/2O7+EcdYhfGd53348HrYNmilRMSR0C4IqxAN214+Hdxx582jy4x4f9/nPK19163y2+xp9DaitBO9WYNo8ydP98c44Ou84k9MeXwQAdJOZdvK6l/F6N4B9dY5H837N0d0NoF6gNtprQHX/zZ1Lf5wfQDe11X69wPv9833sjPGqH4/mZPFpP90G1F7e0Nt9DfU87LQftuPEfHe4lyzLDWy1Ew21FQttpa3eaKg3Gmq/a6jdOh6tpLdj+/47BMfrsF1qHWonwH1W6q8oCj6fr2Wr22m67UmM+bjX6FbdYLfrLdt938va76b3vv+Phzfy85YqnvR+nYDoRQBur8lh32f5251MetrvuozV1VdPes1uZfkvq46y3ZtPt+tar2sn1VlD9utQR+uudW/LdyvmeVJm/zxA2avyqG5l+tWL/pC9Bt/j3t9dHG79qnu3ba4IOIu2etK/XXYd5Wnn5Kx1o62YyHXxGz3L8ejX83/W/bx5CfcaadY/j/senQDTdSv27zuGehYX/dOYYzPbdE+6LMv1O+95pq5ehOZ50yl19RleP53/do+vl416q2RO0knb+QynAfF12Vpm+S+rZOo4tndSX32rn1b/7i6Uk7RRL7CeNC+qne92FbLAvfx83QD0bgFTv+13Wee/lXbqTeA2g+BJWftWz3s7pY77sx2wvUqlU1eiU6od1npSXVwrJttKG1UUpV4VYJpmfZ92s/z9qAFeJKM8L1u+CoztumvArYD0NAA8jaG2y1q7DWY3DLWDKZrHsVRvOVQ7DLX5tY97D2/Y46117VQb7ldG9v+3d667jqNAEJ59/4fO/FhlFXnNpe/VUEijOScnjsExn6sLaNAU0mmKEf37/wXpyPfVKNSVah09HLSwpUJ1VqmrPKa/N9CbBzpSnd8sOd8b77tIYPRAoIdKDxX9+39aWyvISWC6C8fTfdQ2CnXke67W+T9vpJlHu1rP/xsafW9I6aj4rR7qyUsvka/vb66L2SDTCqZfkTFb8bSCr0addlOooUDdgeas/N4Ab+H+M4wfgXRmA6wGvmZP+d9/K5+3qsNqQNXZyuAD4P0eHXmhWoXqAVMkoHqpZmig7o60S6A681F3s089Yf829eppKdygtLhWvu56PPNYjEbqVwpV45/uKNYImKIBdZgcJTO5tEWlzlToDLDa0H+2RPX3tS9Y3/IHMNtUvxC/ykLZ7VtvIf0IWJpQ3wOmVUC9PtvUjkodQVACVUnor/l55l9Jtp2OAiznjfa7Hs/51G+r/EaKUAvSVRg/e80K03b+KWI+VItKnQH0+X+kSp3B9ffcb+9DmB6V7aEyZB/X63nPriCqAWk2TAlUcJX6hO4uXFfQ9QDrqH2jQQOPWQP0UPsC+XlPPx/AqzrsTKqXqNPvBnsriI7eYwFqln96HVC9oDoCqnTEXwvWGVyfHcgLsPRQsT3UUTISaX08/dKZF5oF00ygesH0z58/OUCNVKlWqP4eYwGrF1zfLILVeemh9vFQRzkkNACVhvUzEN4K0zSgdlKpEqiu1Ko27NdsMS0F7Fs9pdm56KHmPQBWC1EsvqFGjXqDVApTAjURqBlQlahVb6W6A2HtQ2j0QDhR4SEq2dkCEAs8d+GoCfF3wvwbYAoJ1GyVOnvvbMsSjVq1KFVJImrvazhLLoOmUDuE+LP7bQecFhhYISoBokSVjo61wLSzOl0CFVml7kB1F4Q7q6+8lapUcXte11U7pE/3kzxPyXbikQpplTZPqmC1IPWCqScICVRnlbrrS3qC1dNTlTwMtBGDNcKwbl+Drkw191M0PFfhska1jgC5Cu0larcrTD2A+r9r7wXUbJUaBVUJWL3gqgWsFX6Rx2kV7wwSs0G4t+lIq3A9stNpRud3AWpRqTO/U7LCSpJlv2IAs0KdbgH1BKh6gtUKVytgJe/32CQxe6PF7OKtUCQqU/o5llDfoki1qtQbbsiDUaVAjYKqRa2ufn87ZraE1AJUracqPS4Tlt7nykpSrFn6qFFaEUDV+KI7CnfbT0yGabY6VQO1SqVGQPX7d+9pT15w1VoCUdf6ZIVq3UfeAgIrQHchqvl5xwroDNModVoK1Iz3SdSqVUmO4OoBVA1MI74vrSKN+PwVbDJVcIUiXanHqLmrnt9FZ5iagdoFqprOvDNnU6s6Z3C1KNYs1XqaWtV2pmg1ugsmjzC+GqTVIXxLoCJBddcGsKrUnd+lgPW2AKqVa2fIem/VoYGe16R/C0i14f3pMBUDNbJDRkBVA9Y3xWoJzSVbqUQDNeoaV4M4upN4QFU7Qd+iNKXHWFdxocO0PVBRoSoNi71UpGbllGe4H2UFIKrZitBeAtRdqFmtgR1VmQHSk2DqCtSuUNWq1RlYvV+TrOBBASq6LRDR6Syh/U56u8jXJGrUI7yPDMnR1KkaqChQ9QKrBjZWwEWA2DP5DIFqA+quorPA0mIlZCjSE2EaBtTuULUo1hVcIwGr/YyMgb/uQJXAxmvCv3QurMdaf+k1iFalp8A0HajRHdbSwb3gGh2eW3YAiLgGyFDVqs2ovY68V11p7INoRYoGR+/5yaFAzYBqNVg9HgKaBQfewPSGY6cpVdlhvxaenqF9phpFhmOmOnUBKipUq8G6qzQztuG+0TtFh6oUrNZlslEQRbQEqtSpG1CRoerR+aPh+vxbVcYuAlV3jDd8rXvRR4f02ZDrAtNyoGZ35oh0dt4q2ALZjLC9++ophGk/3kmXO4A0S5VGwLQEqBWgQ5iEngnY53srZkKcVKI7rHXOJwpAKwDXEabuQM0EStX5MqwBTxCieqPS8yDkP9WG6ZFtQsq6dTtMQ4BaBTnE9eeRKewirjEn9f8DBZYqgEYo5Y4wVd1Dn38LhApBUZ2RoLBsBldtZ6B8XtWAA4JKilTqlf7qCTD9D6ioHfxksGYp2SpF2TXjFFIHzmhTZqYuZOXvBvdfeYqqmlDC+WxISAeeOraxu03gca7Mc6JAFOH4EMA/4/1ToYoeDkvKM4dqdUGFcDao0MCJbGsgqlIXyL8ZqMhhJ2oojwKVaI+WZd4J0SCO9pmoqtStfdlARYNih8GhyDoRvPKOhQJN9PAXDcYp7RwN8XeAaqcwvhu4kOb3dg8ju9kZiLMe2rR3Nmcqo2OgKs1Obe8M367QOa0dqFPRotvu3u6dSahd1GpUXTnSznLiAwDVZ+0K022gdlRsJ3qjBC3BiXruTiANvQ6SZVJdw+CbvFFClzZDVn2QV6yVXRM0oHYP3TsAjdA9A5bHhMkHrHJTAbWiM3YP3U+F1w0Jptmmc0CaZiVoMqNUdKaTwnYqRJYOD4QOfiucnWBJNXUaWKthR9CyVKrpjnYBnJK35u6rgsBNITtBS2i2DoMPnNUQBtSbVF2X5aQsBCdE+Fvc9hJrwTO7dHXnvh2uhO+9kIRSaReCNASoN4fIJ8Pq1LadOPJf2S6E61kO86j9T9DS2RFELFTM5z6UYOrxCe71SFAh5FkIzrOUPdzKtE9C7+ZgDiHL0hwUFw+uwQEVHRisGwuhwLq1AmoXQHQCGGFLaN5WV/j6fYp6JZOIsB0EJdtwXD0/xb2NipBtZYdlO4+p7wek53CiPAsLgdS+3h8wKnSHFCHLQhBdXP8PKAHoX7KwnA2fE9sCC9STgUTIstwO0FPbBA/Um0BE0LKcCs5b2tcKqLfCh6AlVNheApWw4fUgKHktrip/ASZxJmHaa/riAAAAAElFTkSuQmCC;" parent="1" vertex="1">
          <mxGeometry x="1710" y="1040" width="236.69" height="252" as="geometry" />
        </mxCell>
        <mxCell id="Qs4QEQBaAsP0csd1ogdy-103" value="" style="shape=image;aspect=fixed;image=data:image/png,iVBORw0KGgoAAAANSUhEUgAAAUMAAAE2CAYAAAD73PB1AAAACXBIWXMAABJ0AAASdAHeZh94AAAgAElEQVR42u29+Zck2VXn+b1m5mtsuUTknpW1lyiqS1sJIUArSAiEJEAgMRIHmp5Dz3BmzvT8MPPD/BfDzJyhgelGoiU1MDpII4EkJERLarTWIpWWqkJVWVtW7hkZmbH4bu/OD8+e+3NzM3Nb3c0j3q2TFeEe5u7mz8w+9r3Lu4+YmWHMmDFjC2Cu6wIAbNvO/b0tM7zGjBlbJCsChAaGxowZWygjosLe28DQmDFjBoYGhsaMGTMwNDA0ZsyYMQNDY8aMGTMwNGbMmDEDQ2PGjBkzMDRmzJgxA0NjxowZMzA0ZsyYMQNDY8aMGTMwNGbMmDEDQ2PGjBkzMDRmzJgxA0NjxowZMzA0ZsyYMQNDY8aMGTMwNGbMmDEDQ2PGjBkzMDRmzJgxA0NjxowZMzA0ZsyYMQNDY8aMGTMwNGbMmDEDQ2PGjBkzMDRmzJgxA0NjxowZMzA0ZsyYMQNDY8aMGTMwNGbMmDEDQ2PGjBkzMDRmzJgxA0NjxowZMzA0ZsyYsRmYY4Zg8aznApd3gJduMXZ6wG4XuLwL7PSAy7sMkNyu6hBWqgADqDnAclX+PLEMPLROuP+IGcs01hXAhR7j6bbA+S5jWzC6DGy78u8dZmwLoGYBGw5h1QZWbcKZivz93pqFDVv+bszA0FhC+G22JAC/dwl4/BKjMwBafWDAwEAAHXf0EwCYAMtiOBYAAiwCbFv+rDvASo1xpEE4ucy4/wjh/sOEc6vAStWMt9+u9xnf2xO40Qde6QPPdgSu9iXwWoLRByAA9L3tXcjnLAJqFsEhwCGgYQGOBSxZEoQnK4Sfrlt4W9PAsQxGzMxmGMoJwJe2gO9dBP7lBuOlW0B3ANzqALe6w6MHEIExUoMgqQSjH8vXWZYE41KVsVwlHKoDDx4lvOsc4f7DRv091RL48i2pAF/uMXoMtAVjTyjw+cafRjciNdZhx0OCElixCes2sFEhvLpOeF3dxuvqFlZNAMvA0EBQQvBr54FvvgTc7gA7PUbXHb/Qxi449ZjUBRpwAQZt79uGSLrSZ1akG/26Y8ADhwknlw6WCvz6bca3tgWeaTOuDRi7LmOA8XFmDXbBx4PDx3vimEnFuGIRDtnAfVULv7Zs4W1N20DRwPAAQnAwguA3XmRstoDb3agLjTIrwyE4fRcqEdCsAIfqEoTvOEt451na1y70K13G3226+M4O44UOY2vAaPMktMbGzzsOkeBL8fqqRTjmAA/WLLx3ycZbmzbWDBQNDA8SBL/5oowN3u4wWIMdwFOV3egxh1yA0UpmtA2P/d2xgZNLhDccB37pLOH1x2hfjf/2gPGdbcbnNgUe3xW47QJ9jjnegcqbpxyfYLXOAcehRoRjDuHuKuFdTRvvXzJK0cBwn9puF/jac8Df/kBC8Fabwy+WMPBlUYZByiRge6UUTy8Dr9kgvO3U/oDiU3uM/+eSix/tCVzrj5RguKILUtY01SWeejx0pR9wPBwC1m3Cmxs2/s2qg5+ukrl4DAz3j13eBv7uR8BXfgJc3Q2/eHgYB4xWiMGuWDBYYytDf9DfklC8a5XwnnOe61xZvLG/3mf8/Q2BT18XeLnLaAvEjvVxTKUd+D4R6jJK6avPWrIID9UsvL9p4X1LjnGdDQwX3y3+8WXgMz8AnrwkEySR2UgUFTMMAWXk6+Xn2Rbj5BLhV88RPnSvtVBAfGqP8ecXXTy+I3CtxyHKD6GJjklljeQudYQy5ykgrljAGZvwniUbH1l2cNYxKtHAcAHt5h7w5WeALzwFXN0BOoPwuNPsY4YcfiEGvJ9FwLEm8PMnCb90mvD6jXJflF0BfH9H4GOXBb51S6DDQep7SrY+hgudJmY4rhB56usIwCGb8Ka6hd9ZcvC6mmVUYg5miq5nZJt7wBefAj79pPwdY+zwrkzm4Q91UUEF89XFy9Aee8oC4/czDnhb9Vr5tKYs2VMmOhx8+z75fgwXhKstxhdfZlxqEQCrtEDsCuCJHYG/uOji0W1GR3iKmr2bjT7uGBuaQOOx46XeZzRGY8crxngOX0Q8+lwegY99r2UANwXjn9oudgXw+7DxxprJOBsYLogi/OJTwGeelL+T/8Ig+QwRyWtAqxlkIpDm1rK6QGgkF7wthq8hn7tFPleYQKPXe4+H6kZq0snXa8pSvV6AsDsAnrgBtQelA+L2APiHTYGPXXRxqcfoiPHxlt+bRuDRlJkOItL5RTQ6bmPjicn3wSTQyKcIJ4+HDuJxlOrv1Wbgu14BKoHwM0YhGhgugiL8jFKE6mTWlZ1SFqy5XEM1F6QMR0piTBkGKUFd8fiVDTSXLkjJTLyf7/O817UHwGM3GF1B2BlYeNtJKgkIGV+4IfBnFwQud1mOW5AS9GGHfeTxK8ShokSAsvYrwwyvn6YwwUAbIyCyUYgGhougCBUIh9eYT9np8SGJm1HpBvlihmNKQleGCZWdrkQClaFfjegK1qeEOi7jyZuMgUeYeQNxewB84Qbjzz0QDr+3pvPIF5cjr8yFgEmlNzYevvcZU4bxXj8a6UllGfg+PnWqP2EUooHhwinCMHfHHzOUDPT0l081liVmGPT6ngv8eEvg48/JGOK8gLg9AL5wXeDPXnElCCccTl2Ra0pR+47+mCGNKUdfzBARyjDOeGoxw9HPYJCGmQ5EoxANDEtju13gn8+HgzBKcemZyZEyYPk3TyGORKEXYxyLGSolyIXHDPXXq/fvCcZTtxgfPz8fhbg9AL54XeDPL7i40uWxAG34eE+PGerjkDpmSHFjhhQaM4wLxDoR3lI3NDQwnLOdvwF87odajJBHF8BQWegxv6hs5PAxx44ZVm3ZcKEnZI/D4Jih9jhjzNC/v12lEM/PViFuD4AvXhP4swuuFyPUFLRSsMgQM9SV8TDmF3y8al77rm2Xp7x+XJlzAoWpx5UVqVUM8eQe4dVV4y4bGM7Rnr0O/PXjwMs3xxUF/DGnoJghksUMazbh3GHgweOEow3CkSZwtAms1mQXFMGy5+GNNnCzzdjsAJd2GT/ZIlzeG1cywzpDIF7MENExsp4AfnyL8TcvCixXLDyyTsWD0FOEoxghJhVXaMyQhwo6bszwWMXCG5cJd9cIG17j1hrJnxYBNgGbA+BCXzaA/XGHcb4ncN0FtsUoZjg6CBiVVE1klcNjhsMvosUQv9pxcWaH8AcrZqaKgeGc3OPvvwJ8/4JstBpmjJBbfIw6w6oNnDsEvPEO4OHjhI1lCb+qDVRs+dPRTn7hxfJ6LqEngM6AcLMNPHOT8cRV4CdbjEt7KWKGYcpI277nAk/eZPzleQGgOCB2BfCNmwJ/9pIvRkhh4x4SM4xRZ7hRIbx1lfDGFQt31ywccYCmNWriakPOJVbWZ6DDsvnDjgvsCcZ1F/j6nsBXWy6uu4zbIlmdYRy75jL+qePidTXCW+qma2wcMzNQcrLeAPjG88Cf/jNwbSfOyI/HjdRz4zNFZJ0hwKg6wE+fAN7zAOHuo8CRBrBSGwdfXFOK8VYXuNlhPHoF+PvnGZf2kHoGS1TXlroNvH6d8Hv3WnjkKOUOwq9uCvzvLwhcaHPidlqTU+AmX1+zgAebFn7tiIVXLxHWHcJhh9BIqbj6DGy5jPM9xrfbAl9vCZzvC9wWiJybPHEspliDgDfVbfzRioM3mfihUYazshc2gb//kQThRIxwImaI2HWGVZtx7jDw1ruBt9xNOL4su1NnMctr4rpcBU4tE+5YBV51BPjii8C3rshmsllihn6l2HYZj28CTJ5CzAmIQxCed3Ghw5OKNqg+M2HMcMMhvP+ohd9Yt3GiQljJQWRVCDjmEA7bhPtqhDc3LXy9LfDlPRdPdUWiOkN/pYH+sy2Ab3VcHLMID5r4oYHhrNzjH1ySDRgCY4Q0KQrj1BmeXGW856cIP38OOLoErNXz33eLgEM14A0nCKeXgdceA/7xZeDx6xwdMwzLngbGughtF3h8kyFXC8kOxK4AvrYp8MfPSxCq3ZvcL1+sNTRmOF5nuOoQ3rhKeM8RC48sW9io5O/iV7zWXGt1wp1VwkM1widuu3iiK3CbOUHMMPxnm4Gn+gJP9oTJLhsYFm8XtoBvnpdrlMSOTyC6zvDOI4wPvobwC3cVA0G/VW3gjlVgvUk4sSQvwieucXjMMEWdYmeQDxC7Avj2TYH/8KKLCy2t44svA5Q4Zuj9abVC+NUjFv7bEzY2Kund4aRQfHPTxtmKhc/vufiL2wNsC45dZxhlz/YFPrvnmuyygWHxqvBHl4F/uZr8tUGKq+oAD54APvAw8NrTwNIMW+1bBCxXgNcdk9npr1xg/O15xk6fY9cZBs5g0eJcHRd4/CYDKV3mrgC+d1vgkxcFfrKHsUzq1DpBTK8z3KgCv75u4785ZuHUjJuoNgh4oErYsGVH6z/eGmA7h5C+UYcGhjNThd8477XjCosRxqwzrNnAvzpJ+OBrgIdPZY8NprW6A9x3CFitEhwL+OtnGTv99DHDcQVGaLuMy21gq5dcEX7vlsDHLgg8cUug71eCoTHDeHWGdzcI//qkjbcfKsYtjnVDglSJv+0FJ//41kBmmxGvzjDssVGH8cbeWBZVeGlSFU6PGY5NIwF5/915lPDBV88XhLpKPN4E3nsX4UP3WVip0riiGslE/atMPsYoJqpev14jvOOEhTckVIXP7TL+8mWBx7YYHZdG76uP8/iujf5H2n54GxB570GEexoW/vCUg185Ys8NhLodsiQQ/90hB2sWaXuNySCir84w6LGuDo0ZGBYTK3w+Waww8A4PxslV4JcfAB4+PX8QBgLx3lGL/1E1Fo8UGYd/P9Yk8nodeP9ZCx88Z+FQghDA0zuMP33BxWO3GB1XdvUb7seoJHPU8I8j9kNNPGSpcc/UgA8es/BLh61cssV5AvF9yzb+YM3GqkUh5058U+rwtuGhgWHedmMvfaxQv8uv1Ak/eyfwi/eXB4RRClHF2tRqUUpdjZTu5PcFgPU64f1nLfzOnRbWa8lA+CfPu/j2FqPjjiSg3I/Rv+F+6cowYD90hXusCrx33cb71u1SgVDZhk349SUHH1iWQMyiWdsMnB8IvDAwNDQwzNE294BnrshY4US92rTH3nMMxkoNePu9wO+8djZZ40xAvJPw63d5MU4lw5i9GChHKEWpCN931sKH0oDwvItv32S0B1onH/g/11OKfmU4JmLHJeR6BfiNDRsfPm7hsFPeC/QOh/Cepo1X12hcGXLyn5su49m+mWdhYJijbbWA52+Mh2h8wiP8sfa/M4eAdzwAHFsp+YniAfE37yF8+H5rpASHynD05fwxw40sitADYcf1xx59n4uomCEmYoYbVcIHjtn43eNWKWKEUVYh4OGaWhEvoPAwwc+LLuMbHeMqGxjmaFd3ZElNWiPI6XQPnQQeOLYgJwsBJ5vAB++18OF7tbnJvgCdrjvGFGEC5fv0NuNPnnPxHQ+E6p1JU3aAnMs7ETMEImOGG1XgNzdsfOS4hY0FWYO4QcCDVdmJJot1GXhpwMZVNjDMx27uAU9fBva62d7nzGHg5+8pX5wwNhDvs7R+iJMxw9Uq8I6TFj50VzIQPrPN+PfnxRCE/ljfmAQMihnqCtV3A1pzgF86YuEjJxYHhMruq1h435I9rg7ThHhm4CovYssDA8M0J1MLeO6GfuD9J8KUx2AsL5gqDALi+++08Gt3UGDMcKVCeOcpC79/b3JF+H8/J/DtTYGOO4qtqgvMHzPkWDFD+WDFAd591MIfnrYXDoS6Ony45pvq48uqT3t8cWBcZQPDnOxWC3gpql9hjDrDYyvAq08vlir0A/GOZeADdxPedsoaU2SrVeBdpwn/5n4LJxrx3/P5PcYnXhL4zk0hV7EbyszxOdzDOsEEdYarFeBX1i38d2dsnKwt7sLr91UsvL/pqcMEdYb64y6AWwLD9WqKUoWLpg4NDFNYqwds7mY4WQAcaQL3biz2ODgWcP8a4XfvI7ztpDyVViqEd52ykoNwl/HR5wW+ek0qQox30hqO3KjaLn6d4aqzP0Co1OE9FQt3Odm+x23BuOCarPLY+WyGIJntdoEr29HNW6fZ0SWpCo8uLf54VG3gwUOEj9wHrFQtVC3gDx5IBsIXdhkfe0Hgn64xdgfBHZ55TOGMus5M656z6hDevW7h356xFh6Ew/PHJtxXsfD9DLNJ+izrDotShQaGB8DavclFnqbORfY9VqrQ2Se6vGoDP32YcLIhCZQEhBdbjE9dEPjKVYFdbybPZB+/6avZBWWPVyrAu9cJ//bs/gEhAJy2CT9ft/APLZKNHKb0NQz6uS0YrwwYqJlr2sAwpXUGwO32+HNJY4aHmsCdR/bXuFQt4EQz2WtudBmfvyTw+UuMvQHG/eKASbijVQBHWeuxVeg0pbhaIbx7w9p3IATkYlOHLFl/qN80kvzcZeBqzm7yojfNNzHDNDDsZHuPpSpwdPlgj+ONLuP/e4XxNy8JbPUYHDZrYvxyi1VnuOrsXxAqW7MIZzPEDbcE4/l+8enkRQKkUYYJbacDXLqd8Q5E+8dFzgLCv3pJ4EaPxlfno/gxQ7/aIQCrFeDdGxb+cB+DEACWLeC4nf77FRUzNMrwANnABbp9/90v/uOqAywd4DjNTh/4pyuMv3pB4EZnNLeZ/TNHNLUXt86wagE/d5jwh3fsbxACQJMIR2zfCZa07tC4yAaGmSzgGksSM6w7wKHGwRy6nT7wD5cE/uK8wI3uSM755xBP/pxeZ1izCG87Svh3d9r7HoSALLE5avmUctK6Q2PGTS4CiHGtXtnfMAxTCDt94EuXGf/xOYErbR5b3YgjMp/+tWJI67StlmKpWcBbjxL+57ssnKlP7gPtw4vfBlAxUDMwnKdVbZkAuZ7WzRZAp7/4cGNmuUpewN8DX8OAEDJrTERjK7yljRmq7HGfAcGMVYshBI9BUO3npJoPBwkZyBw4F9nAME1cISD5kaTOUHC2gu1ZnMj6c1EnuhDxv0jdAt60DlzvAn/9ErAz4FBlmLTOUAB4chv4xEWBD58irDjj+x71HXTw+eG5MMBMUWcIw3sDw0K85gQxw95AzmIpC/Digi+Pm8jxOvC+0/Lq/euXCTsDqQhVWJD1EETCOsPNPvCZaxKSHz45AmKSsQkaEz/01OM0irPwsE3Sn8YMDOdpRSrDONCbp0ujgPjLJyUIP38J2BlExwz9Eoi01QQ97xpqJeYrXeAzV+X3SwLEJGMaNH7ktQ9TgAwDaJ52WwAXFqQnYdiNw8DwgFueytCvamal8rIC8UwT+PUz8vHnL48UYtY6QwZwtccjhXgiHyDGOQ7+m43uavufywOSu8y46pYzzLKoZkprEtpSbbJFf5I6Q8GyBdiV7XQXHDNDCDH2z3VdCCHGtin1HZiAO5ckEH/1JLDsIJc6Q2aGyyOF+MnLQoJ2TpAIOlb+f2mPV0vIJq1jJ1iCOsMaIXOT2P1mBoYJ7VADOHfY7yYle3yrPd4PMQn48riQirKdPnC5lQyIv3gceO1hDJchTVtnOBxn8lzmHvDp68Anr/DcgBh1XKOObZzjuiW01v0p6gyPWJS5DViSc28RFKSBYUJrVoAjGecVB62fol8gQRdL2VXfjQ7w6ZeA//Np4PHN+ED8qVXgt88Crz3kubS+uclp+xkKVkBkfPKKwI5bzvMpzU3vmsv4fo8zTadbyjidbz+aiRkmtFol+5Kee13g/HXg8jbj+PJss7pFgfDvLhA+9SKwO2C0PfC8/uj019Zt4LWHRorle7d4lFTRdGCafobMwNWuVIggljFEu/zjqccf9ZijZUntcnXAeKqXLXly2CLcVTEwNDDMIqVJtuA6sTqK+yXtZ+gycLvNuL7D2Ggu9kIUO33ga5eBT73A3hQ74AlNGSYFYlcQvn2Tc+lnyCTH+koP+PwNxooDvHd9MYAYdGN0XRc9EJ7uMR7ruunrCxlYtwn3V4xjaGCYg6u8vjyCYZp1ky9tEx5/mfHg8cUG4T9eBP7Tc4Qb3ZEi67rA926OYJYEiIKBPhMev8W+EUvWz1DPSgsGLnSBT12T2y4aEHW7PBD4TldgJ2UfQ0AWwB+1CI0MwnA/ZZENDDPYagM4vQb86FIGkHSAH14mnL9BuGd98U4sBcKPPUtyrjF0JQe03ZFCJKJYQGw4wCNHpEtLBDy2NXEJhtYZKrdY96t1V3vAwAsd4FPXFxuIF1zgO91s54sFrzGsMQPDrHaoAZw7mu09BAMvbBK++eL8YKjgQTRZ4xw6Y4sIux4I//JZ4GrbU2ykA0u+vuMCT9wEyBoBcVptXdMCfuYoQBYDJPDYFifqZ+hfA0UfWVcAL7aBL20Bp+rAIyuEZRteG7Ho7z/0MDlY7c8KhF/qCFzM2KH6mE140LjIBoa5uMlV2bZfxQ2TxgzZky3bHS5cHeoXtf8CD2KK/pgC4LPTB75ykfGXP2Fc8ZY/iJpb3HGBxzZ5CLNHYrrMbzhMIFgAXDy6lT5mKP8ud4qJ0WfCU3sCf3XVAoHw+lXCik2yYzY0KLI+guHdr4ImzHDImGaxLgOPdQX+riXQn4gB8vgdbcrjex3CLzdnD8Oyz0QxMExzQAHccZjxM+cIn/0hpVo3WcayCC9sAl99jnB8RS4snwV6wQ/G4cRjRKTxXoIgHyDH69N2+sBXXmF89F+AKy1Penlzi4NidcMLeQA8sclaDHH6BVGzgdcfJjBsMAQeu8WjmCG0mCGmxwxHfRPJc+EJT+xI5Qmy8Miq5bnMcoCINJ+baXQDgwZd5apr8OcxKPNYbDOrXXEZ3+4ytgQCVHH8OsOzNuEddQuHvIa6pkOPgWEqCAKjTi0rNeDUWrpTXWfVdgf4L88RVuoWPvgakQ5+iG5eLKHgoc3yIEc+BTilk8lOD/jHVxgffYZxpaUudA7pMjO5r20X+NEW49MX5HOPxABiQ1OIRFIhBvUzHAO9/yYQOGaMtiA8vsNgCNQsws+tjXeqIR9QZKzSU5nqzUnGO4bLsPB40scfw0RAIi2ObQvgqx3GlzsCWf2HQxZwh80T5TsGigaGiSGoHtcc4K6jwD3rjPM3kp1I5IsdXt8jfPU8cPoQ4efv5FgAZA73h8fhRjJmpyuqIEhEuMw7fQnCjz3DMkZI5FNcCIwZwseCnQHw6I1RTO+RI9PHrW4DjxwmdNnGzkDgmV1OtG5y0H6o13cE8MQuw77qwrFs/MwKRd90KEBNWx6etUFk1m8SPCoGD7xLjfY1zD3+eofxZzsCW+7I201jNQIeqBBeXbXGCrkVDOO0LtvPrrKBYcRBi5r1YRFw5hDj4VOM565TwpihFssCwRWMF28Cn/0RYbkKvPoU+7Ybn68baJa6SLWLlWhqoJ+mPLfTA/7xggShUoSsTw9J0I9QCMZWj/DdGzz8PnEUYt0GfvYIYSAs/IeXBJ7ZFQljhmq/NAnp/Wi7wKPb6pUW3rgyPZYWCEjyfbCWaRmePzR+Fxubj+0Dovr9J33GX+25uOTy5OFPWF94wiI8UiX4ma/O8Wndd4wyPIAA9P8eZoebwKtPM771AuPKDiWIGWqxLE9r9F3g2RuELz8rsFQD7j6iuTFerGt0Xo+7uWOxKd+HccC0tqjECYJA+LSXLNE7sUxTZL7Yo1JkgoFbfZlU2agDD6zF6yyzZAO/sE7oCsKfvEi42IlfZzh67Is5en9rCwVEAYDwRo0WNIWKHApJCmrJ6Ivt8kSWWhP0+HGP8X9sCzzRHU/i8ETMMN7Psw7ws1WKdf7ravGgQNHAMMIVnjp4FnDPBvCGOxmf+2FyV5l9t/jdLuPRC4SBAN75APCakwzWTkQZ99MWUUK48guCX5I9VCD86NOMKy1/bE75dqMs7bSYoX6lu4JxqEp4aI3QSFDrt2QDb9+wsOcC/9cLAjsux64zRMB469nptgC+uyPh1BMWXrNshdYhavmmiUy9fuoMd2eim7anl0lmsYfdeDwN3WXgiS7jozsuvtn15iBn5NFZm/CuuoUzMecjB8UU9zsUDzwM1UT4JBDU7egS4/VngEdfYlzZTglE1T0ZhK028K2XCLc7DALj1ScFiKxxtUHj7rPfvUoDP90u7QGfOc/40svA1ZYWpyJNYfmztFExQ18X67tXCL97F+FNG4SkjVNWHOBXj1sYMPCnLwlsu+ljhkTkjaH82RHAo7uMW66L9x0F3n/Uil2Y7U/c6nDkoPgsazcyBVVB6DDj8S7jP+4IPNoFOjmd5/dXgF9rWInGOwyI+xWKBxKG+kFOso5HmDr8qROMt9/H+M+PU8yYoQoS6QrF+5sAdnvADy4Duz3CL91v4x33yUWowtReVvgp67nAD28An3qO8b3rjFtdjJfjeL8kjhlqCuyuFcLv3W3hHScIyynPvrUK8L4TMiv0718U2HY5dp2hP2boV45tF3iqBdxyXdx2Gb93zE41UyUIjoBMmKkNGCpWKN33VwTjr7cFvtRycVFoXWlCFHfcusKzNvD2moUjVrZrJiiWmAaMZU2iOAcRhEnd4akXZwN4zRnGd1+SmeW4dYb+Pn2jc5/RGRB+ckMC6YUt4K13A685Jf9uee+Z5+l0aRf43PPAf3mFcbU16jwTpqhGcavpdYbqYs8DhDoQf3mDsD0gfPIisD3g2HWG/pghe1XW6vUDBl7pMj55XeDpNuNXDlt4y6qVafqe2i2bRjdIdRvuMvBEW+DjOy6+2xG4KTi043dwzDC8rrBGwCNVwq82rNyuHz/M9otSJN6PM64jDmJRPQFvt4HP/tDCf3o0ZjZyLLitZWl9LqlFQKMKnFwFHj4JvOUu4DUn89vvzTbwpZcY//Ai42oLuNWb3L/Jx57y8FxSHu+5Gvj69Trwm+cIH7nbygxCaCrrSpfx6SuMT1wU2B7w+OdS2PfQx9tDvW/c1feq2cBGhfCqJuFXDll4a0Yo6rbtAk90BL7SEvhmW+DSQKDN0ePJCRd1OucAf7Rs43dyniwXddwAACAASURBVHHiX0UwjftcNojuexgWDUH9wjx/g/DJxyx84/kYB1k/uYMuWO+iZe9itSwPiivAq44B9x0FfvoYcG+KOdI7PeAnW8ATVxnfvgxcawGbHfXZHGO/Ji/K0eNJQK7XgfeetfChuwjrtfzHXQJR4BOXWLrMmLKfkbAJfn3VBo5VCHfVCb+wQnjzqoUNh7CaAozXBoyv7Qn817bAj7qMGy5jm8PHM/LmFKWeLcJvNAj/04qdyUWOCjXpUEsKRQPDfQZB3boD4IeXCP/5cQs/vEQRMUMNHJoiHFM0IRe0ZQE1h7FUJawvSRieOwQcaQJHGsBKVc6OOdKQ0Ou5wGabcbNN2OkBl/YY370M7PaB213phsdRdkEKdjoYJQjfdwfhg3dZuYNwAohXxxXi5H6FKEHf9wwEP41ixIcd4GiFsFEBHm4Sfqph4UyFULOAVRuokYRkl4HrA8a1AeOVPvBUV+B8Tz6+IYAtlz0lGAzgacclqq6wZgHvrFn431ZtnHLyXx00bJVAYNSENg7sygTEfQnDIuKC09xe9lrN3+4AX3vOwqe/T7i6E1HTFVALNq4GaAhLqRAngWMRUK8AjQpQdYCKLS9Wx2ZUbMLA26eeYPRcGQtru8Dtbsjnhyi7QKUYBBrf9hKEFj54J2G9XuwxUED826sCn7w0yjJHgTroOY76/r7HjgWs2MCKQ2hY8lBVvOPiEOAC6DHQZQm9HSFXtRvw5BhyzOMQVxk+5BD+lxUbP1cDbJItL5BjnDnquoqbeWbmITjLYM5+g+As1aAOQeWdNarAz94pcHPPxt88Ee0l++ve9Mn/RDzREMCfrRVgtPqEvT6HQi005pehTjBOneFKBXj7SZoJCAEJoBM1wm8elxfXJy4LbA9CvkeMztnEIUsPYDR+A8HYYsJNV0QCN1CB6uOpVxcMfyKwPCiOnbEJv96w8JqqLHJXp5BFMoFTtBjzZ54XpRzH2k8g1BfQKdoEy/54fQEMhDrpCBYRjixZ+Ll7GG+6O1bYcCxLK2vfyKsppPG/aXd3olEWmoYFgN6qcf4mA6QpIRrV1+lZVqKRVCLfDpLv4g56PbTXr1aAd50m/P691kxAGATEj5y0sOrEGW/4xnu08URbM/K5dhTw/f3vEzKepI8noscziW1YhPc3bLy3YaNhWR70CS7L87Qv5HnLM7omp4mTMjmmzn6A4EzVoFcSMRASfqwuEiaQpWImhHNHgPc8xNjtEH5wMX6dYXjdHo/PsdVfD54QmJHdXHyXQmjXmYn3m15nuFIB3nma8Af3WTjRmMPd3QPie45Z2HGBz173Yogx6wzHY7oYn8miK+Owrj1hj0NfP66sOXKOd4Bk1+oKVwl4V93CR5ZsHLZopEzV+zDgMkEAsATDofE61UTxNX3OdYzrU3eH9YRLmWoOnUUH4axig8olHgh5Qg3PZ3W3t2g41YpZxu8eOgng9QyLCE9e1JXC9DpDHvnL8rF/jq3v9boLOKoLHCmR4BkkmgIiBge68PHrDIcgvH8+INSBeLZO+K0TFhjA567LGGLcOsPAukn4jp/+PsD0ukvf60dHyidDI+d4B8Da+yJrFvDepo0/WnZwzBq5x/4pm6qjzkAQhMVwIJNyRa8nL4QI7YyTBYiKAbZtH0wYzloNqpig8O6s/q4wRCOYkQXYAGxLrunx2rOARbLZwvcvhtzhEaBYaLQYcLjy8Ck1TFN24zGvTDFDnzIqCwiHJzYBdzUIv+3NVJEKcUrMULsbUMDcZvhihuqOGKnsY4wnNE+BfK/3gzTobFcg/B9XHZy2JahdIRNmqnuYuoGRFodmJvQA2ILheECkgq9bv7rM+z2z2MJlk+ehBmVccHT9IyAoTCQDsI6NifmfnQHwzBXg098n/PPzmAy2x6gzjCy7GHufkLKRKdnRwCxmzDrDo3XgPXcQfutuKgUIdRswcKnL+Ox1gY9f9rLMKeoM/eM8ve4y4n0Cjn1U3WZUneExm/BbTRu/t2zjtO/EEwqKwjdHmhmCRzdbNefdsRg2xVeJWa4/f3IlLRhdV5YNHDhlqEA4SzU4EN6abJpLoqtBFXOpWFINBh3SugM8eBJYazCOrxI+9X2fsvNljNkXDwrsy5c5ZjjSHFlihqeahA/cTfiVszTTZEkShXimRvjNYzJm9fErWh1i0pihDoGQmF9kzDDh66cpzGMW4UNLNv71so1jAd1oLM8FtkmFd7y50Qo+PPIpBIC+IAjyVGKMWGLcuOE0kGZxkfO0hVGGswahyhLrARvyMoXqHLVJAtCJGXMRDFzdBv7+x4TP/QjY6SJTnWGYkkiq7EKVYYSCrdrAvzoK/PbdhNduEA5Vy33+CAa2BoyvbzE+fkXg6RZnrjMMO3ZxXp+1zvChmoX/YcXGz9SsQBCGqeSBK8fCm/4M4XXpVmv7KC/HIUbFmg7ErNcjEcG27VRA1HmQhzJcCBiqLz0Lt1gIoOclSUZBdhpbLc7yXImKPZp4n+SivL4LfOdFuRCUjCNOn4nCYeALel2EWzU5t5jGXboYr1+uMn7xDOHD91k40ZSdqBfF9lzgO9sCf3VV4Mld9oqzOTyUEDhDRZ/JQlNd4qnHg7QY7pTjsWoDb2/Y+N1lGw9XrVQLwQ8E0HdHtbGMUU/F0RIGQMWSQIy60edxTVYqlUwu8oGB4axAqNzinkvDeIpe96cteYGKJUFIGT6r3QMubQPfehH44tOEKzuImJg/XSFOXrice8yw5gB3rhB+8Szwy2cJJ5pYSGsL4OUO42u3GP/vNYFXehw71scxlXbg+0TANk7M8KGqhf9+zcZrqxZO2JRpIXjBcqrm0HXWocjDVDQckrObopIrWWOHjuOk5sKBgeEsQdgTMmaiwjnkxQnJomH+wrake2hTfp+7uQc8+jLw5Z8Qvn8proumKYnUyjAElCGvP7UMvO8uwptPydjgoRoW2gQDt13gmRbjSzcF/v6mFksMAl3crj1xXOoIZR7kAazZhLc3LXxkJb0ajFKJvSCVyKMVCG0CqraMJVJJYKirQvU+Waf2lRaGswRh1zshVP2YNcxwjavBqp1/6cFQJe4AP7wEfOdl4KmrsqnCbGOGHHghnlomvPMO4A3HCfeuLT4Eg+JoN/qMH+0xvnBT4L9uy4xzcsBhuI500pjhuEIcgfGYTXhb08KbGxZeW8uuBkPB4qnEAWtrsXgZZ7UGD4FRc+Tca6L5wjAsd2BZVqZyndLBUAEwawfqJCdBX4w3zres0TojFsmYmFPwxEXBQLsPXNkBnr0OPHkZ+N4l+TgSfAXFDE8tA+88R3jDccLdq8BqtfgxmKd1BXC9z3imxfjClsDXt8fLcDho/OJ08UkcMwQ2HMK7l2y8a8nC3RXCEZtyVYOhY+DKxKGrVd3oLjMgFWLVF0fMipCkMcOoRGoWIJYKhrMGYWdAw/pBZm8WiUdBXQ3aM5wtJFjWJe50gOdvAl9/wYPibkCMMFCppK8zrNjAnWvAW88AP3eKcKyx/yEYBsUXOoxHdxnf2WU83/V1wSmgznDVBl5Xt/DWpoXX1gnHbcK6nXyNmDzc5rYr6xPV/VYwD+dEgYGKw6hpQMyKEMdxYgMs7mSLNFAsDQxnOavEFUDbpeGE9WGM0Bpli6u27HI8z1mTPRfYasvs86Ud4PIO8OwN4NlN4PJudmVYdRinlgnn1oBza4SH14HjTeBoY/+5w2nc51sDxpYLXO4xftBiPN1mPN9lXOsztgWClXWCmOExB/jZpo0Ha4RX1Qh3VCQAV+Z883EZ6LiyDEfVvDIYLEYVqlWbUbPzAWJcV9nPhrifGTeeWBoYzipG6AqgPSD0hbceseXFCDECYd2RICxN/NRz57sDuVjUzbbMRG+2pWK8vMvouTLO2BPy+R0vQ1q1ZbNXhvx5bk02fj25DNy1Rthoyn6ITefgqcAkYNxxGTsusCdkw9YftBiv9BjbgnG+68ERsqHrtpAx3polXd6NCmHVko/XHcLZCuGeKmHDAQ7bhBWLsGxh5iow8pyDPN+67shLFiyB6EWxh9eJRdnVoWVZkRnhMDbE+dyFguGsCqpdBlp92c5o2JLPkm23wDJbXLclQMpsCo4KkJ2BfG7YzNWV7o6CuyM7OcGxJPQqtgR+0zHwywLHtgD6AFqu/KkgMvBq9mwAVYtQ85q9Wt4CTQ0iLJUMfmHW1oFIgPA6QKjHdZu9OtN8rl3l3lqWNQSgyhwHub77CoazAqFgoDWQdYTD1nHanEibZGOFqm0udmPGgoAo1PxmZglFz5oVGUPMs0ti2LICQeoxDjvi1CHOVRfMCoTM6oDSaK1ar5iaDQiNGYu0hucOj8/Pp2FHHBl2mh0vgiCZiyqdNwxnIUy7rnQlxzsGygJrCwaExozFAeJw2uWwo7EMLymvS+SYbgwDXJFAnBsMZ9V0oe/KO5feEl93jZsVA0JjxmID0fEByLuWXCbs9Qkix0s6CHBRFSdRQIxTrjcXGM6qhEbesUYJE9WmX3XMapQsa2zMWNmt6XlRrPU5U3XZPRfoelNa5+EuT1OUU2sT5wHCmcQJIeOEPW3xG33Ro5rvLmfMmLEYag3Sm3IsvfB81Om91ScMeH7uctRrpnFnLjCclXvcGpD3ebJBq1KFjgUsGRAaM5bKbAKWKhIeap0VFYMXzNgbFO8up2WJEAKu646BVJXvzBSGs1yzZK+vL4ijxQktYLla/NqxxoztZ6vaQLOqr0lFwyVr+y7QcfO9wKLih0kA6gegDsZ9CcOOK+sJVeof2mI4zYqcc2zMmLFs1tSqMFTJmlprpTUYNXwoVPhEuL5J11aZGRZmqQpbfbkUpgTgKJ7h2PIAGjNmLB9bqo6WotVrdwUTWoN88RLlLqd53dxgOKtSmvYA6Asexgp1VbhcMSevMWN5WsWSc9t5rBeijB22c649DANbHLbEAeJMYDhTVTgAVJ8kvUq+bgqrjRkrzF22VZu4oWtKQy8tbwuLH6ZVljOH4Sys6zVqlQCUB0TVFBr32JixYswmmUxR8UKlElXskFE8EOP2QY2KI+4rGMpSGm2pWa+ssGYbVWjMWNHq0NLXGiV5LareiETFAFG9b1LvM2h/CofhrFxkl0ethvQ7FFhmkI0ZM1awOrTH44bMcundvT7FclPzUIlJgai/tnAYzqKFPyATJ0KbIgRt/nHdqEJjxgq3RsUHKI8zXW31vSKBmFZ4DddD3w+qEJBdaXQXWd2ZGkYVGjM2E6t46wWNxQ4hvbNOP9pFzVshpnlt4TCchQmWvQqHn4vxLLIxY8aKN/LUobr2SJuz3HXLP+VrX8zFGAhgIEh2pWEaxizkwjXmJDVmbFZWs/W4/eia7Lj5qbg4AizN++8LZdhzoRVZj7rUVJ35rm5nzNhBM7/4UCqxLyabN5QNiIXBcJbxQrUI/FiNEwNVMwfZmLHZupokm6GM1KEnUpjRdwNc6wKAqHOnlHOTC4Mu4K2/oIA4iheald+MGZu9VayRItSvy7A+h3kD0S/C4jZs2Be4UIvBsxoI74FtYGjM2EyNoNZRltegdjliENHksGggxoFioW7yrGzgTQzX23WpVe+MGTM2W1PXnVKGSqRMa9qQJxCj+BP2OYUVnswShno9E8DDgmvDQmPG5iMP1dWv1xuKmM0UZsEOfRrfvlKGRKM7EKA3dTXnpTFjMzfNNR6PHVLM63l2F67uOhemDB1n+lvntTiUzFyxB8JhmwYIgX0SFTVmbHFM8OQc5aS9a4KUW9FQnCsqiAi2bcOysu2GDNiqwRspQ5fNiWnM2IxFIQbsV4VSGVopGTErz7QUusmyrExAlPMhve7Ww7omOTPFmDFjs7WB0Ot9vetScOrqjjRATNMgpjROpGVZqb40wVvgibzlCrU1T7oDc2IaMzZr6w10hebV/hKhYqV31ZKyIQ1LStXGIG0mqWKPYoZaa9eJ+ZDGjBkr1lwhW3Ypp1ldlxYxKvbs+LCwbnLW+EDd4bFF4lWsotNHrotZGzNmLNrag9H1J3jkqTkW5VL3m3T5z4WFYVqrqj5qXi5ZxSv6Qh4cY8aMFW8MYK+ndbnW4vgNJ19VEmeR+KTqsFQwzJJGb1akHBeQalB4CnGna05SY8ZmYYKBnZ6nCj06qjh+EUtvRKnENApyX8CQACxVfNkr7+600zOusjFjs3KR2/3RdSg8VWgBWKoUdxGGgW9hlWHW4uulCg/rDYUWN2z3pXQ3ZsxYsS7yrfbod5VFBhMaldl0kFJAVCxZSGUohMi8cFTFVuqQR/ECD4qbbb3405gxY3lb3wW2u+MgVNfhanWWU3PTJ1fmCkNmhuu6uaygRwDWaqqshrxsljw4212TSDFmrEhVeLMN9ARG152Q16JjEVaqs5UiShUmBWNhdYatVguWZcWao5yXrdQYdQdo92m0CAoILoBre8Adq9pC18aMGctNFW629fnIo8nJh+qzb7KsZ5KTrKlc2G4q13eW3WssAEcb8FoIeTNSeHTnMrFDY8byV4XXW7LQWvUtlPF6QsUmHG7Mdn+ivMy5Nned5TooytZqjKoFMGl1Tt6N6sqeWiLAmDFjeVi7D9xo6XORvckPJFVh3Z69i6y6YUVBcaYw1DM7szTHAo4vySPj76m23TXJFGPGcnOPBXBpx2vMAK/Q2muUUrEYRxrzAWEU8KKAWKgyVG7yrNXh4QYPM8vC65ih7lxXd4BW35zIxoxlu76lIrzV8df3ygtto1FOVRjlNltl2rncVCmAE0tyPqS+BgNDZrwubuuTyY0ZM5bUdvrAlV19HvKoo3WzQlhvzt7/Siu+FBQLh+E8EimAzCyvN1ibJzmKa9zqAJd3Tb9DY8bSWHsAvHJbZpFHqlD+7ljAyWWe+WJsijFZvFFrFjuZR1F1GnV4rMloVhlCgdmDogBwdVdmwUw3bGPG4lt3ALyyDWz3MN4HgGX9xkaTvXrfWbvtIzc9bWcbaxY7OS91WLGB08uMqiXvXEKMssuC5UHdapu5y8aMxbGeC1zc9WePvbg8A8s1ksnLObnHWXMU1qx2dh7qEADWasDpFS9+SAATDYtDBwJ4eRu43R0VjBozZiwYhFd2pUclRc7IPQYIjQrhzBzcYz8Es/Q7tGa5w/MC4nqTcWyJQdpaKSrg2+kDL94yQDRmbBoIX9nRmier0jWS/UTPrDKWqvNzj13XzVzbPBMYEtEYDGftLhNkUPdITR5JGetgCK8+qtUHnt8CtrrGZTZmTLeuB8KXtzGWjBSQ3aEqBJxaZhypzweEftd4IZShvuPzUIeOBZxdZax6QPRnwfb6wPM3gc2WyTIbMwYAnYEsqn75tr97tbx2HJITHOYRJwxShfpzpVaG81aHAFBzgHNrwGrNG0xoBxeyZOD5LdnUoWfqEI0dYGv1ZYLxlW1tFhfzsDWXYwEnlhlnVucDQj9LFGMWRhkyMwaDAVzXHaP5LG2pwrjrEGOl6s2j9KnEriuBeGlH3hmNGTtIppbKePGWvAZYK50ZgpAIx5qMsyvzVYRCCLiuO8GYhVCGaqdVD8N5uMsKiPccZqzWhFSsDAgxqplyGXjpNvDSLWC3Z+YyGzsYNhCy1Oz8FnB9bzSzRPYnJAghy9VOLAucW5MJyXmqQgVCxRg/a5LaTJoN+kmtgDicBmPNvsesBCLw4i2BWx2Sk829HoiW7AGGy7tSHd6xBizXvMXqjRnbh9YeSAAOp6qq6XU8WnGy7gAnlxhn19QCoPMFoc4VPWaY1mYCQ10V6jBUECxyLdRoIAJ3H2K8vA1stgl9l8CQRaReU0TZB7EPnF4FjjWBRsVcOMb2jwmW3s+lHeDSLsbdIC+ERERoVBinV+S/ue2rloBVXqVaWD4PfsxUGfpJ3u/3UalUMBgM4DjOXIDYqAD3HGZUbdnvcBQn9PYZhM4AeG4T2OsCp9ckRB2jEo0tuHUGcp7+K7dlnS1Infas8xDLFZkoObFUDhDq7nEeinDmylCnt18hAoDrurBtey5AdCzgzkOMig1c3CG0+tr+8ujUuLwLbPeB08vA0SYKWQvWmLGizRXS27m8C1zekY8FABqCUGWMCctVmXA8XJ8fCPUSGh2EQd7nwijDoN8Hg8HYc/MCIgE4s8Ko2TJ5sttl2cSB1UDLk2S3C/xLFzjRla5zswLUbHOBGVsMa/Vlg+PLO7LZscLfuLJiVG3GepNxxyrQrMwXhP44YZBbvFDKUO2wUon68/6skGVZcwEiAGw0GY2KdB1utD232Qsik/d/kLyrbrWBEyvA8SUJReM6GyurdQdSDV7cluEgtY7kaBGnkZu8XAVOrkhxMM8F1HS3WE+Y6GzIM2ZIXFCx387OzjDIGebX688rCFarVViWNTeFONo34MI24dIusNen4TQ90v6n9OKhOnByGTjSkFA0K/AZK4v1XKkGr+1JNdhxtdCgFgNiAFULWKoCd67xXJqzhinCfr8/BsI48KtWq6jX6+WFYRAEJ6Sq48C27eG/eQIRkNnkC9sWbneBrku6JyGrNDVIrjeBE8vAoQbQcAwUjc3P+gJo9WS7rSu7wM6UlSGXKrKZyZnV2bfrjwLhYDCAECLxmiaVSiUxDJ1Zf8lpzw8G49M+5g3EIw1guSZwaZtweVfeZV0mtfqN525IB/ranvx3YkUuO7BaN1A0NgcI9uUc+6u7Mls8dq1BrxEkVG3GclXO2z++NP/pBUEg1BkRpgzz0HRzVYZRvyuFqH7OWyFKlSiBuNmmsUWliMg7ybTFZQg4vizjias1CUXbxBSNFewOb7blDXmrPYEZr2pGOsk2ActVxrEl4PQqo16CJKC/fEZNzJimCIPgmEYZFg7DOOALgqWKIVYqlSEUywBEBnBxm3BxF9jr0djCUurAWJ5SVO7zsSXg2LKMLTYcOaXJmLE8rDOQELzRAq7vAre6ekwQWuJv9NxSBThclwXURxrl+B564wU1XTcJ/Py28DHDoOcVCHWFWAYotgfApR3C1T1Zl6gWp9frE4c09OxoE9hoAkcbQL0iwWjMWFJzhTz/2l5i5HpLNlcgUjNGxis31PVSd+QSumdWGCeX5ze3OEwRqiYu+vUfF34LoQyTwi/oedu2hwrRtu25lt747XaXcHkHuOG5zhKKNKpZIC+myKOTdaUGbCxJxdhwJBjNvGdjcVRgZwDc7kgA3vBazfkhOKyZIRm4qTlA0wFOehAsS12s3n1GxQin4Siu27wvlaH+uFqtjmWbywJEANhsyXjizQ7Q6pOvQeyoaFs3x5IZ6I0l6ULXHfnPJFyMKesLuTRFZyABuNmSFQ4BZNHqvuT1UrNlwfTxZeDkEubSlj8KhLpr7E+cJlGECxEz9E+dmQa7sN/1TFKlUhm6zUohlgmK11vA1V3CZpvQHipFHxgDdnelKt3o9aas9ao7QN0GyIDxwNlASPh1vbnDmy05ASCw4bCvVle6w7Le9fgS48SyzBaXyZRbrJIkKlGSBX5+W2hlOC2hoh9w27bHirPL5DYru9EiXNkFbnak+9x1MZZtHupEmtSNh+oSjKqIu25LV8coxv2tALseALe7MiusOibRJPuG1QujKgZGsyIbj5xYYhxfktniMpl/+Q+9mDor/A6MMgz6XU+qlKn8xm9bHRouWN8eSLU4CUMC+5xp9W2PNOS/ww2ZBax5YDRT/xbfuq4HQBfY7sgQy82WzA5zYJCFNRjK521LxgObVcbJZRWHLl87Yr3ZQlB8MO61a2KGETNWlEosW7bZb7s94Noe4eoe0O4T2gMac6HH7vR6Nlq7GtbqwOG6nOGyWgWqjoRj1TaqcVHc3547guBWG9jqSFe43Q/FiMLg0LMgADVbzqFfqzOONYHjc1izOAkElSJUGeO83OF9GzNM+7xSibpaTHK3maW5ArjWIlzbA251CK2BDJCPKUOVHlQOki4Vvcd1W0LxUB1Yq0n3qGbLGkYDx/Ic664L9D0A7vZkJlgBcFhK5z++AQtNMKQ3UHeApsNYb8qC/sON8i5KMU0N5gm/hYwZxmnVnSbGSERwHAeVSgWVSgWWZZUylqjb7S7hRkvWirX6solsxw2hHxDZan2lKpXjam0040WBsWIbt3oW1vPA1xNAzyuGvt2VLvCtrlSDUeAYz5bJm6EFqQDrjrzpbTRlE4V6iWtUw9RgEpgldYsPXDY5bixRZZz1EpwyQ1GwTLjcaKm2YRKM/uwhRTzy21JV1jOuVuUc6WbFA6M1gqMBZMqLHcDAlUmPvvez58rC5+2ubIqw08HY7KTwd1Ln7rgjoMqslqtSBa43gbVauZcm869Q57ru1NrBvBVh6WKGzIzd3d1CsslxY4lBUCyr6zyuLhibbcurJyN0XFVmQQEXkS8P7T0kreZ7eKe0pXpc9v4tVSUgdTBWbMAhM4dat76Qsb6BK38q8O315L8d9bMbvori+PFgBNWdWsSoO4S6I7PCR5uM9QZwpFH+tRnV9afXDfrb86eBWhblWBplyMzY29sbK6RMCrs84EhEqNVqYzNY9EWoym7dgcwwbrYINz3FqILvgiOuOn8CJsRsr3/dUkWCsVmVmcmG16jWtnw/PVDup3CkWhrW9aCnfqp/rb78t9cDWgO5Dk6rn1BHUmAYEBXbqw6wZUH0elNWDRxp8MKMsV8JKjVYtPKbtl2tVkO1Wk10necOQ/V2rVZrOChFJU7iutn+jPOiQRGQF+nNDmGrLX/u9UZlGT0XoaU5UjDShJaMcrRtkkBsVEZzqBuOLOmpOdLVtmgER5vkY8t7Xv9HcwKcWvxcwW74uxjBT7Acu447muXR9hJa7b78PcrBpQidztoRUM/bNCqNqtmMtTrhcJ1xuC6zwgsVKvDFBXUIRsFqVjHDWq2GSqWSTGXmCUP9rVqtFvr9fqHwS/K8PntFKUWVZFkkKA5jsl0aZiVvdaRqVGUbfTe4Tk0v8B6vbkxmVVt2Ra45o/KeYbLGc7crmpokS/bBJZL/1O9q3/Tfp0XXI9dhgwAAGDJJREFUmDFcx1f/qQPQZTkGAyGTGf3BKKOriptVTNbl9Oe62m9tGvrYzciiUemT6ht4qK7+lTsJEheC/k7UecEs63aNRgOO4yRyu3OBYdBbdDod9Hq9QpReluyzyjrXajVYljWc1reoUFRK6HaHcKsjs5e3u0BPEHoDL7PpElwRhZjxGJb/oh5639rjYNpOPrYA2I4Xi9SUpA5Ji0agpKA95GEv3THgCU3h6a4tEuzftO/HE2OFUF1d8aBX9QDYdBhrXunTWq180+KyQlBvvloE1LIox0ajMcwTxAZzVhiGvbzb7aLT6cwcdnG3V0pRTetbdKXoB8h2l7DdAW57wf29HtAXNMx+9iNU0XgXlPETeFgB4oOJHzbDvgFIBqe8HrN/zZqQ/VVF7uMtr7ztODz0qitgBUGVvV+pMdZqNNdV5YqEoL5A0zzgN80NB4Bmszm8luN+VmoYTntZr9ebgOE83OM4cK1UKhNKcVGyz3GtMwB2e4Sdniz+3e2NWo4NhHIr5awY5XJqK6ROPJ72M+n2ef/Mur/qsUOjjHvFYjgeAJerPMzOr1SB5Vo5Z4AUAcEiYnx5b7e0tBT52qC/OUWAEAAsy4qt3OIqxrj7Efd59bjb7aLf78NxHFSr1bH5zmXsjJPGZN2azFgqTdR3Gbs9C3sqY9pn7PWAjksYeMpx4BIGzBgIuULggEduK2neY9BjTPl70Y/jfD5BAs+yAMdmODTKoFcs2QKrWQGWK3L+71KVsFzhfdlNSBcPKjusN12NA6m4a5Wk2W7aPuvbTbtegz4zsTKMu7kQAru7uzNXelndbn0miz69b7+40HGsL1Q2lYZZVVkIzugMpIJUWVk9QyuYhllbwQzB8xknlaQZZbUZlgXYRLCJYWvZ8IrNaDiEmsPDrHmjwmhWCA2HD0QLNQU/dd0myQ7nFePLUznato1Go5F4fxLBMAk3FQz1gZ6HG5wFjkop6lDUZ7TQAW022B1I9djzah57rpx+pmKRPa84eeACAjTK9HqKTM8EK7HGoFG2ZKxoRaWaeajkFPBUwsXSfxJgWyxjeVpcr2qrzC6j5shV4VQW/CCafs4rACoV6G+0Oit3N6+YoQp7JbuBUnwYpgktttvtYUY5C7ymuc1Fw1UVb+s9FA+aWkxrAwZcFxiwpybFeN2f+geEFJKrsItHQstTfbbn2uoZasdiOJZpUhFXBUYVSyeFWZlihkGZ5Fj7HgeGaRPOg8EAe3t7hSu9NLBMA1d/MwgVW1RxRQNGY4sQC9Q7Tftb7pclAZJWOdq2jWazmS68Mg2GWSpvdFe5TEova/aZmYflOPV6fagQK5XKEIpxA7nGjM0SgP5V6LLCqucCe31C17VQtRmH6xypzIuGaLVaRbVazR+GeUxOabVaY65y2WGXFNLKbdbji6pEx4DR2LwAqH7qJTH+ZTizwqjnAs9u2XjymoPNtoW1msAvnBng5LIYdtuepYIkItTr9bGZJ0nMKRKEgKzhU9PygtzOLM/7ByjO80HfUd9OvTbu56mTTdVVKiCqIm5/B27jShsrCoJqNohSgf5egnGV2liGNaz0BcDVloXPPVvDD657NbkALmzb+MADXfzUevxF4Kftw7Tn1Pup9ZHSWuGzI9XOBcE1rzrBvLPJST9Pmeu6aLfbQ8VYrVYnms0qV1oHo4GjsTTwU78r2Cnlp+YLx1FUaesCAcLzW/YQhAqQT2/aeGnbCoVh0jrDuPuveplmuY6cIlWhgkKtVkO32y2N0ovaftr+xTlg6oTsdDrodrtDheg4Dur1+hCEfld62t3SmHF/9Tigf7lNIcRU5RUFlyTPCQY228Hn6HbXSuTmTtu/aYpQ90KzmFMkCPWgZhAMF7XUJslMGf2EVfO1lRut+q3p5TpBqtHA8WCrPz35oRdF6/WB/hv3tBt73LVIgt6HObrbEUcIjbD3y7qdvvZRad1k9UUUEPOK4UXF9mYRk4y7H/73EEKg1+uh1+thb29vzJ1WWTD/etAGjgfH5VXni1/9+dvop1F+ecUMVcOO0PeMOD/zjhmq5yuVSqLvPRWGRahC9Z7VahW9Xm8Y5E2qsObxfB77Ny1GotzpTqczlplWsUY9MKzDMWgGjAHkYgJQKb6gGGBY+/xpgiJpzC1NzDBKGcZ1+bPGDP2qMAsQnVmAUKkdv7tcJqWXVQFGKcO4d159OpSCo/pXq9UmCrz9KwAaQJYTeP5zSrm2Cnj+pghB12KW6WpFxAynKcNZxQwVV/xjnea8d2Z1MujqMCggXHQMb5YxxqjnksRIlDIAMKzVVBlpBcZqtQpmHsYb/VMEo2ocDSiLhZ//n3peqT1mnugGHzd2l+Z80p/f6wG7fULXJVQtxpEGo2KFK7SkMUM/lPKIGQbtV1gGOQ0QnSJUYdj7+dXhLOsE81SecZRkUTESZh7GHNWYqpNCr230u9NB60hHNZswoERgLM//WI/xqWyuP+Ghl7zoYaKsiiltzFAw8NiVCh674uBWx8JqjfH2O3p4+JiLqs2xlGYcZRg3C5w25qlihdOO29yU4TSwVqtVuK47tm5C3kqvTLHEpH3ZksZ4dOWoz/RR8NN7M+oLYal+k7rbHXSC5jVndNGU3Rg8NMjp2/qLnPVYnz/OV0R/v7TbXd6z8Imnanj0cmUIr2e3bPyvb2zhvsPuzGOGab6nAmGe559T0BryoWZZFhqNxpgLOG+ll0UBTtu/NNOM8qjI10t6wiDJzGMF4f4Eja4ew1zuvGojJ1vvU6gyKwp4QRejfsPRS1nClF7a2Feexz/qOQbh6xeqQxAqeD1xxcH3rjpDGE5TomlihnnGPNWKl3FV/cyVYdyTVSUE2u32XPsdZmnUEFcx5l1XlTVmpC/mo8cilanYo8rOqdik7pIHLbQTlMRRv/vDBlEXbNTYRilv/fVBQPO7uUEQ9INOT3AkvanN+/iHja9gxs2AYmkGcKtDsc/ftDHDPGKeQUmTPIDozBqEww/2Ght0u93MSi2Nsksbk4zzefO886epM/OX+igI6LD0v59e96gnbaatHxM000bd6aedX0HfK0iZBbmzKiHlz+bOW6nNI2aYVrGXIWaoapaTfr84Y+LMA4SK7rVaLbKzbtK5wbPKPseJJc4qZphXnVnSui8dQmGuYtyYY5n645X1eOW1HaW8tssSM8xSUzi1XnEeIPTHD1utVuDdOsvc4LhKL01MMkkscV4xwzSxqrh36ixlOrOqg5slbPM+DkUq0bg4LGPM0LbtzPOPZxYzTANO1byg0+lMZODKOBd5ljHDODedae8XV0GUZf/izJ2N+txZxe7ijkfS95t2vDKPBzjRtVqWmKEKqwV937zUoZM33FIROQSIWbPHaWKMWWKGcd2xvJVLGiVX9v2bp7I+COORJGaYVhnmFfNUIbWoUEQeQLTmqQr1L6uAqAfmozKIcZ73tzyKs71/xkCa/QjbZlpMcZbblX3/ph27NO+XZDymZa8XaTymubBZzt+4McO031NljuOsgzw3NznJh8dddN5xnLGSm0XOJpc125h3DLKMMT4T84zcMpfvmfQT0nx3BcKsrbniqsOZxgzj7FylUhkWCvtLJOLGEtPE/PKMSaaJkYSdFHH7z8WNGWWN8aXdv2n98ZLGDMtax1n68ViQmKGag69mSsUBca4tvOalCv0KsV6vA8BYU4cwpZZXJ+ss2eOo72pihiZmuCgxwySKjhmohAi2qsWZPBxVS6grwiKAOBGbnFecMGo7BUS1aHuQcksSF8or9hj1vlG1iCZmaGKGCxEzDGkMErRfBOCOVYHD9fHPWKkyTi6L1N9TeYdBrnHRU4edogCX9f0UEG3bRrvdHqtDzKr00sQYp71v0LQzEzM0McP9GjMkAh5aH+AtZ/t4/IqDrgvUbODhYy5edVSkGg+9PV3e8cA42860n2FSU4PDzGNlN3n3O8xaV5hnzLDomFHWmOF+rwvc7+OBnGKGstMR8NY7+rj3sItbXcJajXHvYYG1mhhCN+54qIJq//IWaUGXup9h2VSh/+9qUna32x0DYhlWywsDW1mVi1FWBzvmmdcMFPVOJ5cZJ5YGUz8jqhWXvoRunDHLc+61/n6FxAzjQDPpNtVqFUtLSxMSOq86wTQxxqj4zDxjXnl/bpL9yxrTMjHPYmOeaZRhUeOhuiP56wjzEl2Jm8fMSxWm+TwiQqPRADBqoFm2bPKsVifLU4mUKaY167naBy3mOU0Zzmo8iCjT8p55q8NCYoZ5qcKoOGKj0UC/30en0wlcbW+ea6osat1d2ffvwNYF5jwe05Rh0eOhSmeius9M6xhUlPgqTdF1Eljqax/0+30MBoMxKOY1QyXo9zhK0sQMTczwIMQM0+x/0Fo8WWN9eSlIKw84zQuWavperVZLNac5LK4Tp2Zw2vMmZmhihmWNGdadYOdZXwyqiLpWtQ5PnAYn8+DOzNv+5z0ASiWqZRf1dSmKnoscFXs0MUMTMyxjzJCIcNeai42mwPXWSEAcbQicXhaFjIdShFnbbxUdOyylm5wGlqpqfTAYoNvtFhpLzKOPYdj3mWfdXdn3L855YOoko8eDwHhoY4D339fDP71UQatPWKow3nVXH686Osh9PMJAOEvYxV56VAjBaQGUt+qLU/zsl+P+39W6wiqOmOeCU0m2yxJDS6Oo8v7cNNvlsX9lWwZg3seriO8pmHF1z8Yzmzautiwcbwq88dQAzQrn/rn+FRf9Kyz6n49Sl1mOXS4wzLMpQ1YYBi3nGARDfQU4tSRpGiim+X3RYLGfYGbgPv/x8L8mDxjmAcRSr45XtBut0veWZQ2hGLRN3tnkRYyhmRifGY8s3zPuIlqziPtlsdyUYRHJkzTKUFeB+t9d1w11nfPqa3hQFIJxY814+ENX+t/9as+vDv3KUG0zb2U4Mxim+fu0dllRIPS7zvo2g8FgYrnLPN3mRYkZGriY8Ui7XVD5jh+EYf/0bfXYYpEwjLPNzNZAyVXOTmlWGnWiquUFVL2TOuh51yXmVReYd91d0Mls6gLNeMT9nsw8nArrum6q8BiF9E2cdxjOwQJbUA/BOO3x9U4ZUYuhZ+mKU+YZCiZGZmKGccdDh6LyvFRPAF3NhSVC4gqYNCo977ijs8jwi/O3aVPlVDxjWiwxqRtdpjqzON+hrPtn6iTnWyepQ1CJhTigj5MhLps5iwq/aQox6OBHZYNt24ZlWRBCTMj/JOslL6JyMcrKdOrWf9cTlao0LSzxMU0V+p8Pen1peFPmBErYnSosrhH0LywepC8jENYTUdUrBr1f3O+26AmBRdoua7x5P4xHlgSOOseVGPCHgYIywEH1gkGJkrBsctT7pzl2Wf6+cDHDKHc4KLYXpQzDVKIeV9TvjgqQceoSy6ZEilReafcv7+2MEk0XK9YhGBY3T6MM48wiKZMrXXplqB+saTE6Xd6HKcOwbePEBdXJEqQW56HA8lBCRqktllLPq3TH7yWppEgSEOr1g0FQTKIKg1xqowxzVodxu1f7VWLQ9qoFkV5e4IeiiRkapVbWmKFfDKibelhcL66LHBYbLGKK34FXhuruFba9foeLUoZh8cW4scmwk0p3o4NccxMzNEp0nsoxKAYex02NUoaqrCaqmDqJKlSATTtGeRRdLywMwwA2DYJJgJgEijoYpy2SPY8ZCsbN3V9ubtj76d6NPhXV7wYngWBcyIVBUQdn1OcX6SKXCoZx4oLTXhunvi/O/OUgIEapw7itxfS/KSgG9VUsE1wW7WI3SnN6IkRdB7oKjCp9SaoK46hBv0sdBtk8VGFusCxzo4Yk6jBMGeYFxGlQjAKnv2hV3/YgucUGtvmOh3penVfKMwn6nLiZ3jAgxnF947boSqoKFw6Gs3CV08wHTQLEuOowS1NYPXajPzdPWBiYLQ4cdWGgeyFJFV8UILOowqQgjKMKSwPDMsUNk6jDOECMqw6zKMWw7+Uv7g5SjPNwh01CpRz7P+18iZp6mkQVxoXgtLhgWhDmAcOZdbouU9wwjjqMA8SwbYKglAaEUWpx2rZBcNR/N52u9zdMw87hIBEQ9vlpIRgFQn/2OA48/Y0cwvZ/Jqpv0WA4DyCGqcS4MMwCxWnPh7WViqMKTMyw/MovqEt0lPKLA5a4rnBcCE5ryjrtddOgnUsWOK9zL08YzspVjpr5kQcQg1RiHIWYxW2Oo5qn9dxLu1Spgdlstota4CwN/NLEA5NCMK4aLCsIc4fhIqnDOEDMohLTQDENGJOAM656NG7ubMZjmneQBX55AjAKaknUYBoQ5gUyA8MMQEwSE0xbkF0UGJPEXMMUR9w+gAZ++cAvr5UT48YBs0LQHx+MG1ucBwjzdJELgWGeyi/uNlmAmEQlxgFZkiRLEtc6r/HWS3mi9mfWbnHZt4tz/hW1ZGzSeclpYRhVHJ2kyUKcDjVlU4WJYDhrdZgXEKPu1EnhqMcSs6jFouGY9ViFzbGO8977oY4vzs0iDxUaB2ZpAJgVgnFV4bTtigRh7i4y0fxgmLe7nASISQEWNe0vLQzjNohN4mbnfRzz2HZeLcnSWtLxTLo/aUBXhCKMC8GDAMJCYThrdRgXEEnmHMeFYpo1mNO4z2m2T7uiWJaVyIIa3k47QcNap8XNoha5clpa+GaBXFrFGBdgSVVfWgjOE4RptksEw3mow7yBmAcUk7jQeanErOtO5w29WYCobIBLC7G0r8lLDeoqMAsEiwbhPFVhoTBcNCBmhWJctZjH47xgV4a1ahcVmEW0m8ozNhimAmcNwXmAMO12iWE4L3e5CCDmCcUopRmnMW2eLvCsQxTzVpJFxBGLVihp1wSZ9jhsClya2sRp7vGig9C/bSna/qddEjTOdlHLegYNXFjL/2lxrKi/6SeovqBUETZtH4sEyCK7vVnfMy+3OQ0MsxZhzxOCZQFhamU4T3c5y2enLdXJ4tZO2zZKNebpNs9KCZbRtS46RpgWiGmf83d5yQuAaSA4CxDuKxiWCYh5QjErKIPeP0sypajY4iIAb1aQzDMeGBckUfAr8nGRECwbCDPBsCh1WBQQ84Ri3PfKI1ESF8qzgOEsIJilI88swFgkDJO23sribmeB4KKDsBAYLiIQs0IxjVrM4v5mccHzcp/zBGHeQM0TlHlceEkVYN4gy/K6MkFwHtvOFIZlgGca9zOtWkwKqDzfL2mJUZEAm5VbnRWMecIwzxhh1ueyqsA8IFgWEBYKw0UGYl5QzEOlZS2pydIjcb/AcBZATJNZTfN8FtDlpQLzguAigDA3GJYJiFkuvjTuc9zXFjXlLovySwvCMidccnGXCsgcz+P5PLO8ZYNgEdvnBsP9AsSsUCzCBS4ChEW7yPPOOGdRiEXBsGiIJp37nEWNlh1sqY7pPGE4C8jNE4pxIVaEspt3Bnm/w7AoIGaFXx6gmFXstWzbE0vL7SQsIxDzuDhnBcasarAMIFx0GOahDvMGX57wKwKAs4Ba0a8hLkkFbdKuwfNULHmAMct3zCvps19BWCaFWBTg8nJf5wHBsr6mNDBMC8gyuHFZm63mCaoi4p2LBsB5QTENcPJuRzXt9fOoyywC4oUcNz7IfZpKfBNQ6+cOBoO5uOL7AYCzhmNRMbwyqL95AW2mKtLAsPxgHAwGkY1ji3TJ9wv88rh4inBdi3BTy9DFZ9HgaWC4QNbv9yc63OQJqjLNTy6rSpx1ljXuexQ5d3seEJwHCA0MF0wh9nq9ubuyBxmGZXivMjWt2C8AVebA2MJcsJZlRarDpCdIGrDtp6aw84ZdGcBXtGpdFBAaGC6YWZaVayIk6VrCBnTFvf+sbzJlUsNlCD8YGC7gxZr0wOcFsawn3CxgWhbVmmdxdJnHZ79A0MDQqJqZKr6DtOZK2aFchvcsGwgNDBfMksYL8zppDlKObRZF0It4wykLBIv8ngaGC2Jxew8eZMV2kMZjEbLKiwJBA8MFM9d1jQtu3PKF+6wyKUoDw32gCF3XXUhX1ajO8o/ZLEuFyjweRGRgWHa3WMUJ4ywMb8wAbz8AcB4gNMqwhPADkiVK4pwwBpgHWw3Ps35ykcICBoYzBp4OvrKWtRh4Lrarv2jJlbKECAwMZwA+P2D2c++/snzHgxKvXOTkSlkgOHzeNGooBnhGiRnbL3DfLxCc9plGGSaEVRHurUmOGCuTol20GGNen2lgOMWyNlUt8gAaWBroLdL+zOs7L9yCUGVWhXmuvTIvRWvsYMNunvu4KC6+UYY5DXIZwRP3RDDQ3F+QK8u+L1o9pYFhgQO/KJBZhPZcBmb7yyUt4378/2qvAOrdncK+AAAAAElFTkSuQmCC;" parent="1" vertex="1">
          <mxGeometry x="1430" y="1040" width="239.65" height="230" as="geometry" />
        </mxCell>
        <mxCell id="Qs4QEQBaAsP0csd1ogdy-104" value="&lt;font style=&quot;font-size: 18px;&quot;&gt;&lt;b&gt;Nacos注册中心&lt;/b&gt;&lt;/font&gt;" style="text;strokeColor=none;fillColor=none;align=left;verticalAlign=middle;spacingLeft=4;spacingRight=4;overflow=hidden;points=[[0,0.5],[1,0.5]];portConstraint=eastwest;rotatable=0;whiteSpace=wrap;html=1;" parent="1" vertex="1">
          <mxGeometry x="1492.5" y="1300" width="147.5" height="30" as="geometry" />
        </mxCell>
        <mxCell id="Qs4QEQBaAsP0csd1ogdy-105" value="&lt;font style=&quot;font-size: 18px;&quot;&gt;&lt;b&gt;Skywalking性能监控&lt;/b&gt;&lt;/font&gt;" style="text;strokeColor=none;fillColor=none;align=left;verticalAlign=middle;spacingLeft=4;spacingRight=4;overflow=hidden;points=[[0,0.5],[1,0.5]];portConstraint=eastwest;rotatable=0;whiteSpace=wrap;html=1;" parent="1" vertex="1">
          <mxGeometry x="1754.6" y="1300" width="195.4" height="30" as="geometry" />
        </mxCell>
        <mxCell id="uU9Yc5QhHx4hShps4iQN-3" value="" style="shape=flexArrow;endArrow=classic;html=1;rounded=0;entryX=-0.005;entryY=0.902;entryDx=0;entryDy=0;entryPerimeter=0;endWidth=70;endSize=16.185714285714287;width=50;" edge="1" parent="1" target="Qs4QEQBaAsP0csd1ogdy-42">
          <mxGeometry width="50" height="50" relative="1" as="geometry">
            <mxPoint x="680" y="961" as="sourcePoint" />
            <mxPoint x="735" y="1070" as="targetPoint" />
          </mxGeometry>
        </mxCell>
        <mxCell id="uU9Yc5QhHx4hShps4iQN-4" value="&lt;span style=&quot;font-size: 18px;&quot;&gt;离线消息&lt;/span&gt;" style="edgeLabel;html=1;align=center;verticalAlign=middle;resizable=0;points=[];" vertex="1" connectable="0" parent="uU9Yc5QhHx4hShps4iQN-3">
          <mxGeometry x="0.0381" y="2" relative="1" as="geometry">
            <mxPoint y="-1" as="offset" />
          </mxGeometry>
        </mxCell>
      </root>
    </mxGraphModel>
  </diagram>
</mxfile>
